SplineFontDB: 3.2
FontName: supErphoniX2
FullName: supErphoniX2
FamilyName: supErphoniX2
Weight: Regular
Copyright: supErphoniX2 / Superphonic remake by NR74W (2021).\nOriginal font design by Superlooper (2001).
UComments: "2021-3-25: Created with FontForge (http://fontforge.org)"
FontLog: "The supErphoniX2 / Superphonic font from WipEout Pulse, released for the PlayStation Portable in 2007.+AAoA-Made by Superlooper.+AAoACgAA-Version 2.0.+AAoA-Homepage: https://github.com/NR74W/WipEout-Fonts+AAoACgAA-A nice blocky and easy-to-read font. It was created in 2001 by someone called Superlooper...+AAoA-The font has two names: Superphonic; and supErphoniX2.+AAoACgAA-The Superphonic font was used in some artworks of WipEout Pure and its intro sequence.+AAoA-X2 was the project codename of WipEout Pulse, so the supErphoniX2 could only have existed after 2006.+AAoA-Most characters (upper case in particular) are different.+AAoA-The PS2 version of Pulse used a mix of these 2 fonts.+AAoACgAA-At the end of the font (Private Use Area) are stored the Superphonic characters, and 3 characters from the PSP version.+AAoA-The Y, f and inverted question mark were different in the PS2 version (Y from the Pulse intro sequence, f from Superphonic, and question mark inverted).+AAoACgAA--- NR74W (2021)"
Version: 2.00
ItalicAngle: 0
UnderlinePosition: -125
UnderlineWidth: 50
Ascent: 800
Descent: 200
InvalidEm: 0
LayerCount: 2
Layer: 0 0 "Arri+AOgA-re" 1
Layer: 1 0 "Avant" 0
XUID: [1021 17 266829378 26131]
StyleMap: 0x0040
FSType: 0
OS2Version: 0
OS2_WeightWidthSlopeOnly: 0
OS2_UseTypoMetrics: 1
CreationTime: 1616630799
ModificationTime: 1622336091
PfmFamily: 81
TTFWeight: 400
TTFWidth: 5
LineGap: 92
VLineGap: 92
OS2TypoAscent: 0
OS2TypoAOffset: 1
OS2TypoDescent: 0
OS2TypoDOffset: 1
OS2TypoLinegap: 92
OS2WinAscent: 0
OS2WinAOffset: 1
OS2WinDescent: 0
OS2WinDOffset: 1
HheadAscent: 0
HheadAOffset: 1
HheadDescent: 0
HheadDOffset: 1
OS2Vendor: 'PfEd'

StartChar: zero
Encoding: 48 48 1
Width: 880
VWidth: 1024
Flags: W
HStem: 0 110<110 660> 660 110<110 660>
VStem: 0 110<110 660> 660 110<110 660>
LayerCount: 2
Fore
SplineSet
110 110 m 1
 660 110 l 1
 660 660 l 1
 110 660 l 1
 110 110 l 1
0 0 m 1
 0 770 l 1
 770 770 l 1
 770 0 l 17
 0 0 l 1
EndSplineSet
Validated: 1
AlternateSubs2: "'salt' subtable - Numbers" uniE020
EndChar

StartChar: O
Encoding: 79 79 2
Width: 880
VWidth: 1024
Flags: W
HStem: 0 110<110 660> 660 110<110 660>
VStem: 0 110<110 660> 660 110<110 660>
LayerCount: 2
Fore
SplineSet
110 110 m 1
 660 110 l 1
 660 660 l 1
 110 660 l 1
 110 110 l 1
0 0 m 1
 0 770 l 1
 770 770 l 1
 770 0 l 17
 0 0 l 1
EndSplineSet
Validated: 1
AlternateSubs2: "'salt' subtable - Letters" uniE00E
EndChar

StartChar: C
Encoding: 67 67 3
Width: 880
VWidth: 1024
Flags: W
HStem: 0 110<110 770> 660 110<110 770>
VStem: 0 110<110 660>
LayerCount: 2
Fore
SplineSet
0 0 m 1
 0 770 l 1
 770 770 l 1
 770 660 l 1
 110 660 l 1
 110 110 l 1
 770 110 l 1
 770 0 l 1
 0 0 l 1
EndSplineSet
Validated: 1
AlternateSubs2: "'salt' subtable - Letters" uniE002
EndChar

StartChar: U
Encoding: 85 85 5
Width: 880
Flags: W
HStem: 0 110<110 660> 750 20G<0 110 660 770>
VStem: 0 110<110 770> 660 110<110 770>
LayerCount: 2
Fore
SplineSet
0 0 m 1
 0 770 l 1
 110 770 l 1
 110 110 l 1
 660 110 l 1
 660 770 l 1
 770 770 l 1
 770 0 l 1
 0 0 l 1
EndSplineSet
Validated: 1
AlternateSubs2: "'salt' subtable - Letters" uniE014
EndChar

StartChar: Ccedilla
Encoding: 199 199 6
Width: 880
VWidth: 1024
Flags: W
HStem: -260 110<275 385> -150 110<385 495> 0 110<110 770> 660 110<110 770>
VStem: 0 110<110 660> 275 110<-260 -150> 385 110<-150 -40>
LayerCount: 2
Fore
SplineSet
385 -150 m 1xbc
 385 -40 l 1
 495 -40 l 1
 495 -150 l 1x7a
 385 -150 l 1xbc
275 -260 m 1xbc
 275 -150 l 1
 385 -150 l 1
 385 -260 l 1
 275 -260 l 1xbc
0 0 m 1
 0 770 l 1
 770 770 l 1
 770 660 l 1
 110 660 l 1
 110 110 l 1
 770 110 l 1
 770 0 l 1
 0 0 l 1
EndSplineSet
AlternateSubs2: "'salt' subtable - Accents" uniE046
EndChar

StartChar: L
Encoding: 76 76 7
Width: 880
Flags: W
HStem: 0 110<110 770> 750 20G<0 110>
VStem: 0 110<110 770>
LayerCount: 2
Fore
SplineSet
0 0 m 1
 0 770 l 1
 110 770 l 1
 110 110 l 9
 770 110 l 17
 770 0 l 1
 0 0 l 1
EndSplineSet
Validated: 1
AlternateSubs2: "'salt' subtable - Letters" uniE00B
EndChar

StartChar: Q
Encoding: 81 81 8
Width: 880
Flags: W
HStem: 0 110<110 440 550 660> 660 110<110 660>
VStem: 0 110<110 660> 440 110<110 330> 660 110<110 660>
LayerCount: 2
Fore
SplineSet
110 110 m 1
 440 110 l 9
 440 330 l 25
 550 330 l 25
 550 110 l 17
 660 110 l 1
 660 660 l 1
 110 660 l 1
 110 110 l 1
0 0 m 1
 0 770 l 1
 770 770 l 1
 770 0 l 17
 0 0 l 1
EndSplineSet
AlternateSubs2: "'salt' subtable - Letters" uniE010
EndChar

StartChar: A
Encoding: 65 65 9
Width: 880
VWidth: 1024
Flags: W
HStem: 0 21G<0 110 660 770> 0 21G<0 110 660 770> 330 110<110 660> 660 110<110 660>
VStem: 0 110<0 330 440 660> 660 110<0 330 440 660>
LayerCount: 2
Fore
SplineSet
110 440 m 1x3c
 660 440 l 1
 660 660 l 1
 110 660 l 1
 110 440 l 1x3c
0 0 m 25xbc
 0 770 l 1
 770 770 l 25
 770 0 l 25
 660 0 l 25
 660 330 l 25
 110 330 l 25
 110 0 l 25
 0 0 l 25xbc
EndSplineSet
Validated: 1
AlternateSubs2: "'salt' subtable - Letters" uniE000
EndChar

StartChar: a
Encoding: 97 97 10
Width: 660
VWidth: 1024
Flags: W
HStem: 0 110<110 440> 220 110<110 440> 440 110<0 440>
VStem: 0 110<110 220> 440 110<110 220 330 440>
CounterMasks: 1 e0
LayerCount: 2
Fore
SplineSet
110 110 m 1
 440 110 l 1
 440 220 l 1
 110 220 l 1
 110 110 l 1
0 0 m 1
 0 330 l 1
 440 330 l 1
 440 440 l 1
 0 440 l 1
 0 550 l 9
 550 550 l 17
 550 0 l 1
 0 0 l 1
EndSplineSet
Validated: 1
EndChar

StartChar: o
Encoding: 111 111 11
Width: 660
VWidth: 1024
Flags: W
HStem: 0 110<110 440> 440 110<110 440>
VStem: 0 110<110 440> 440 110<110 440>
LayerCount: 2
Fore
SplineSet
110 110 m 1
 440 110 l 1
 440 440 l 1
 110 440 l 1
 110 110 l 1
0 0 m 1
 0 550 l 1
 550 550 l 1
 550 0 l 17
 0 0 l 1
EndSplineSet
Validated: 1
EndChar

StartChar: e
Encoding: 101 101 12
Width: 660
Flags: W
HStem: 0 110<110 550> 220 110<110 440> 440 110<110 440>
VStem: 0 110<110 220 330 440> 440 110<330 440>
CounterMasks: 1 e0
LayerCount: 2
Fore
SplineSet
0 0 m 1
 0 550 l 1
 550 550 l 1
 550 220 l 1
 110 220 l 1
 110 110 l 1
 550 110 l 1
 550 0 l 1
 0 0 l 1
110 330 m 1
 440 330 l 1
 440 440 l 1
 110 440 l 1
 110 330 l 1
EndSplineSet
EndChar

StartChar: c
Encoding: 99 99 13
Width: 660
Flags: W
HStem: 0 110<110 550> 440 110<110 550>
VStem: 0 110<110 440>
LayerCount: 2
Fore
SplineSet
0 0 m 1
 0 550 l 1
 550 550 l 1
 550 440 l 1
 110 440 l 1
 110 110 l 1
 550 110 l 1
 550 0 l 1
 0 0 l 1
EndSplineSet
Validated: 1
EndChar

StartChar: r
Encoding: 114 114 14
Width: 660
Flags: W
HStem: 0 21G<0 110> 440 110<110 550>
VStem: 0 110<0 440>
LayerCount: 2
Fore
SplineSet
0 0 m 1
 0 550 l 1
 550 550 l 1
 550 440 l 1
 110 440 l 1
 110 0 l 1
 0 0 l 1
EndSplineSet
EndChar

StartChar: n
Encoding: 110 110 15
Width: 660
Flags: W
HStem: 0 21G<0 110 440 550> 440 110<110 440>
VStem: 0 110<0 440> 440 110<0 440>
LayerCount: 2
Fore
SplineSet
0 0 m 1
 0 550 l 1
 550 550 l 1
 550 0 l 1
 440 0 l 1
 440 440 l 1
 110 440 l 1
 110 0 l 1
 0 0 l 1
EndSplineSet
Validated: 1
EndChar

StartChar: Eacute
Encoding: 201 201 16
Width: 880
Flags: W
HStem: 0 110<110 770> 330 110<110 660> 660 110<110 770> 810 110<275 385> 920 110<385 495>
VStem: 0 110<110 330 440 660> 275 110<810 920> 385 110<920 1030>
LayerCount: 2
Fore
SplineSet
385 920 m 1xf6
 385 1030 l 1
 495 1030 l 1
 495 920 l 1xed
 385 920 l 1xf6
275 810 m 1xf6
 275 920 l 1
 385 920 l 1
 385 810 l 1
 275 810 l 1xf6
0 0 m 1
 0 770 l 1
 770 770 l 1
 770 660 l 1
 110 660 l 1
 110 440 l 1
 660 440 l 1
 660 330 l 1
 110 330 l 1
 110 110 l 1
 770 110 l 1
 770 0 l 1
 0 0 l 1
EndSplineSet
AlternateSubs2: "'salt' subtable - Accents" uniE048
EndChar

StartChar: E
Encoding: 69 69 17
Width: 880
Flags: W
HStem: 0 110<110 770> 330 110<110 660> 660 110<110 770>
VStem: 0 110<110 330 440 660>
CounterMasks: 1 e0
LayerCount: 2
Fore
SplineSet
0 0 m 1
 0 770 l 1
 770 770 l 1
 770 660 l 1
 110 660 l 1
 110 440 l 1
 660 440 l 1
 660 330 l 1
 110 330 l 1
 110 110 l 1
 770 110 l 1
 770 0 l 1
 0 0 l 1
EndSplineSet
Validated: 1
AlternateSubs2: "'salt' subtable - Letters" uniE004
EndChar

StartChar: p
Encoding: 112 112 18
Width: 660
VWidth: 1024
Flags: W
HStem: 0 110<110 440> 440 110<110 440>
VStem: 0 110<-220 0 110 440> 440 110<110 440>
LayerCount: 2
Fore
SplineSet
110 110 m 1
 440 110 l 1
 440 440 l 1
 110 440 l 1
 110 110 l 1
0 -220 m 1
 0 550 l 1
 550 550 l 1
 550 0 l 1
 110 0 l 1
 110 -220 l 1
 0 -220 l 1
EndSplineSet
Validated: 1
EndChar

StartChar: q
Encoding: 113 113 19
Width: 660
VWidth: 1024
Flags: W
HStem: 0 110<110 440> 440 110<110 440>
VStem: 0 110<110 440> 440 110<-220 0 110 440>
LayerCount: 2
Fore
SplineSet
110 110 m 1
 440 110 l 1
 440 440 l 1
 110 440 l 1
 110 110 l 1
0 0 m 1
 0 550 l 1
 550 550 l 1
 550 -220 l 1
 440 -220 l 1
 440 0 l 1
 0 0 l 1
EndSplineSet
Validated: 1
EndChar

StartChar: seven
Encoding: 55 55 20
Width: 880
Flags: W
HStem: 0 21G<660 770> 660 110<0 660>
VStem: 660 110<0 660>
LayerCount: 2
Fore
SplineSet
0 660 m 1
 0 770 l 1
 770 770 l 1
 770 0 l 1
 660 0 l 1
 660 660 l 1
 0 660 l 1
EndSplineSet
AlternateSubs2: "'salt' subtable - Numbers" uniE027
EndChar

StartChar: b
Encoding: 98 98 21
Width: 660
VWidth: 1024
Flags: W
HStem: 0 110<110 440> 440 110<110 440> 750 20G<0 110>
VStem: 0 110<110 440 550 770> 440 110<110 440>
LayerCount: 2
Fore
SplineSet
110 110 m 1
 440 110 l 1
 440 440 l 1
 110 440 l 1
 110 110 l 1
0 0 m 1
 0 770 l 1
 110 770 l 1
 110 550 l 1
 550 550 l 1
 550 0 l 1
 0 0 l 1
EndSplineSet
Validated: 1
EndChar

StartChar: d
Encoding: 100 100 22
Width: 660
VWidth: 1024
Flags: W
HStem: 0 110<110 440> 440 110<110 440> 750 20G<440 550>
VStem: 0 110<110 440> 440 110<110 440 550 770>
LayerCount: 2
Fore
SplineSet
110 110 m 1
 440 110 l 1
 440 440 l 1
 110 440 l 1
 110 110 l 1
0 0 m 1
 0 550 l 1
 440 550 l 1
 440 770 l 1
 550 770 l 1
 550 0 l 1
 0 0 l 1
EndSplineSet
Validated: 1
EndChar

StartChar: period
Encoding: 46 46 23
Width: 220
VWidth: 1024
Flags: W
HStem: 0 110<0 110>
VStem: 0 110<0 110>
LayerCount: 2
Fore
SplineSet
0 0 m 1
 0 110 l 1
 110 110 l 1
 110 0 l 1
 0 0 l 1
EndSplineSet
Validated: 1
EndChar

StartChar: slash
Encoding: 47 47 24
Width: 660
VWidth: 1024
Flags: W
HStem: 0 110<0 110> 110 110<110 220> 220 110<220 330> 330 110<330 440> 440 110<440 550>
VStem: 0 110<0 110> 110 110<110 220> 220 110<220 330> 330 110<330 440> 440 110<440 550>
LayerCount: 2
Fore
SplineSet
440 440 m 1x1080
 440 550 l 1
 550 550 l 1
 550 440 l 1x0840
 440 440 l 1x1080
330 330 m 1x21
 330 440 l 1
 440 440 l 1
 440 330 l 1x1080
 330 330 l 1x21
220 220 m 1x42
 220 330 l 1
 330 330 l 1
 330 220 l 1x21
 220 220 l 1x42
110 110 m 1x84
 110 220 l 1
 220 220 l 1
 220 110 l 1x42
 110 110 l 1x84
0 0 m 1x84
 0 110 l 1
 110 110 l 1
 110 0 l 1
 0 0 l 1x84
EndSplineSet
Validated: 5
EndChar

StartChar: backslash
Encoding: 92 92 25
Width: 660
VWidth: 1024
Flags: W
HStem: 0 110<440 550> 110 110<330 440> 220 110<220 330> 330 110<110 220> 440 110<0 110>
VStem: 0 110<440 550> 110 110<330 440> 220 110<220 330> 330 110<110 220> 440 110<0 110>
LayerCount: 2
Fore
SplineSet
0 440 m 1x0c
 0 550 l 1
 110 550 l 1x0c
 110 440 l 1x14
 0 440 l 1x0c
110 330 m 1x12
 110 440 l 1x14
 220 440 l 1x12
 220 330 l 1x22
 110 330 l 1x12
220 220 m 1x21
 220 330 l 1x22
 330 330 l 1x21
 330 220 l 1x41
 220 220 l 1x21
330 110 m 1x4080
 330 220 l 1x41
 440 220 l 1x4080
 440 110 l 1x8080
 330 110 l 1x4080
440 0 m 1x8040
 440 110 l 1x8080
 550 110 l 1
 550 0 l 1
 440 0 l 1x8040
EndSplineSet
Validated: 5
EndChar

StartChar: two
Encoding: 50 50 26
Width: 880
VWidth: 1024
Flags: W
HStem: 0 110<110 770> 330 110<110 660> 660 110<0 660>
VStem: 0 110<110 330> 660 110<440 660>
CounterMasks: 1 e0
LayerCount: 2
Fore
SplineSet
0 0 m 1
 0 440 l 1
 660 440 l 1
 660 660 l 1
 0 660 l 1
 0 770 l 1
 770 770 l 1
 770 330 l 1
 110 330 l 1
 110 110 l 1
 770 110 l 1
 770 -0 l 1
 0 0 l 1
EndSplineSet
Validated: 1
AlternateSubs2: "'salt' subtable - Numbers" uniE022
EndChar

StartChar: five
Encoding: 53 53 27
Width: 880
Flags: W
HStem: 0 110<0 660> 330 110<110 660> 660 110<110 770>
VStem: 0 110<440 660> 660 110<110 330>
CounterMasks: 1 e0
LayerCount: 2
Fore
SplineSet
0 0 m 1
 0 110 l 1
 660 110 l 1
 660 330 l 1
 0 330 l 1
 0 770 l 1
 770 770 l 1
 770 660 l 1
 110 660 l 1
 110 440 l 1
 770 440 l 1
 770 0 l 1
 0 0 l 1
EndSplineSet
AlternateSubs2: "'salt' subtable - Numbers" uniE025
EndChar

StartChar: S
Encoding: 83 83 28
Width: 880
Flags: W
HStem: 0 110<0 660> 330 110<110 660> 660 110<110 770>
VStem: 0 110<440 660> 660 110<110 330>
CounterMasks: 1 e0
LayerCount: 2
Fore
SplineSet
0 0 m 1
 0 110 l 1
 660 110 l 1
 660 330 l 1
 0 330 l 1
 0 770 l 1
 770 770 l 1
 770 660 l 1
 110 660 l 1
 110 440 l 1
 770 440 l 1
 770 0 l 1
 0 0 l 1
EndSplineSet
Validated: 1
AlternateSubs2: "'salt' subtable - Letters" uniE012
EndChar

StartChar: colon
Encoding: 58 58 29
Width: 220
VWidth: 1024
Flags: W
HStem: 0 110<0 110> 330 110<0 110>
VStem: 0 110<0 110 330 440>
LayerCount: 2
Fore
SplineSet
0 330 m 1
 0 440 l 1
 110 440 l 1
 110 330 l 1
 0 330 l 1
0 0 m 1
 0 110 l 1
 110 110 l 1
 110 0 l 1
 0 0 l 1
EndSplineSet
Validated: 1
EndChar

StartChar: semicolon
Encoding: 59 59 30
Width: 220
VWidth: 1024
Flags: W
HStem: 330 110<0 110>
VStem: 0 110<-110 110 330 440>
LayerCount: 2
Fore
SplineSet
0 -110 m 1
 0 110 l 1
 110 110 l 1
 110 -110 l 1
 0 -110 l 1
0 330 m 1
 0 440 l 1
 110 440 l 1
 110 330 l 1
 0 330 l 1
EndSplineSet
Validated: 1
EndChar

StartChar: comma
Encoding: 44 44 31
Width: 220
VWidth: 1024
Flags: W
HStem: -110 220<0 110>
VStem: 0 110<-110 110>
LayerCount: 2
Fore
SplineSet
0 -110 m 1
 0 110 l 1
 110 110 l 1
 110 -110 l 1
 0 -110 l 1
EndSplineSet
Validated: 1
EndChar

StartChar: I
Encoding: 73 73 32
Width: 220
VWidth: 1024
Flags: W
HStem: 0 21G<0 110> 0 21G<0 110> 750 20G<0 110>
VStem: 0 110<0 770>
LayerCount: 2
Fore
SplineSet
0 0 m 1xb0
 -0 770 l 1
 110 770 l 1
 110 0 l 1
 0 0 l 1xb0
EndSplineSet
Validated: 1
AlternateSubs2: "'salt' subtable - Letters" uniE008
EndChar

StartChar: l
Encoding: 108 108 33
Width: 220
VWidth: 1024
Flags: W
HStem: 0 21G<0 110> 0 21G<0 110> 750 20G<0 110>
VStem: 0 110<0 770>
LayerCount: 2
Fore
SplineSet
0 0 m 1xb0
 -0 770 l 1
 110 770 l 1
 110 0 l 1
 0 0 l 1xb0
EndSplineSet
Validated: 1
EndChar

StartChar: P
Encoding: 80 80 34
Width: 880
VWidth: 1024
Flags: W
HStem: 0 21G<0 110> 330 110<110 660> 660 110<110 660>
VStem: 0 110<0 330 440 660> 660 110<440 660>
LayerCount: 2
Fore
SplineSet
110 440 m 1
 660 440 l 1
 660 660 l 1
 110 660 l 1
 110 440 l 1
0 0 m 1
 0 770 l 1
 770 770 l 1
 770 330 l 1
 110 330 l 1
 110 0 l 1
 0 0 l 1
EndSplineSet
Validated: 1
AlternateSubs2: "'salt' subtable - Letters" uniE00F
EndChar

StartChar: W
Encoding: 87 87 35
Width: 880
Flags: W
HStem: 0 110<110 330 440 660> 750 20G<0 110 660 770>
VStem: 0 110<110 770> 330 110<110 660> 660 110<110 770>
CounterMasks: 1 38
LayerCount: 2
Fore
SplineSet
0 0 m 1
 0 770 l 1
 110 770 l 1
 110 110 l 1
 330 110 l 1
 330 660 l 1
 440 660 l 1
 440 110 l 1
 660 110 l 1
 660 770 l 1
 770 770 l 1
 770 0 l 1
 0 0 l 1
EndSplineSet
AlternateSubs2: "'salt' subtable - Letters" uniE016
EndChar

StartChar: M
Encoding: 77 77 36
Width: 880
Flags: W
HStem: 0 21G<0 110 330 440 660 770> 660 110<110 330 440 660>
VStem: 0 110<0 660> 330 110<0 660> 660 110<0 660>
CounterMasks: 1 38
LayerCount: 2
Fore
SplineSet
0 0 m 1
 0 770 l 1
 770 770 l 1
 770 0 l 1
 660 0 l 1
 660 660 l 1
 440 660 l 1
 440 0 l 1
 330 0 l 1
 330 660 l 1
 110 660 l 1
 110 0 l 1
 0 0 l 1
EndSplineSet
Validated: 1
AlternateSubs2: "'salt' subtable - Letters" uniE00C
EndChar

StartChar: three
Encoding: 51 51 37
Width: 880
Flags: W
HStem: 0 110<0 660> 330 110<110 660> 660 110<0 660>
VStem: 660 110<110 330 440 660>
CounterMasks: 1 e0
LayerCount: 2
Fore
SplineSet
0 0 m 1
 0 110 l 1
 660 110 l 1
 660 330 l 1
 110 330 l 1
 110 440 l 1
 660 440 l 1
 660 660 l 1
 0 660 l 1
 0 770 l 1
 770 770 l 1
 770 0 l 1
 0 0 l 1
EndSplineSet
Validated: 1
AlternateSubs2: "'salt' subtable - Numbers" uniE023
EndChar

StartChar: exclam
Encoding: 33 33 38
Width: 220
Flags: W
HStem: 0 110<0 110> 750 20G<0 110>
VStem: 0 110<0 110 220 770>
LayerCount: 2
Fore
SplineSet
0 0 m 1
 0 110 l 1
 110 110 l 1
 110 0 l 1
 0 0 l 1
0 220 m 1
 0 770 l 1
 110 770 l 1
 110 220 l 1
 0 220 l 1
EndSplineSet
Validated: 1
AlternateSubs2: "'salt' subtable - Various" uniE060
EndChar

StartChar: k
Encoding: 107 107 39
Width: 660
Flags: W
HStem: 0 110<440 550> 110 110<330 440> 330 110<330 440> 440 110<440 550> 750 20G<0 110>
VStem: 0 110<0 220 330 770> 330 110<110 220 330 440> 440 110<0 110 440 550>
LayerCount: 2
Fore
SplineSet
440 440 m 1x2e
 440 550 l 1
 550 550 l 1
 550 440 l 1x1d
 440 440 l 1x2e
330 330 m 1x2e
 330 440 l 1
 440 440 l 1
 440 330 l 1
 330 330 l 1x2e
330 110 m 1x4e
 330 220 l 1
 440 220 l 1x4e
 440 110 l 1x8e
 330 110 l 1x4e
440 0 m 1x8d
 440 110 l 1x8e
 550 110 l 1
 550 0 l 1
 440 0 l 1x8d
0 0 m 1
 0 770 l 1
 110 770 l 1
 110 330 l 1
 330 330 l 1
 330 220 l 1
 110 220 l 1x6e
 110 0 l 1
 0 0 l 1
EndSplineSet
EndChar

StartChar: H
Encoding: 72 72 40
Width: 880
Flags: W
HStem: 0 21G<0 110 660 770> 330 110<110 660> 750 20G<0 110 660 770>
VStem: 0 110<0 330 440 770> 660 110<0 330 440 770>
LayerCount: 2
Fore
SplineSet
0 0 m 1
 0 770 l 1
 110 770 l 1
 110 440 l 1
 660 440 l 1
 660 770 l 1
 770 770 l 1
 770 0 l 1
 660 0 l 1
 660 330 l 1
 110 330 l 1
 110 0 l 1
 0 0 l 1
EndSplineSet
AlternateSubs2: "'salt' subtable - Letters" uniE007
EndChar

StartChar: F
Encoding: 70 70 41
Width: 880
VWidth: 1024
Flags: W
HStem: 0 21G<0 110> 330 110<110 660> 660 110<110 770>
VStem: 0 110<0 330 440 660>
LayerCount: 2
Fore
SplineSet
0 0 m 1
 0 770 l 1
 770 770 l 1
 770 660 l 1
 110 660 l 1
 110 440 l 1
 660 440 l 1
 660 330 l 1
 110 330 l 1
 110 0 l 1
 0 0 l 1
EndSplineSet
AlternateSubs2: "'salt' subtable - Letters" uniE005
EndChar

StartChar: f
Encoding: 102 102 42
Width: 550
VWidth: 1024
Flags: W
HStem: 0 110<110 440> 440 110<110 440>
VStem: 0 110<-220 0 110 440>
LayerCount: 2
Fore
SplineSet
0 -220 m 1
 0 550 l 1
 440 550 l 1
 440 440 l 1
 110 440 l 1
 110 110 l 1
 440 110 l 1
 440 0 l 1
 110 0 l 1
 110 -220 l 1
 0 -220 l 1
EndSplineSet
AlternateSubs2: "'salt' subtable" uniE081
EndChar

StartChar: oslash
Encoding: 248 248 43
Width: 660
VWidth: 1024
Flags: W
HStem: 0 110<220 440> 220 110<220 330> 440 110<110 330>
VStem: 0 110<220 440> 220 110<220 330> 440 110<110 330>
CounterMasks: 1 fc
LayerCount: 2
Fore
SplineSet
220 220 m 1
 220 330 l 1
 330 330 l 1
 330 220 l 1
 220 220 l 1
0 0 m 1
 0 550 l 1
 550 550 l 1
 550 0 l 1
 0 0 l 1
110 220 m 1
 220 220 l 1
 220 110 l 1
 440 110 l 1
 440 330 l 1
 330 330 l 1
 330 440 l 1
 110 440 l 1
 110 220 l 1
EndSplineSet
EndChar

StartChar: hyphen
Encoding: 45 45 44
Width: 660
VWidth: 1024
Flags: W
HStem: 330 110<0 550>
LayerCount: 2
Fore
SplineSet
0 330 m 1
 0 440 l 1
 550 440 l 1
 550 330 l 1
 0 330 l 1
EndSplineSet
Validated: 1
AlternateSubs2: "'salt' subtable - Various" uniE067
EndChar

StartChar: uni00AD
Encoding: 173 173 45
Width: 660
VWidth: 1024
Flags: W
HStem: 330 110<0 550>
LayerCount: 2
Fore
SplineSet
0 330 m 1
 0 440 l 1
 550 440 l 1
 550 330 l 1
 0 330 l 1
EndSplineSet
EndChar

StartChar: underscore
Encoding: 95 95 46
Width: 660
VWidth: 1024
Flags: W
HStem: 0 110<0 550>
LayerCount: 2
Fore
SplineSet
0 0 m 1
 0 110 l 1
 550 110 l 1
 550 0 l 1
 0 0 l 1
EndSplineSet
EndChar

StartChar: m
Encoding: 109 109 47
Width: 660
Flags: W
HStem: 0 21G<0 110 220 330 440 550> 440 110<110 220 330 440>
VStem: 0 110<0 440> 220 110<0 440> 440 110<0 440>
CounterMasks: 1 38
LayerCount: 2
Fore
SplineSet
0 0 m 1
 0 550 l 1
 550 550 l 1
 550 0 l 1
 440 0 l 1
 440 440 l 1
 330 440 l 1
 330 0 l 1
 220 0 l 1
 220 440 l 1
 110 440 l 1
 110 0 l 1
 0 0 l 1
EndSplineSet
Validated: 1
EndChar

StartChar: t
Encoding: 116 116 48
Width: 550
VWidth: 1024
Flags: W
HStem: 0 110<110 440> 440 110<110 440> 750 20G<0 110>
VStem: 0 110<110 440 550 770>
LayerCount: 2
Fore
SplineSet
0 0 m 1
 0 770 l 1
 110 770 l 1
 110 550 l 1
 440 550 l 1
 440 440 l 1
 110 440 l 1
 110 110 l 1
 440 110 l 1
 440 0 l 1
 0 0 l 1
EndSplineSet
EndChar

StartChar: u
Encoding: 117 117 49
Width: 660
Flags: W
HStem: 0 110<110 440> 530 20G<0 110 440 550>
VStem: 0 110<110 550> 440 110<110 550>
LayerCount: 2
Fore
SplineSet
0 0 m 1
 0 550 l 1
 110 550 l 1
 110 110 l 1
 440 110 l 1
 440 550 l 1
 550 550 l 1
 550 0 l 1
 0 0 l 1
EndSplineSet
Validated: 1
EndChar

StartChar: w
Encoding: 119 119 50
Width: 660
Flags: W
HStem: 0 110<110 220 330 440> 530 20G<0 110 440 550>
VStem: 0 110<110 550> 220 110<110 440> 440 110<110 550>
CounterMasks: 1 38
LayerCount: 2
Fore
SplineSet
0 0 m 1
 0 550 l 1
 110 550 l 1
 110 110 l 1
 220 110 l 1
 220 440 l 1
 330 440 l 1
 330 110 l 1
 440 110 l 1
 440 550 l 1
 550 550 l 1
 550 0 l 1
 0 0 l 1
EndSplineSet
EndChar

StartChar: T
Encoding: 84 84 51
Width: 880
VWidth: 1024
Flags: W
HStem: 0 21G<330 440> 660 110<0 330 440 770>
VStem: 330 110<0 660>
LayerCount: 2
Fore
SplineSet
0 660 m 1
 0 770 l 1
 770 770 l 1
 770 660 l 1
 440 660 l 1
 440 0 l 1
 330 0 l 1
 330 660 l 1
 0 660 l 1
EndSplineSet
AlternateSubs2: "'salt' subtable - Letters" uniE013
EndChar

StartChar: g
Encoding: 103 103 52
Width: 660
VWidth: 1024
Flags: W
HStem: -220 110<0 440> 0 110<110 440> 440 110<110 440>
VStem: 0 110<110 440> 440 110<-110 0 110 440>
LayerCount: 2
Fore
SplineSet
110 110 m 1
 440 110 l 1
 440 440 l 1
 110 440 l 1
 110 110 l 1
0 0 m 1
 0 550 l 1
 550 550 l 1
 550 -220 l 1
 0 -220 l 1
 0 -110 l 1
 440 -110 l 1
 440 0 l 1
 0 0 l 1
EndSplineSet
EndChar

StartChar: h
Encoding: 104 104 53
Width: 660
VWidth: 1024
Flags: W
HStem: 0 21G<0 110 440 550> 440 110<110 440> 750 20G<0 110>
VStem: 0 110<0 440 550 770> 440 110<0 440>
LayerCount: 2
Fore
SplineSet
0 0 m 1
 0 770 l 1
 110 770 l 1
 110 550 l 1
 550 550 l 1
 550 0 l 1
 440 0 l 1
 440 440 l 1
 110 440 l 1
 110 0 l 1
 0 0 l 1
EndSplineSet
EndChar

StartChar: i
Encoding: 105 105 54
Width: 220
VWidth: 1024
Flags: W
HStem: 0 21G<0 110> 0 21G<0 110> 530 20G<0 110> 660 110<0 110>
VStem: 0 110<0 550 660 770>
LayerCount: 2
Fore
SplineSet
-0 660 m 1x38
 -0 770 l 1
 110 770 l 1
 110 660 l 1
 -0 660 l 1x38
0 0 m 1xb8
 -0 550 l 1
 110 550 l 1
 110 0 l 1
 0 0 l 1xb8
EndSplineSet
Validated: 1
EndChar

StartChar: j
Encoding: 106 106 55
Width: 220
VWidth: 1024
Flags: W
HStem: 530 20G<0 110> 660 110<0 110>
VStem: -0 110<-220 550 660 770>
LayerCount: 2
Fore
SplineSet
-0 660 m 1
 -0 770 l 1
 110 770 l 1
 110 660 l 1
 -0 660 l 1
-0 -220 m 1
 -0 550 l 1
 110 550 l 1
 110 -220 l 1
 -0 -220 l 1
EndSplineSet
EndChar

StartChar: six
Encoding: 54 54 56
Width: 880
Flags: W
HStem: 0 110<110 660> 330 110<110 660> 660 110<110 770>
VStem: 0 110<110 330 440 660> 660 110<110 330>
CounterMasks: 1 e0
LayerCount: 2
Fore
SplineSet
0 0 m 1
 0 770 l 1
 770 770 l 1
 770 660 l 1
 110 660 l 1
 110 440 l 1
 770 440 l 1
 770 0 l 1
 0 0 l 1
110 110 m 1
 660 110 l 1
 660 330 l 1
 110 330 l 1
 110 110 l 1
EndSplineSet
AlternateSubs2: "'salt' subtable - Numbers" uniE026
EndChar

StartChar: four
Encoding: 52 52 57
Width: 880
Flags: W
HStem: 0 21G<660 770> 330 110<110 660> 750 20G<0 110 660 770>
VStem: 0 110<440 770> 660 110<0 330 440 770>
LayerCount: 2
Fore
SplineSet
0 330 m 1
 0 770 l 1
 110 770 l 1
 110 440 l 1
 660 440 l 1
 660 770 l 1
 770 770 l 1
 770 0 l 1
 660 0 l 1
 660 330 l 1
 0 330 l 1
EndSplineSet
Validated: 1
AlternateSubs2: "'salt' subtable - Numbers" uniE024
EndChar

StartChar: nine
Encoding: 57 57 58
Width: 880
Flags: W
HStem: 0 110<0 660> 330 110<110 660> 660 110<110 660>
VStem: 0 110<440 660> 660 110<110 330 440 660>
CounterMasks: 1 e0
LayerCount: 2
Fore
SplineSet
0 0 m 1
 0 110 l 1
 660 110 l 1
 660 330 l 1
 0 330 l 1
 0 770 l 1
 770 770 l 1
 770 0 l 1
 0 0 l 1
110 440 m 1
 660 440 l 1
 660 660 l 1
 110 660 l 1
 110 440 l 1
EndSplineSet
AlternateSubs2: "'salt' subtable - Numbers" uniE029
EndChar

StartChar: eight
Encoding: 56 56 59
Width: 880
Flags: W
HStem: 0 110<110 660> 330 110<110 660> 660 110<110 660>
VStem: 0 110<110 330 440 660> 660 110<110 330 440 660>
CounterMasks: 1 e0
LayerCount: 2
Fore
SplineSet
0 0 m 1
 0 770 l 1
 770 770 l 1
 770 0 l 1
 0 0 l 1
110 440 m 1
 660 440 l 1
 660 660 l 1
 110 660 l 1
 110 440 l 1
110 110 m 1
 660 110 l 1
 660 330 l 1
 110 330 l 1
 110 110 l 1
EndSplineSet
AlternateSubs2: "'salt' subtable - Numbers" uniE028
EndChar

StartChar: AE
Encoding: 198 198 60
Width: 1100
VWidth: 1024
Flags: W
HStem: 0 110<550 990> 330 110<110 440 550 880> 660 110<110 440 550 990>
VStem: 0 110<0 330 440 660> 440 110<110 330 440 660>
CounterMasks: 1 e0
LayerCount: 2
Fore
SplineSet
0 0 m 1
 0 770 l 1
 990 770 l 1
 990 660 l 1
 550 660 l 1
 550 440 l 1
 880 440 l 1
 880 330 l 1
 550 330 l 1
 550 110 l 1
 990 110 l 1
 990 0 l 1
 440 0 l 1
 440 330 l 1
 110 330 l 1
 110 0 l 1
 0 0 l 1
110 440 m 1
 440 440 l 1
 440 660 l 1
 110 660 l 1
 110 440 l 1
EndSplineSet
EndChar

StartChar: one
Encoding: 49 49 61
Width: 440
VWidth: 1024
Flags: W
HStem: 0 21G<220 330> 660 110<0 220>
VStem: 220 110<0 660>
LayerCount: 2
Fore
SplineSet
0 660 m 1
 0 770 l 1
 330 770 l 1
 330 -0 l 1
 220 0 l 1
 220 660 l 1
 0 660 l 1
EndSplineSet
Validated: 1
AlternateSubs2: "'salt' subtable - Numbers" uniE021
EndChar

StartChar: N
Encoding: 78 78 62
Width: 880
VWidth: 1024
Flags: W
HStem: 0 21G<0 110 660 770> 220 110<440 550> 330 110<330 440> 440 110<220 330> 750 20G<0 110 660 770>
VStem: 0 110<0 550 660 770> 220 110<440 550> 330 110<330 440> 440 110<220 330> 660 110<0 110 220 770>
LayerCount: 2
Fore
SplineSet
220 440 m 1x9e40
 220 550 l 1
 330 550 l 1x9e40
 330 440 l 1xae40
 220 440 l 1x9e40
330 330 m 1xad40
 330 440 l 1xae40
 440 440 l 1xad40
 440 330 l 1xcd40
 330 330 l 1xad40
440 220 m 1xccc0
 440 330 l 1xcd40
 550 330 l 1
 550 220 l 1
 440 220 l 1xccc0
550 110 m 1xccc0
 550 220 l 1
 660 220 l 1
 660 770 l 1
 770 770 l 1
 770 0 l 1
 660 0 l 1
 660 110 l 1
 550 110 l 1xccc0
0 0 m 1
 0 770 l 1
 110 770 l 1
 110 660 l 1
 220 660 l 1
 220 550 l 1
 110 550 l 1x9e40
 110 0 l 1
 0 0 l 1
EndSplineSet
AlternateSubs2: "'salt' subtable - Letters" uniE00D
EndChar

StartChar: Z
Encoding: 90 90 63
Width: 880
VWidth: 1024
Flags: MW
HStem: 0 110<0 110 220 770> 220 110<220 330> 330 110<330 440> 440 110<440 550> 660 110<0 550 660 770>
VStem: 220 110<220 330> 330 110<330 440> 440 110<440 550>
LayerCount: 2
Fore
SplineSet
440 440 m 1xaa
 440 550 l 1
 550 550 l 1
 550 440 l 1x99
 440 440 l 1xaa
330 330 m 1xcc
 330 440 l 1
 440 440 l 1
 440 330 l 1xaa
 330 330 l 1xcc
220 220 m 1xcc
 220 330 l 1
 330 330 l 1
 330 220 l 1
 220 220 l 1xcc
0 0 m 1
 0 110 l 1
 110 110 l 1
 110 220 l 1
 220 220 l 1
 220 110 l 1
 770 110 l 1
 770 0 l 1
 0 0 l 1
0 660 m 1
 0 770 l 1
 770 770 l 1
 770 660 l 1
 660 660 l 1
 660 550 l 1
 550 550 l 1
 550 660 l 1x99
 0 660 l 1
EndSplineSet
AlternateSubs2: "'salt' subtable - Letters" uniE019
EndChar

StartChar: parenleft
Encoding: 40 40 64
Width: 330
VWidth: 1024
Flags: W
HStem: -110 110<110 220> 0 21G<0 110> 660 110<110 220>
VStem: 0 110<0 660> 110 110<-110 0 660 770>
LayerCount: 2
Fore
SplineSet
110 660 m 1x30
 110 770 l 1
 220 770 l 1
 220 660 l 1x28
 110 660 l 1x30
110 -110 m 1xa8
 110 0 l 1xb0
 220 0 l 1
 220 -110 l 1
 110 -110 l 1xa8
0 0 m 1x70
 -0 660 l 1
 110 660 l 1
 110 0 l 1xb0
 0 0 l 1x70
EndSplineSet
AlternateSubs2: "'salt' subtable - Various" uniE063
EndChar

StartChar: parenright
Encoding: 41 41 65
Width: 330
VWidth: 1024
Flags: W
HStem: -110 110<0 110> 0 21G<110 220> 660 110<0 110>
VStem: 0 110<-110 0 660 770> 110 110<0 660>
LayerCount: 2
Fore
SplineSet
110 0 m 1xb0
 110 660 l 1xb0
 220 660 l 1
 220 0 l 1x68
 110 0 l 1xb0
0 660 m 1
 0 770 l 1
 110 770 l 1
 110 660 l 1
 0 660 l 1
0 -110 m 1
 0 0 l 1
 110 0 l 1
 110 -110 l 1
 0 -110 l 1
EndSplineSet
AlternateSubs2: "'salt' subtable - Various" uniE064
EndChar

StartChar: percent
Encoding: 37 37 66
Width: 660
VWidth: 1024
Flags: W
HStem: 0 110<0 110> 110 110<110 220> 220 110<220 330> 330 110<330 440> 440 110<440 550>
VStem: 0 110<0 110 330 550> 110 110<110 220> 220 110<220 330> 330 110<330 440> 440 110<0 220 440 550>
LayerCount: 2
Fore
SplineSet
440 0 m 1xa040
 440 220 l 1
 550 220 l 1
 550 0 l 1
 440 0 l 1xa040
0 330 m 1x14
 0 550 l 1
 110 550 l 1x0c
 110 330 l 1
 0 330 l 1x14
440 440 m 1x1080
 440 550 l 1
 550 550 l 1
 550 440 l 1x0840
 440 440 l 1x1080
330 330 m 1x21
 330 440 l 1
 440 440 l 1
 440 330 l 1x1080
 330 330 l 1x21
220 220 m 1x42
 220 330 l 1
 330 330 l 1
 330 220 l 1x21
 220 220 l 1x42
110 110 m 1x84
 110 220 l 1
 220 220 l 1
 220 110 l 1x42
 110 110 l 1x84
0 0 m 1x84
 0 110 l 1
 110 110 l 1
 110 0 l 1
 0 0 l 1x84
EndSplineSet
EndChar

StartChar: quotesingle
Encoding: 39 39 67
Width: 220
VWidth: 1024
Flags: W
HStem: 550 220<0 110>
VStem: 0 110<550 770>
LayerCount: 2
Fore
SplineSet
0 550 m 1
 0 770 l 1
 110 770 l 1
 110 550 l 1
 0 550 l 1
EndSplineSet
Validated: 1
AlternateSubs2: "'salt' subtable - Various" uniE062
EndChar

StartChar: quotedbl
Encoding: 34 34 68
Width: 440
VWidth: 1024
Flags: W
HStem: 550 220<0 110 220 330>
VStem: 0 110<550 770> 220 110<550 770>
LayerCount: 2
Fore
SplineSet
220 550 m 1
 220 770 l 1
 330 770 l 1
 330 550 l 1
 220 550 l 1
0 550 m 1
 0 770 l 1
 110 770 l 1
 110 550 l 1
 0 550 l 1
EndSplineSet
AlternateSubs2: "'salt' subtable - Various" uniE061
EndChar

StartChar: bar
Encoding: 124 124 69
Width: 220
VWidth: 1024
Flags: W
VStem: 0 110<-110 660>
LayerCount: 2
Fore
SplineSet
0 -110 m 1
 0 660 l 1
 110 660 l 1
 110 -110 l 1
 0 -110 l 1
EndSplineSet
EndChar

StartChar: less
Encoding: 60 60 70
Width: 440
VWidth: 1024
Flags: W
HStem: -0 110<220 330> 110 110<110 220> 220 110<0 110> 330 110<110 220> 440 110<220 330>
VStem: -0 110<220 330> 110 110<110 220 330 440> 220 110<0 110 440 550>
LayerCount: 2
Fore
SplineSet
110 110 m 1x42
 110 220 l 1x44
 220 220 l 1x42
 220 110 l 1x82
 110 110 l 1x42
220 440 m 1x12
 220 550 l 1
 330 550 l 1
 330 440 l 1x09
 220 440 l 1x12
110 330 m 1x24
 110 440 l 1
 220 440 l 1
 220 330 l 1x12
 110 330 l 1x24
-0 220 m 1x24
 -0 330 l 1
 110 330 l 1x24
 110 220 l 1x44
 -0 220 l 1x24
220 -0 m 1x81
 220 110 l 1x82
 330 110 l 1
 330 -0 l 1
 220 -0 l 1x81
EndSplineSet
Validated: 5
EndChar

StartChar: equal
Encoding: 61 61 71
Width: 660
VWidth: 1024
Flags: W
HStem: 110 110<0 550> 330 110<0 550>
LayerCount: 2
Fore
SplineSet
0 110 m 1
 0 220 l 1
 550 220 l 1
 550 110 l 1
 0 110 l 1
0 330 m 1
 0 440 l 1
 550 440 l 1
 550 330 l 1
 0 330 l 1
EndSplineSet
Validated: 1
AlternateSubs2: "'salt' subtable - Various" uniE068
EndChar

StartChar: greater
Encoding: 62 62 72
Width: 440
VWidth: 1024
Flags: W
HStem: 0 110<0 110> 110 110<110 220> 220 110<220 330> 330 110<110 220> 440 110<0 110>
VStem: 0 110<0 110 440 550> 110 110<110 220 330 440> 220 110<220 330>
LayerCount: 2
Fore
SplineSet
0 0 m 1x84
 0 110 l 1
 110 110 l 1
 110 0 l 1
 0 0 l 1x84
110 110 m 1
 110 220 l 1
 220 220 l 1
 220 110 l 1x42
 110 110 l 1
0 440 m 1x0c
 0 550 l 1
 110 550 l 1x0c
 110 440 l 1x14
 0 440 l 1x0c
110 330 m 1x12
 110 440 l 1x14
 220 440 l 1x12
 220 330 l 1x22
 110 330 l 1x12
220 220 m 1x42
 220 330 l 1x22
 330 330 l 1
 330 220 l 1x21
 220 220 l 1x42
EndSplineSet
EndChar

StartChar: ampersand
Encoding: 38 38 73
Width: 660
VWidth: 1024
Flags: W
HStem: 0 21G<220 330> 0 21G<220 330> 110 110<110 220 330 550> 330 110<110 220 330 440> 550 110<330 440>
VStem: 0 110<220 330> 220 110<0 110 220 330 440 550> 440 110<440 550>
CounterMasks: 1 07
LayerCount: 2
Fore
SplineSet
330 440 m 1x3f
 440 440 l 1
 440 550 l 1
 330 550 l 1
 330 440 l 1x3f
110 220 m 1
 220 220 l 1
 220 330 l 1
 110 330 l 1
 110 220 l 1
0 110 m 1
 0 440 l 1
 220 440 l 1
 220 660 l 1
 550 660 l 1
 550 330 l 1
 330 330 l 1
 330 220 l 1
 550 220 l 1
 550 110 l 1
 330 110 l 1
 330 0 l 1
 220 0 l 1xbf
 220 110 l 1
 0 110 l 1
EndSplineSet
Validated: 1
EndChar

StartChar: plus
Encoding: 43 43 74
Width: 660
VWidth: 1024
Flags: W
HStem: 330 110<0 220 330 550>
VStem: 220 110<110 330 440 660>
LayerCount: 2
Fore
SplineSet
0 330 m 1
 0 440 l 1
 220 440 l 1
 220 660 l 1
 330 660 l 1
 330 440 l 1
 550 440 l 1
 550 330 l 1
 330 330 l 1
 330 110 l 1
 220 110 l 1
 220 330 l 1
 0 330 l 1
EndSplineSet
AlternateSubs2: "'salt' subtable - Various" uniE066
EndChar

StartChar: numbersign
Encoding: 35 35 75
Width: 880
VWidth: 1024
Flags: W
HStem: 220 110<110 220 330 440 550 660> 440 110<110 220 330 440 550 660>
VStem: 220 110<110 220 330 440 550 660> 440 110<110 220 330 440 550 660>
LayerCount: 2
Fore
SplineSet
110 220 m 1
 110 330 l 1
 220 330 l 1
 220 440 l 1
 110 440 l 1
 110 550 l 1
 220 550 l 1
 220 660 l 1
 330 660 l 1
 330 550 l 1
 440 550 l 1
 440 660 l 1
 550 660 l 1
 550 550 l 1
 660 550 l 1
 660 440 l 1
 550 440 l 1
 550 330 l 1
 660 330 l 1
 660 220 l 1
 550 220 l 1
 550 110 l 1
 440 110 l 1
 440 220 l 1
 330 220 l 1
 330 110 l 1
 220 110 l 1
 220 220 l 1
 110 220 l 1
330 330 m 1
 440 330 l 1
 440 440 l 1
 330 440 l 1
 330 330 l 1
EndSplineSet
EndChar

StartChar: s
Encoding: 115 115 76
Width: 660
VWidth: 1024
Flags: W
HStem: 0 110<0 440> 220 110<110 440> 440 110<110 550>
VStem: 0 110<330 440> 440 110<110 220>
CounterMasks: 1 e0
LayerCount: 2
Fore
SplineSet
0 0 m 1
 0 110 l 1
 440 110 l 1
 440 220 l 1
 0 220 l 1
 0 550 l 1
 550 550 l 1
 550 440 l 1
 110 440 l 1
 110 330 l 1
 550 330 l 1
 550 0 l 1
 0 0 l 1
EndSplineSet
Validated: 1
EndChar

StartChar: x
Encoding: 120 120 77
Width: 660
VWidth: 1024
Flags: W
HStem: 0 110<0 110 440 550> 110 110<110 220 330 440> 220 110<220 330> 330 110<110 220 330 440> 440 110<0 110 440 550>
VStem: 0 110<0 110 440 550> 110 110<110 220 330 440> 220 110<220 330> 330 110<110 220 330 440> 440 110<0 110 440 550>
LayerCount: 2
Fore
SplineSet
440 0 m 1x8040
 440 110 l 1x8080
 550 110 l 1
 550 0 l 1
 440 0 l 1x8040
330 110 m 1x4080
 330 220 l 1x41
 440 220 l 1x4080
 440 110 l 1x8080
 330 110 l 1x4080
0 440 m 1x0c
 0 550 l 1
 110 550 l 1x0c
 110 440 l 1x14
 0 440 l 1x0c
110 330 m 1x12
 110 440 l 1x14
 220 440 l 1x12
 220 330 l 1x22
 110 330 l 1x12
440 440 m 1x1080
 440 550 l 1
 550 550 l 1
 550 440 l 1x0840
 440 440 l 1x1080
330 330 m 1x21
 330 440 l 1
 440 440 l 1
 440 330 l 1x1080
 330 330 l 1x21
220 220 m 1x42
 220 330 l 1x22
 330 330 l 1x21
 330 220 l 1x41
 220 220 l 1x42
110 110 m 1x84
 110 220 l 1
 220 220 l 1
 220 110 l 1x42
 110 110 l 1x84
0 0 m 1x84
 0 110 l 1
 110 110 l 1
 110 0 l 1
 0 0 l 1x84
EndSplineSet
Validated: 5
EndChar

StartChar: X
Encoding: 88 88 78
Width: 880
VWidth: 1024
Flags: W
HStem: 0 110<0 110 660 770> 110 110<110 220 550 660> 220 110<220 330 440 550> 330 110<330 440> 440 110<220 330 440 550> 550 110<110 220 550 660> 660 110<0 110 660 770>
VStem: 0 110<0 110 660 770> 110 110<110 220 550 660> 220 110<220 330 440 550> 330 110<330 440> 440 110<220 330 440 550> 550 110<110 220 550 660> 660 110<0 110 660 770>
LayerCount: 2
Fore
SplineSet
660 0 m 1x8004
 660 110 l 1x8008
 770 110 l 1
 770 0 l 1
 660 0 l 1x8004
660 660 m 1x0408
 660 770 l 1
 770 770 l 1
 770 660 l 1x0204
 660 660 l 1x0408
0 660 m 1x03
 0 770 l 1
 110 770 l 1x03
 110 660 l 1x05
 0 660 l 1x03
0 0 m 1x81
 0 110 l 1
 110 110 l 1
 110 0 l 1
 0 0 l 1x81
550 110 m 1x4008
 550 220 l 1x4010
 660 220 l 1x4008
 660 110 l 1x8008
 550 110 l 1x4008
440 220 m 1x2010
 440 330 l 1x2020
 550 330 l 1x2010
 550 220 l 1x4010
 440 220 l 1x2010
110 550 m 1x0480
 110 660 l 1x05
 220 660 l 1x0480
 220 550 l 1x0880
 110 550 l 1x0480
220 440 m 1x0840
 220 550 l 1x0880
 330 550 l 1x0840
 330 440 l 1x1040
 220 440 l 1x0840
550 550 m 1x0810
 550 660 l 1
 660 660 l 1
 660 550 l 1x0408
 550 550 l 1x0810
440 440 m 1x1020
 440 550 l 1
 550 550 l 1
 550 440 l 1x0810
 440 440 l 1x1020
330 330 m 1x2040
 330 440 l 1x1040
 440 440 l 1x1020
 440 330 l 1x2020
 330 330 l 1x2040
220 220 m 1x4080
 220 330 l 1
 330 330 l 1
 330 220 l 1x2040
 220 220 l 1x4080
110 110 m 1x81
 110 220 l 1
 220 220 l 1
 220 110 l 1x4080
 110 110 l 1x81
EndSplineSet
Validated: 5
AlternateSubs2: "'salt' subtable - Letters" uniE017
EndChar

StartChar: J
Encoding: 74 74 79
Width: 880
Flags: W
HStem: 0 110<110 660> 750 20G<660 770>
VStem: 0 110<110 330> 660 110<110 770>
LayerCount: 2
Fore
SplineSet
0 0 m 1
 0 330 l 1
 110 330 l 1
 110 110 l 1
 660 110 l 1
 660 770 l 1
 770 770 l 1
 770 0 l 1
 0 0 l 1
EndSplineSet
AlternateSubs2: "'salt' subtable - Letters" uniE009
EndChar

StartChar: multiply
Encoding: 215 215 80
Width: 660
VWidth: 1024
Flags: W
HStem: 0 110<0 110 440 550> 110 110<110 220 330 440> 220 110<220 330> 330 110<110 220 330 440> 440 110<0 110 440 550>
VStem: 0 110<0 110 440 550> 110 110<110 220 330 440> 220 110<220 330> 330 110<110 220 330 440> 440 110<0 110 440 550>
LayerCount: 2
Fore
SplineSet
440 0 m 1x8040
 440 110 l 1x8080
 550 110 l 1
 550 0 l 1
 440 0 l 1x8040
330 110 m 1x4080
 330 220 l 1x41
 440 220 l 1x4080
 440 110 l 1x8080
 330 110 l 1x4080
0 440 m 1x0c
 0 550 l 1
 110 550 l 1x0c
 110 440 l 1x14
 0 440 l 1x0c
110 330 m 1x12
 110 440 l 1x14
 220 440 l 1x12
 220 330 l 1x22
 110 330 l 1x12
440 440 m 1x1080
 440 550 l 1
 550 550 l 1
 550 440 l 1x0840
 440 440 l 1x1080
330 330 m 1x21
 330 440 l 1
 440 440 l 1
 440 330 l 1x1080
 330 330 l 1x21
220 220 m 1x42
 220 330 l 1x22
 330 330 l 1x21
 330 220 l 1x41
 220 220 l 1x42
110 110 m 1x84
 110 220 l 1
 220 220 l 1
 220 110 l 1x42
 110 110 l 1x84
0 0 m 1x84
 0 110 l 1
 110 110 l 1
 110 0 l 1
 0 0 l 1x84
EndSplineSet
Validated: 5
EndChar

StartChar: question
Encoding: 63 63 81
Width: 660
VWidth: 1024
Flags: W
HStem: 0 110<220 330> 220 110<220 440> 440 110<0 440>
VStem: 220 110<0 110> 440 110<330 440>
CounterMasks: 1 e0
LayerCount: 2
Fore
SplineSet
220 0 m 1
 220 110 l 1
 330 110 l 1
 330 0 l 1
 220 0 l 1
0 440 m 1
 0 550 l 1
 550 550 l 1
 550 220 l 1
 220 220 l 1
 220 330 l 1
 440 330 l 1
 440 440 l 1
 0 440 l 1
EndSplineSet
EndChar

StartChar: questiondown
Encoding: 191 191 82
Width: 660
VWidth: 1024
Flags: W
HStem: 0 110<110 550> 220 110<110 330> 440 110<220 330>
VStem: 0 110<110 220> 220 110<440 550>
CounterMasks: 1 e0
LayerCount: 2
Fore
SplineSet
220 440 m 1
 220 550 l 1
 330 550 l 1
 330 440 l 1
 220 440 l 1
0 0 m 1
 0 330 l 1
 330 330 l 1
 330 220 l 1
 110 220 l 1
 110 110 l 1
 550 110 l 1
 550 0 l 1
 0 0 l 1
EndSplineSet
AlternateSubs2: "'salt' subtable" uniE082
EndChar

StartChar: exclamdown
Encoding: 161 161 83
Width: 220
VWidth: 1024
Flags: W
HStem: 440 110<0 110>
VStem: 0 110<-220 330 440 550>
LayerCount: 2
Fore
SplineSet
0 440 m 1
 0 550 l 1
 110 550 l 1
 110 440 l 1
 0 440 l 1
0 -220 m 1
 0 330 l 1
 110 330 l 1
 110 -220 l 1
 0 -220 l 1
EndSplineSet
Validated: 1
EndChar

StartChar: guillemotleft
Encoding: 171 171 84
Width: 770
VWidth: 1024
Flags: W
HStem: -0 110<220 330 550 660> 110 110<110 220 440 550> 220 110<0 110 330 440> 330 110<110 220 440 550> 440 110<220 330 550 660>
VStem: -0 110<220 330> 110 110<110 220 330 440> 220 110<0 110 440 550> 330 110<220 330> 440 110<110 220 330 440> 550 110<0 110 440 550>
LayerCount: 2
Fore
SplineSet
440 110 m 1x4040
 440 220 l 1x4080
 550 220 l 1x4040
 550 110 l 1x8040
 440 110 l 1x4040
550 440 m 1x1040
 550 550 l 1
 660 550 l 1
 660 440 l 1x0820
 550 440 l 1x1040
440 330 m 1x2080
 440 440 l 1
 550 440 l 1
 550 330 l 1x1040
 440 330 l 1x2080
330 220 m 1x2080
 330 330 l 1
 440 330 l 1x2080
 440 220 l 1x4080
 330 220 l 1x2080
550 0 m 1x8020
 550 110 l 1x8040
 660 110 l 1
 660 0 l 1
 550 0 l 1x8020
110 110 m 1x42
 110 220 l 1x44
 220 220 l 1x42
 220 110 l 1x82
 110 110 l 1x42
220 440 m 1x12
 220 550 l 1
 330 550 l 1
 330 440 l 1x09
 220 440 l 1x12
110 330 m 1x24
 110 440 l 1
 220 440 l 1
 220 330 l 1x12
 110 330 l 1x24
-0 220 m 1x24
 -0 330 l 1
 110 330 l 1x24
 110 220 l 1x44
 -0 220 l 1x24
220 -0 m 1x81
 220 110 l 1x82
 330 110 l 1
 330 -0 l 1
 220 -0 l 1x81
EndSplineSet
EndChar

StartChar: guillemotright
Encoding: 187 187 85
Width: 770
VWidth: 1024
Flags: W
HStem: 0 110<0 110 330 440> 110 110<110 220 440 550> 220 110<220 330 550 660> 330 110<110 220 440 550> 440 110<0 110 330 440>
VStem: 0 110<0 110 440 550> 110 110<110 220 330 440> 220 110<220 330> 330 110<0 110 440 550> 440 110<110 220 330 440> 550 110<220 330>
LayerCount: 2
Fore
SplineSet
330 0 m 1x8080
 330 110 l 1
 440 110 l 1
 440 0 l 1
 330 0 l 1x8080
440 110 m 1
 440 220 l 1
 550 220 l 1
 550 110 l 1x4040
 440 110 l 1
330 440 m 1x0880
 330 550 l 1
 440 550 l 1x0880
 440 440 l 1x1080
 330 440 l 1x0880
440 330 m 1x1040
 440 440 l 1x1080
 550 440 l 1x1040
 550 330 l 1x2040
 440 330 l 1x1040
550 220 m 1x4040
 550 330 l 1x2040
 660 330 l 1
 660 220 l 1x2020
 550 220 l 1x4040
0 0 m 1x84
 0 110 l 1
 110 110 l 1
 110 0 l 1
 0 0 l 1x84
110 110 m 1
 110 220 l 1
 220 220 l 1
 220 110 l 1x42
 110 110 l 1
0 440 m 1x0c
 0 550 l 1
 110 550 l 1x0c
 110 440 l 1x14
 0 440 l 1x0c
110 330 m 1x12
 110 440 l 1x14
 220 440 l 1x12
 220 330 l 1x22
 110 330 l 1x12
220 220 m 1x42
 220 330 l 1x22
 330 330 l 1
 330 220 l 1x21
 220 220 l 1x42
EndSplineSet
EndChar

StartChar: acute
Encoding: 180 180 86
Width: 330
VWidth: 1024
Flags: W
HStem: 550 110<0 110> 660 110<110 220>
VStem: 0 110<550 660> 110 110<660 770>
LayerCount: 2
Fore
SplineSet
110 660 m 1xa0
 110 770 l 1
 220 770 l 1
 220 660 l 1x50
 110 660 l 1xa0
0 550 m 1xa0
 0 660 l 1
 110 660 l 1
 110 550 l 1
 0 550 l 1xa0
EndSplineSet
EndChar

StartChar: grave
Encoding: 96 96 87
Width: 330
VWidth: 1024
Flags: W
HStem: 550 110<110 220> 660 110<0 110>
VStem: 0 110<660 770> 110 110<550 660>
LayerCount: 2
Fore
SplineSet
110 550 m 1x90
 110 660 l 1xa0
 220 660 l 1
 220 550 l 1
 110 550 l 1x90
0 660 m 1x60
 0 770 l 1
 110 770 l 1x60
 110 660 l 1xa0
 0 660 l 1x60
EndSplineSet
EndChar

StartChar: ae
Encoding: 230 230 88
Width: 1100
VWidth: 1024
Flags: W
HStem: 0 110<110 440 550 990> 220 110<110 440 550 880> 440 110<0 440 550 880>
VStem: 0 110<110 220> 440 110<110 220 330 440> 880 110<330 440>
CounterMasks: 1 fc
LayerCount: 2
Fore
SplineSet
0 0 m 1
 0 330 l 1
 440 330 l 1
 440 440 l 1
 0 440 l 1
 -0 550 l 1
 990 550 l 1
 990 220 l 1
 550 220 l 1
 550 110 l 1
 990 110 l 1
 990 0 l 1
 0 0 l 1
110 110 m 1
 440 110 l 1
 440 220 l 1
 110 220 l 1
 110 110 l 1
550 330 m 1
 880 330 l 1
 880 440 l 1
 550 440 l 1
 550 330 l 1
EndSplineSet
EndChar

StartChar: OE
Encoding: 338 338 89
Width: 1100
Flags: W
HStem: 0 110<110 440 550 990> 330 110<550 880> 660 110<110 440 550 990>
VStem: 0 110<110 660> 440 110<110 330 440 660>
CounterMasks: 1 e0
LayerCount: 2
Fore
SplineSet
0 0 m 1
 0 770 l 1
 990 770 l 1
 990 660 l 1
 550 660 l 1
 550 440 l 1
 880 440 l 1
 880 330 l 1
 550 330 l 1
 550 110 l 1
 990 110 l 1
 990 0 l 1
 0 0 l 1
110 110 m 1
 440 110 l 1
 440 660 l 1
 110 660 l 1
 110 110 l 1
EndSplineSet
EndChar

StartChar: B
Encoding: 66 66 90
Width: 880
Flags: W
HStem: 0 110<110 660> 330 110<110 550> 660 110<110 550>
VStem: 0 110<110 330 440 660> 550 110<440 660> 660 110<110 330>
CounterMasks: 1 e0
LayerCount: 2
Fore
SplineSet
0 0 m 1xf4
 0 770 l 1
 660 770 l 1xf4
 660 440 l 9xf8
 770 440 l 17
 770 0 l 1
 0 0 l 1xf4
110 440 m 17
 550 440 l 1
 550 660 l 1xf8
 110 660 l 9
 110 440 l 17
110 110 m 1
 660 110 l 9
 660 330 l 17xf4
 110 330 l 1
 110 110 l 1
EndSplineSet
AlternateSubs2: "'salt' subtable - Letters" uniE001
EndChar

StartChar: G
Encoding: 71 71 91
Width: 880
Flags: W
HStem: 0 110<110 660> 330 110<440 660> 660 110<110 770>
VStem: 0 110<110 660> 660 110<110 330>
CounterMasks: 1 e0
LayerCount: 2
Fore
SplineSet
0 0 m 1
 0 770 l 1
 770 770 l 1
 770 660 l 9
 110 660 l 17
 110 110 l 1
 660 110 l 1
 660 330 l 1
 440 330 l 1
 440 440 l 1
 770 440 l 1
 770 0 l 1
 0 0 l 1
EndSplineSet
AlternateSubs2: "'salt' subtable - Letters" uniE006
EndChar

StartChar: R
Encoding: 82 82 92
Width: 880
Flags: W
HStem: 0 21G<0 110 660 770> 330 110<110 550> 660 110<110 550>
VStem: 0 110<0 330 440 660> 550 110<440 660> 660 110<0 330>
LayerCount: 2
Fore
SplineSet
0 0 m 1xf4
 0 770 l 1
 660 770 l 1xf4
 660 440 l 9xf8
 770 440 l 17
 770 0 l 1
 660 0 l 1
 660 330 l 1
 110 330 l 1
 110 0 l 1
 0 0 l 1xf4
110 440 m 17
 550 440 l 1
 550 660 l 1xf8
 110 660 l 9
 110 440 l 17
EndSplineSet
AlternateSubs2: "'salt' subtable - Letters" uniE011
EndChar

StartChar: dollar
Encoding: 36 36 93
Width: 660
VWidth: 1024
Flags: W
HStem: 0 110<0 220 330 440> 220 110<110 220 330 440> 440 110<110 220 330 550>
VStem: 0 110<330 440> 220 110<-110 0 110 220 330 440 550 660> 440 110<110 220>
CounterMasks: 1 fc
LayerCount: 2
Fore
SplineSet
0 0 m 1
 0 110 l 1
 220 110 l 1
 220 220 l 1
 0 220 l 1
 0 550 l 1
 220 550 l 1
 220 660 l 1
 330 660 l 1
 330 550 l 1
 550 550 l 1
 550 440 l 1
 330 440 l 1
 330 330 l 1
 550 330 l 1
 550 0 l 1
 330 0 l 1
 330 -110 l 1
 220 -110 l 1
 220 -0 l 1
 0 0 l 1
330 110 m 1
 440 110 l 1
 440 220 l 1
 330 220 l 1
 330 110 l 1
110 330 m 1
 220 330 l 1
 220 440 l 1
 110 440 l 1
 110 330 l 1
EndSplineSet
EndChar

StartChar: bracketleft
Encoding: 91 91 94
Width: 330
Flags: W
HStem: -110 110<110 220> 660 110<110 220>
VStem: 0 220<-110 0 660 770> 0 110<0 660>
LayerCount: 2
Fore
SplineSet
0 -110 m 1xe0
 0 770 l 1
 220 770 l 1
 220 660 l 1xe0
 110 660 l 1
 110 0 l 1xd0
 220 0 l 1
 220 -110 l 1
 0 -110 l 1xe0
EndSplineSet
AlternateSubs2: "'salt' subtable - Various" uniE06A
EndChar

StartChar: bracketright
Encoding: 93 93 95
Width: 330
Flags: W
HStem: -110 110<0 110> 660 110<0 110>
VStem: 0 220<-110 0 660 770> 110 110<0 660>
LayerCount: 2
Fore
SplineSet
0 -110 m 1xe0
 0 0 l 1xe0
 110 0 l 1
 110 660 l 1xd0
 0 660 l 1
 0 770 l 1
 220 770 l 1
 220 -110 l 1
 0 -110 l 1xe0
EndSplineSet
AlternateSubs2: "'salt' subtable - Various" uniE06B
EndChar

StartChar: asterisk
Encoding: 42 42 96
Width: 660
VWidth: 1024
Flags: W
HStem: 110 110<0 110 440 550> 220 110<110 220 330 440> 440 110<110 220 330 440> 550 110<0 110 440 550>
VStem: -0 110<110 220 550 660> 110 110<220 330 440 550> 220 110<110 660> 330 110<220 330 440 550> 440 110<110 220 550 660>
LayerCount: 2
Fore
SplineSet
440 110 m 1x8080
 440 220 l 1x81
 550 220 l 1
 550 110 l 1
 440 110 l 1x8080
330 220 m 1x42
 330 330 l 1x42
 440 330 l 1x41
 440 220 l 1x81
 330 220 l 1x42
440 550 m 1x21
 440 660 l 1
 550 660 l 1
 550 550 l 1x1080
 440 550 l 1x21
330 440 m 1x22
 330 550 l 1x22
 440 550 l 1
 440 440 l 1x21
 330 440 l 1x22
110 440 m 1x24
 110 550 l 1x28
 220 550 l 1
 220 440 l 1
 110 440 l 1x24
-0 550 m 1x18
 -0 660 l 1
 110 660 l 1x18
 110 550 l 1x28
 -0 550 l 1x18
110 220 m 1x88
 110 330 l 1
 220 330 l 1
 220 220 l 1x44
 110 220 l 1x88
-0 110 m 1x88
 -0 220 l 1
 110 220 l 1
 110 110 l 1
 -0 110 l 1x88
220 110 m 1x92
 220 660 l 1
 330 660 l 1
 330 110 l 1
 220 110 l 1x92
EndSplineSet
Validated: 5
AlternateSubs2: "'salt' subtable - Various" uniE065
EndChar

StartChar: at
Encoding: 64 64 97
Width: 880
Flags: W
HStem: 0 110<110 770> 220 110<330 660> 440 110<330 660> 660 110<110 660>
VStem: 0 110<110 660> 220 110<330 440> 660 110<330 440 550 660>
LayerCount: 2
Fore
SplineSet
0 0 m 1
 0 770 l 1
 770 770 l 1
 770 220 l 1
 220 220 l 1
 220 550 l 1
 660 550 l 1
 660 660 l 1
 110 660 l 1
 110 110 l 1
 770 110 l 1
 770 0 l 1
 0 0 l 1
330 330 m 1
 660 330 l 1
 660 440 l 1
 330 440 l 1
 330 330 l 1
EndSplineSet
Validated: 1
AlternateSubs2: "'salt' subtable - Various" uniE069
EndChar

StartChar: D
Encoding: 68 68 98
Width: 880
VWidth: 1024
Flags: W
HStem: 0 110<110 660> 660 110<110 660>
VStem: 0 110<110 660> 660 110<110 660>
LayerCount: 2
Fore
SplineSet
660 110 m 1
 660 660 l 1
 770 660 l 1
 770 110 l 1
 660 110 l 1
0 0 m 1
 0 770 l 1
 660 770 l 1
 660 660 l 1
 110 660 l 1
 110 110 l 1
 660 110 l 1
 660 0 l 1
 0 0 l 1
EndSplineSet
AlternateSubs2: "'salt' subtable - Letters" uniE003
EndChar

StartChar: K
Encoding: 75 75 99
Width: 880
Flags: MW
HStem: 0 110<660 770> 110 110<550 660> 220 110<440 550> 440 110<440 550> 750 20G<0 110 550 660>
VStem: 0 110<0 330 440 770> 440 110<220 330 440 550> 550 110<110 220 550 770> 660 110<0 110>
LayerCount: 2
Fore
SplineSet
440 220 m 1x3e
 440 330 l 1
 550 330 l 1x3e
 550 220 l 1x5e
 440 220 l 1x3e
550 550 m 1
 550 770 l 1
 660 770 l 1
 660 550 l 1x1d
 550 550 l 1
440 440 m 1x1e
 440 550 l 1
 550 550 l 1
 550 440 l 1
 440 440 l 1x1e
550 110 m 1x5d
 550 220 l 1x5e
 660 220 l 1x5d
 660 110 l 1x9d
 550 110 l 1x5d
660 0 m 1x9c80
 660 110 l 1x9d
 770 110 l 1
 770 0 l 1
 660 0 l 1x9c80
0 0 m 1
 0 770 l 1
 110 770 l 1
 110 440 l 1
 440 440 l 1
 440 330 l 1
 110 330 l 1xbe
 110 0 l 1
 0 0 l 1
EndSplineSet
AlternateSubs2: "'salt' subtable - Letters" uniE00A
EndChar

StartChar: oe
Encoding: 339 339 100
Width: 1100
VWidth: 1024
Flags: W
HStem: 0 110<110 440 550 990> 220 110<550 880> 440 110<110 440 550 880>
VStem: -0 110<110 440> 440 110<110 220 330 440> 880 110<330 440>
CounterMasks: 1 fc
LayerCount: 2
Fore
SplineSet
-0 0 m 1
 -0 550 l 1
 990 550 l 1
 990 220 l 1
 550 220 l 1
 550 110 l 1
 990 110 l 1
 990 0 l 1
 -0 0 l 1
110 110 m 1
 440 110 l 1
 440 440 l 1
 110 440 l 1
 110 110 l 1
550 330 m 1
 880 330 l 1
 880 440 l 1
 550 440 l 1
 550 330 l 1
EndSplineSet
EndChar

StartChar: V
Encoding: 86 86 101
Width: 880
VWidth: 1024
Flags: W
HStem: 0 110<330 440> 110 110<220 330 440 550> 220 110<110 220 550 660> 750 20G<0 110 660 770>
VStem: 0 110<330 770> 110 110<220 330> 220 110<110 220> 330 110<0 110> 440 110<110 220> 550 110<220 330> 660 110<330 770>
LayerCount: 2
Fore
SplineSet
550 220 m 1x5080
 550 330 l 1
 660 330 l 1
 660 220 l 1x3040
 550 220 l 1x5080
440 110 m 1x91
 440 220 l 1
 550 220 l 1
 550 110 l 1x5080
 440 110 l 1x91
330 0 m 1x91
 330 110 l 1x92
 440 110 l 1
 440 0 l 1
 330 0 l 1x91
220 110 m 1x52
 220 220 l 1x54
 330 220 l 1x52
 330 110 l 1x92
 220 110 l 1x52
110 220 m 1x34
 110 330 l 1x38
 220 330 l 1x34
 220 220 l 1x54
 110 220 l 1x34
0 330 m 1
 0 770 l 1
 110 770 l 1
 110 330 l 1
 0 330 l 1
660 330 m 1x3040
 660 770 l 1
 770 770 l 1
 770 330 l 1x3020
 660 330 l 1x3040
EndSplineSet
AlternateSubs2: "'salt' subtable - Letters" uniE015
EndChar

StartChar: v
Encoding: 118 118 102
Width: 660
VWidth: 1024
Flags: W
HStem: 0 110<220 330> 110 110<110 220 330 440> 220 330<0 110 440 550>
VStem: 0 110<220 550> 110 110<110 220> 220 110<0 110> 330 110<110 220> 440 110<220 550>
LayerCount: 2
Fore
SplineSet
0 220 m 1x30
 0 550 l 1
 110 550 l 1x30
 110 220 l 1x50
 0 220 l 1x30
110 110 m 1x48
 110 220 l 1x50
 220 220 l 1x48
 220 110 l 1x88
 110 110 l 1x48
440 220 m 1x42
 440 550 l 1
 550 550 l 1
 550 220 l 1x21
 440 220 l 1x42
330 110 m 1x84
 330 220 l 1
 440 220 l 1
 440 110 l 1x42
 330 110 l 1x84
220 0 m 1x84
 220 110 l 1x88
 330 110 l 1
 330 0 l 1
 220 0 l 1x84
EndSplineSet
EndChar

StartChar: Y
Encoding: 89 89 103
Width: 880
VWidth: 1024
Flags: W
HStem: 0 21G<330 440> 330 110<110 330 440 660> 440 330<0 110 660 770>
VStem: -0 110<440 770> 330 110<0 330> 660 110<440 770>
CounterMasks: 1 1c
LayerCount: 2
Fore
SplineSet
440 330 m 1xdc
 440 440 l 1
 660 440 l 1
 660 330 l 1
 440 330 l 1xdc
110 330 m 1
 110 440 l 1
 330 440 l 1
 330 330 l 1
 110 330 l 1
660 440 m 1
 660 770 l 1
 770 770 l 1
 770 440 l 1xbc
 660 440 l 1
330 0 m 1
 330 330 l 1
 440 330 l 1xdc
 440 0 l 1
 330 0 l 1
-0 440 m 1xbc
 0 770 l 1
 110 770 l 1xbc
 110 440 l 1xdc
 -0 440 l 1xbc
EndSplineSet
AlternateSubs2: "'salt' subtable" uniE080
AlternateSubs2: "'salt' subtable - Letters" uniE018
EndChar

StartChar: y
Encoding: 121 121 104
Width: 660
VWidth: 1024
Flags: W
HStem: -220 110<0 440> 0 110<110 440> 530 20G<0 110 440 550>
VStem: 0 110<110 550> 440 110<-110 0 110 550>
LayerCount: 2
Fore
SplineSet
0 0 m 1
 0 550 l 1
 110 550 l 1
 110 110 l 1
 440 110 l 1
 440 550 l 1
 550 550 l 1
 550 -220 l 1
 0 -220 l 1
 0 -110 l 1
 440 -110 l 1
 440 0 l 1
 0 0 l 1
EndSplineSet
EndChar

StartChar: z
Encoding: 122 122 105
Width: 660
VWidth: 1024
Flags: W
HStem: 0 110<0 110 220 550> 220 110<220 330> 440 110<0 330 440 550>
VStem: 220 110<220 330>
CounterMasks: 1 e0
LayerCount: 2
Fore
SplineSet
220 220 m 1
 220 330 l 1
 330 330 l 1
 330 220 l 1
 220 220 l 1
0 0 m 1
 0 110 l 1
 110 110 l 1
 110 220 l 1
 220 220 l 1
 220 110 l 1
 550 110 l 1
 550 0 l 1
 0 0 l 1
0 440 m 1
 0 550 l 1
 550 550 l 1
 550 440 l 1
 440 440 l 1
 440 330 l 1
 330 330 l 1
 330 440 l 1
 0 440 l 1
EndSplineSet
EndChar

StartChar: asciicircum
Encoding: 94 94 106
Width: 660
VWidth: 1024
Flags: W
HStem: 440 110<0 110 440 550> 550 110<110 220 330 440> 660 110<220 330>
VStem: 0 110<440 550> 110 110<550 660> 220 110<660 770> 330 110<550 660> 440 110<440 550>
LayerCount: 2
Fore
SplineSet
440 440 m 1x81
 440 550 l 1x82
 550 550 l 1
 550 440 l 1
 440 440 l 1x81
330 550 m 1x42
 330 660 l 1x44
 440 660 l 1x42
 440 550 l 1x82
 330 550 l 1x42
220 660 m 1x48
 220 770 l 1
 330 770 l 1x24
 330 660 l 1x44
 220 660 l 1x48
110 550 m 1x90
 110 660 l 1
 220 660 l 1
 220 550 l 1x48
 110 550 l 1x90
0 440 m 1x90
 0 550 l 1
 110 550 l 1
 110 440 l 1
 0 440 l 1x90
EndSplineSet
EndChar

StartChar: ograve
Encoding: 242 242 107
Width: 660
VWidth: 1024
Flags: W
HStem: 0 110<110 440> 440 110<110 440> 605 110<275 385> 715 110<165 275>
VStem: 0 110<110 440> 165 110<715 825> 275 110<605 715> 440 110<110 440>
LayerCount: 2
Fore
SplineSet
165 715 m 1xdd
 165 825 l 1
 275 825 l 1xdd
 275 715 l 1xed
 165 715 l 1xdd
275 605 m 1xeb
 275 715 l 1xed
 385 715 l 1
 385 605 l 1
 275 605 l 1xeb
110 110 m 1
 440 110 l 1
 440 440 l 1
 110 440 l 1
 110 110 l 1
0 0 m 1
 0 550 l 1
 550 550 l 1
 550 0 l 17
 0 0 l 1
EndSplineSet
EndChar

StartChar: oacute
Encoding: 243 243 108
Width: 660
VWidth: 1024
Flags: W
HStem: 0 110<110 440> 440 110<110 440> 605 110<165 275> 715 110<275 385>
VStem: 0 110<110 440> 165 110<605 715> 275 110<715 825> 440 110<110 440>
LayerCount: 2
Fore
SplineSet
275 715 m 1xed
 275 825 l 1
 385 825 l 1
 385 715 l 1xdb
 275 715 l 1xed
165 605 m 1xed
 165 715 l 1
 275 715 l 1
 275 605 l 1
 165 605 l 1xed
110 110 m 1
 440 110 l 1
 440 440 l 1
 110 440 l 1
 110 110 l 1
0 0 m 1
 0 550 l 1
 550 550 l 1
 550 0 l 17
 0 0 l 1
EndSplineSet
EndChar

StartChar: ocircumflex
Encoding: 244 244 109
Width: 660
VWidth: 1024
Flags: W
HStem: 0 110<110 440> 440 110<110 440> 605 110<43 153 397 507> 715 110<153 263 287 397>
VStem: 0 110<110 440> 43 110<605 715> 153 110<715 825> 287 110<715 825> 397 110<605 715> 440 110<110 440>
LayerCount: 2
Fore
SplineSet
287 715 m 1xd1
 287 825 l 1
 397 825 l 1xd1
 397 715 l 1xe1
 287 715 l 1xd1
397 605 m 1xe080
 397 715 l 1xe1
 507 715 l 1
 507 605 l 1
 397 605 l 1xe080
153 715 m 1xe4
 153 825 l 1
 263 825 l 1
 263 715 l 1xd2
 153 715 l 1xe4
43 605 m 1xe4
 43 715 l 1
 153 715 l 1
 153 605 l 1
 43 605 l 1xe4
110 110 m 1xc840
 440 110 l 1
 440 440 l 1
 110 440 l 1
 110 110 l 1xc840
0 0 m 1
 0 550 l 1
 550 550 l 1
 550 0 l 17
 0 0 l 1
EndSplineSet
EndChar

StartChar: otilde
Encoding: 245 245 110
Width: 660
VWidth: 1024
Flags: W
HStem: 0 110<110 440> 440 110<110 440> 605 110<55 165 275 385> 715 110<165 275 385 495>
VStem: 0 110<110 440> 55 110<605 715> 165 110<715 825> 275 110<605 715> 385 110<715 825> 440 110<110 440>
LayerCount: 2
Fore
SplineSet
385 715 m 1xe1
 385 825 l 1
 495 825 l 1
 495 715 l 1xd080
 385 715 l 1xe1
275 605 m 1xe1
 275 715 l 1xe2
 385 715 l 1
 385 605 l 1
 275 605 l 1xe1
165 715 m 1xe4
 165 825 l 1
 275 825 l 1xd2
 275 715 l 1xe2
 165 715 l 1xe4
55 605 m 1xe4
 55 715 l 1
 165 715 l 1
 165 605 l 1
 55 605 l 1xe4
110 110 m 1xc840
 440 110 l 1
 440 440 l 1
 110 440 l 1
 110 110 l 1xc840
0 0 m 1
 0 550 l 1
 550 550 l 1
 550 0 l 17
 0 0 l 1
EndSplineSet
EndChar

StartChar: odieresis
Encoding: 246 246 111
Width: 660
VWidth: 1024
Flags: W
HStem: 0 110<110 440> 440 110<110 440> 660 110<0 110 440 550>
VStem: 0 110<110 440 660 770> 440 110<110 440 660 770>
LayerCount: 2
Fore
SplineSet
440 660 m 1
 440 770 l 1
 550 770 l 1
 550 660 l 1
 440 660 l 1
0 660 m 1
 0 770 l 1
 110 770 l 1
 110 660 l 1
 0 660 l 1
110 110 m 1
 440 110 l 1
 440 440 l 1
 110 440 l 1
 110 110 l 1
0 0 m 1
 0 550 l 1
 550 550 l 1
 550 0 l 17
 0 0 l 1
EndSplineSet
EndChar

StartChar: edieresis
Encoding: 235 235 112
Width: 660
Flags: W
HStem: 0 110<110 550> 220 110<110 440> 440 110<110 440> 660 110<0 110 440 550>
VStem: 0 110<110 220 330 440 660 770> 440 110<330 440 660 770>
LayerCount: 2
Fore
SplineSet
440 660 m 1
 440 770 l 1
 550 770 l 1
 550 660 l 1
 440 660 l 1
0 660 m 1
 0 770 l 1
 110 770 l 1
 110 660 l 1
 0 660 l 1
0 0 m 1
 0 550 l 1
 550 550 l 1
 550 220 l 1
 110 220 l 1
 110 110 l 1
 550 110 l 1
 550 0 l 1
 0 0 l 1
110 330 m 1
 440 330 l 1
 440 440 l 1
 110 440 l 1
 110 330 l 1
EndSplineSet
EndChar

StartChar: adieresis
Encoding: 228 228 113
Width: 660
VWidth: 1024
Flags: W
HStem: 0 110<110 440> 220 110<110 440> 440 110<0 440> 660 110<0 110 440 550>
VStem: 0 110<110 220 660 770> 440 110<110 220 330 440 660 770>
LayerCount: 2
Fore
SplineSet
440 660 m 1
 440 770 l 1
 550 770 l 1
 550 660 l 1
 440 660 l 1
0 660 m 1
 0 770 l 1
 110 770 l 1
 110 660 l 1
 0 660 l 1
110 110 m 1
 440 110 l 1
 440 220 l 1
 110 220 l 1
 110 110 l 1
0 0 m 1
 0 330 l 1
 440 330 l 1
 440 440 l 1
 0 440 l 1
 0 550 l 9
 550 550 l 17
 550 0 l 1
 0 0 l 1
EndSplineSet
EndChar

StartChar: udieresis
Encoding: 252 252 114
Width: 660
Flags: W
HStem: 0 110<110 440> 530 20G<0 110 440 550> 660 110<0 110 440 550>
VStem: 0 110<110 550 660 770> 440 110<110 550 660 770>
LayerCount: 2
Fore
SplineSet
440 660 m 1
 440 770 l 1
 550 770 l 1
 550 660 l 1
 440 660 l 1
0 660 m 1
 0 770 l 1
 110 770 l 1
 110 660 l 1
 0 660 l 1
0 0 m 1
 0 550 l 1
 110 550 l 1
 110 110 l 1
 440 110 l 1
 440 550 l 1
 550 550 l 1
 550 0 l 1
 0 0 l 1
EndSplineSet
EndChar

StartChar: egrave
Encoding: 232 232 115
Width: 660
Flags: W
HStem: 0 110<110 550> 220 110<110 440> 440 110<110 440> 605 110<275 385> 715 110<165 275>
VStem: 0 110<110 220 330 440> 165 110<715 825> 275 110<605 715> 440 110<330 440>
LayerCount: 2
Fore
SplineSet
165 715 m 1xee80
 165 825 l 1
 275 825 l 1xee80
 275 715 l 1xf680
 165 715 l 1xee80
275 605 m 1xf580
 275 715 l 1xf680
 385 715 l 1
 385 605 l 1
 275 605 l 1xf580
0 0 m 1
 0 550 l 1
 550 550 l 1
 550 220 l 1
 110 220 l 1
 110 110 l 1
 550 110 l 1
 550 0 l 1
 0 0 l 1
110 330 m 1
 440 330 l 1
 440 440 l 1
 110 440 l 1
 110 330 l 1
EndSplineSet
EndChar

StartChar: eacute
Encoding: 233 233 116
Width: 660
Flags: W
HStem: 0 110<110 550> 220 110<110 440> 440 110<110 440> 605 110<165 275> 715 110<275 385>
VStem: 0 110<110 220 330 440> 165 110<605 715> 275 110<715 825> 440 110<330 440>
LayerCount: 2
Fore
SplineSet
275 715 m 1xf680
 275 825 l 1
 385 825 l 1
 385 715 l 1xed80
 275 715 l 1xf680
165 605 m 1xf680
 165 715 l 1
 275 715 l 1
 275 605 l 1
 165 605 l 1xf680
0 0 m 1
 0 550 l 1
 550 550 l 1
 550 220 l 1
 110 220 l 1
 110 110 l 1
 550 110 l 1
 550 0 l 1
 0 0 l 1
110 330 m 1
 440 330 l 1
 440 440 l 1
 110 440 l 1
 110 330 l 1
EndSplineSet
EndChar

StartChar: ecircumflex
Encoding: 234 234 117
Width: 660
Flags: W
HStem: 0 110<110 550> 220 110<110 440> 440 110<110 440> 605 110<43 153 397 507> 715 110<153 263 287 397>
VStem: 0 110<110 220 330 440> 43 110<605 715> 153 110<715 825> 287 110<715 825> 397 110<605 715> 440 110<330 440>
LayerCount: 2
Fore
SplineSet
287 715 m 1xe880
 287 825 l 1
 397 825 l 1xe880
 397 715 l 1xf080
 287 715 l 1xe880
397 605 m 1xf040
 397 715 l 1xf080
 507 715 l 1
 507 605 l 1
 397 605 l 1xf040
153 715 m 1xf2
 153 825 l 1
 263 825 l 1
 263 715 l 1xe9
 153 715 l 1xf2
43 605 m 1xf2
 43 715 l 1
 153 715 l 1
 153 605 l 1
 43 605 l 1xf2
0 0 m 1xe420
 0 550 l 1
 550 550 l 1
 550 220 l 1
 110 220 l 1
 110 110 l 1
 550 110 l 1
 550 0 l 1
 0 0 l 1xe420
110 330 m 1
 440 330 l 1
 440 440 l 1
 110 440 l 1
 110 330 l 1
EndSplineSet
EndChar

StartChar: ugrave
Encoding: 249 249 118
Width: 660
Flags: W
HStem: 0 110<110 440> 530 20G<0 110 440 550> 605 110<275 385> 715 110<165 275>
VStem: 0 110<110 550> 165 110<715 825> 275 110<605 715> 440 110<110 550>
LayerCount: 2
Fore
SplineSet
165 715 m 1xdd
 165 825 l 1
 275 825 l 1xdd
 275 715 l 1xed
 165 715 l 1xdd
275 605 m 1xeb
 275 715 l 1xed
 385 715 l 1
 385 605 l 1
 275 605 l 1xeb
0 0 m 1
 0 550 l 1
 110 550 l 1
 110 110 l 1
 440 110 l 1
 440 550 l 1
 550 550 l 1
 550 0 l 1
 0 0 l 1
EndSplineSet
EndChar

StartChar: uacute
Encoding: 250 250 119
Width: 660
Flags: W
HStem: 0 110<110 440> 530 20G<0 110 440 550> 605 110<165 275> 715 110<275 385>
VStem: 0 110<110 550> 165 110<605 715> 275 110<715 825> 440 110<110 550>
LayerCount: 2
Fore
SplineSet
275 715 m 1xed
 275 825 l 1
 385 825 l 1
 385 715 l 1xdb
 275 715 l 1xed
165 605 m 1xed
 165 715 l 1
 275 715 l 1
 275 605 l 1
 165 605 l 1xed
0 0 m 1
 0 550 l 1
 110 550 l 1
 110 110 l 1
 440 110 l 1
 440 550 l 1
 550 550 l 1
 550 0 l 1
 0 0 l 1
EndSplineSet
EndChar

StartChar: ucircumflex
Encoding: 251 251 120
Width: 660
Flags: W
HStem: 0 110<110 440> 530 20G<0 110 440 550> 605 110<43 153 397 507> 715 110<153 263 287 397>
VStem: 0 110<110 550> 43 110<605 715> 153 110<715 825> 287 110<715 825> 397 110<605 715> 440 110<110 550>
LayerCount: 2
Fore
SplineSet
287 715 m 1xd1
 287 825 l 1
 397 825 l 1xd1
 397 715 l 1xe1
 287 715 l 1xd1
397 605 m 1xe080
 397 715 l 1xe1
 507 715 l 1
 507 605 l 1
 397 605 l 1xe080
153 715 m 1xe4
 153 825 l 1
 263 825 l 1
 263 715 l 1xd2
 153 715 l 1xe4
43 605 m 1xe4
 43 715 l 1
 153 715 l 1
 153 605 l 1
 43 605 l 1xe4
0 0 m 1xc840
 0 550 l 1
 110 550 l 1
 110 110 l 1
 440 110 l 1
 440 550 l 1
 550 550 l 1
 550 0 l 1
 0 0 l 1xc840
EndSplineSet
EndChar

StartChar: yacute
Encoding: 253 253 121
Width: 660
VWidth: 1024
Flags: W
HStem: -220 110<0 440> 0 110<110 440> 530 20G<0 110 440 550> 605 110<165 275> 715 110<275 385>
VStem: 0 110<110 550> 165 110<605 715> 275 110<715 825> 440 110<-110 0 110 550>
LayerCount: 2
Fore
SplineSet
275 715 m 1xf680
 275 825 l 1
 385 825 l 1
 385 715 l 1xed80
 275 715 l 1xf680
165 605 m 1xf680
 165 715 l 1
 275 715 l 1
 275 605 l 1
 165 605 l 1xf680
0 0 m 1
 0 550 l 1
 110 550 l 1
 110 110 l 1
 440 110 l 1
 440 550 l 1
 550 550 l 1
 550 -220 l 1
 0 -220 l 1
 0 -110 l 1
 440 -110 l 1
 440 0 l 1
 0 0 l 1
EndSplineSet
EndChar

StartChar: ydieresis
Encoding: 255 255 122
Width: 660
VWidth: 1024
Flags: W
HStem: -220 110<0 440> 0 110<110 440> 530 20G<0 110 440 550> 660 110<0 110 440 550>
VStem: 0 110<110 550 660 770> 440 110<-110 0 110 550 660 770>
LayerCount: 2
Fore
SplineSet
440 660 m 1
 440 770 l 1
 550 770 l 1
 550 660 l 1
 440 660 l 1
0 660 m 1
 0 770 l 1
 110 770 l 1
 110 660 l 1
 0 660 l 1
0 0 m 1
 0 550 l 1
 110 550 l 1
 110 110 l 1
 440 110 l 1
 440 550 l 1
 550 550 l 1
 550 -220 l 1
 0 -220 l 1
 0 -110 l 1
 440 -110 l 1
 440 0 l 1
 0 0 l 1
EndSplineSet
EndChar

StartChar: ntilde
Encoding: 241 241 123
Width: 660
Flags: W
HStem: 0 21G<0 110 440 550> 440 110<110 440> 605 110<55 165 275 385> 715 110<165 275 385 495>
VStem: 0 110<0 440> 55 110<605 715> 165 110<715 825> 275 110<605 715> 385 110<715 825> 440 110<0 440>
LayerCount: 2
Fore
SplineSet
385 715 m 1xe1
 385 825 l 1
 495 825 l 1
 495 715 l 1xd080
 385 715 l 1xe1
275 605 m 1xe1
 275 715 l 1xe2
 385 715 l 1
 385 605 l 1
 275 605 l 1xe1
165 715 m 1xe4
 165 825 l 1
 275 825 l 1xd2
 275 715 l 1xe2
 165 715 l 1xe4
55 605 m 1xe4
 55 715 l 1
 165 715 l 1
 165 605 l 1
 55 605 l 1xe4
0 0 m 1xc840
 0 550 l 1
 550 550 l 1
 550 0 l 1
 440 0 l 1
 440 440 l 1
 110 440 l 1
 110 0 l 1
 0 0 l 1xc840
EndSplineSet
EndChar

StartChar: agrave
Encoding: 224 224 124
Width: 660
VWidth: 1024
Flags: W
HStem: 0 110<110 440> 220 110<110 440> 440 110<0 440> 605 110<275 385> 715 110<165 275>
VStem: 0 110<110 220> 165 110<715 825> 275 110<605 715> 440 110<110 220 330 440>
LayerCount: 2
Fore
SplineSet
165 715 m 1xee80
 165 825 l 1
 275 825 l 1xee80
 275 715 l 1xf680
 165 715 l 1xee80
275 605 m 1xf580
 275 715 l 1xf680
 385 715 l 1
 385 605 l 1
 275 605 l 1xf580
110 110 m 1
 440 110 l 1
 440 220 l 1
 110 220 l 1
 110 110 l 1
0 0 m 1
 0 330 l 1
 440 330 l 1
 440 440 l 1
 0 440 l 1
 0 550 l 9
 550 550 l 17
 550 0 l 1
 0 0 l 1
EndSplineSet
EndChar

StartChar: aacute
Encoding: 225 225 125
Width: 660
VWidth: 1024
Flags: W
HStem: 0 110<110 440> 220 110<110 440> 440 110<0 440> 605 110<165 275> 715 110<275 385>
VStem: 0 110<110 220> 165 110<605 715> 275 110<715 825> 440 110<110 220 330 440>
LayerCount: 2
Fore
SplineSet
275 715 m 1xf680
 275 825 l 1
 385 825 l 1
 385 715 l 1xed80
 275 715 l 1xf680
165 605 m 1xf680
 165 715 l 1
 275 715 l 1
 275 605 l 1
 165 605 l 1xf680
110 110 m 1
 440 110 l 1
 440 220 l 1
 110 220 l 1
 110 110 l 1
0 0 m 1
 0 330 l 1
 440 330 l 1
 440 440 l 1
 0 440 l 1
 0 550 l 9
 550 550 l 17
 550 0 l 1
 0 0 l 1
EndSplineSet
EndChar

StartChar: acircumflex
Encoding: 226 226 126
Width: 660
VWidth: 1024
Flags: W
HStem: 0 110<110 440> 220 110<110 440> 440 110<0 440> 605 110<43 153 397 507> 715 110<153 263 287 397>
VStem: 0 110<110 220> 43 110<605 715> 153 110<715 825> 287 110<715 825> 397 110<605 715> 440 110<110 220 330 440>
LayerCount: 2
Fore
SplineSet
287 715 m 1xe880
 287 825 l 1
 397 825 l 1xe880
 397 715 l 1xf080
 287 715 l 1xe880
397 605 m 1xf040
 397 715 l 1xf080
 507 715 l 1
 507 605 l 1
 397 605 l 1xf040
153 715 m 1xf2
 153 825 l 1
 263 825 l 1
 263 715 l 1xe9
 153 715 l 1xf2
43 605 m 1xf2
 43 715 l 1
 153 715 l 1
 153 605 l 1
 43 605 l 1xf2
110 110 m 1xe420
 440 110 l 1
 440 220 l 1
 110 220 l 1
 110 110 l 1xe420
0 0 m 1
 0 330 l 1
 440 330 l 1
 440 440 l 1
 0 440 l 1
 0 550 l 9
 550 550 l 17
 550 0 l 1
 0 0 l 1
EndSplineSet
EndChar

StartChar: atilde
Encoding: 227 227 127
Width: 660
VWidth: 1024
Flags: W
HStem: 0 110<110 440> 220 110<110 440> 440 110<0 440> 605 110<55 165 275 385> 715 110<165 275 385 495>
VStem: 0 110<110 220> 55 110<605 715> 165 110<715 825> 275 110<605 715> 385 110<715 825> 440 110<110 220 330 440>
LayerCount: 2
Fore
SplineSet
385 715 m 1xf080
 385 825 l 1
 495 825 l 1
 495 715 l 1xe840
 385 715 l 1xf080
275 605 m 1xf080
 275 715 l 1xf1
 385 715 l 1
 385 605 l 1
 275 605 l 1xf080
165 715 m 1xf2
 165 825 l 1
 275 825 l 1xe9
 275 715 l 1xf1
 165 715 l 1xf2
55 605 m 1xf2
 55 715 l 1
 165 715 l 1
 165 605 l 1
 55 605 l 1xf2
110 110 m 1xe420
 440 110 l 1
 440 220 l 1
 110 220 l 1
 110 110 l 1xe420
0 0 m 1
 0 330 l 1
 440 330 l 1
 440 440 l 1
 0 440 l 1
 0 550 l 9
 550 550 l 17
 550 0 l 1
 0 0 l 1
EndSplineSet
EndChar

StartChar: ccedilla
Encoding: 231 231 128
Width: 660
Flags: W
HStem: -260 110<165 275> -150 110<275 385> 0 110<110 550> 440 110<110 550>
VStem: 0 110<110 440> 165 110<-260 -150> 275 110<-150 -40>
LayerCount: 2
Fore
SplineSet
275 -150 m 1xbc
 275 -40 l 1
 385 -40 l 1
 385 -150 l 1x7a
 275 -150 l 1xbc
165 -260 m 1xbc
 165 -150 l 1
 275 -150 l 1
 275 -260 l 1
 165 -260 l 1xbc
0 0 m 1
 0 550 l 1
 550 550 l 1
 550 440 l 1
 110 440 l 1
 110 110 l 1
 550 110 l 1
 550 0 l 1
 0 0 l 1
EndSplineSet
EndChar

StartChar: aring
Encoding: 229 229 129
Width: 660
VWidth: 1024
Flags: W
HStem: 0 110<110 440> 220 110<110 440> 440 110<0 440> 605 110<220 330> 715 110<110 220 330 440> 825 110<220 330>
VStem: 0 110<110 220> 110 110<715 825> 220 110<605 715 825 935> 330 110<715 825> 440 110<110 220 330 440>
LayerCount: 2
Fore
SplineSet
220 825 m 1xe9
 220 935 l 1
 330 935 l 1xe480
 330 825 l 1xe880
 220 825 l 1xe9
330 715 m 1xf080
 330 825 l 1xe880
 440 825 l 1
 440 715 l 1xe840
 330 715 l 1xf080
220 605 m 1xf080
 220 715 l 1xf1
 330 715 l 1
 330 605 l 1
 220 605 l 1xf080
110 715 m 1xe9
 110 825 l 1
 220 825 l 1xe9
 220 715 l 1xf1
 110 715 l 1xe9
110 110 m 1xe220
 440 110 l 1
 440 220 l 1
 110 220 l 1
 110 110 l 1xe220
0 0 m 1
 0 330 l 1
 440 330 l 1
 440 440 l 1
 0 440 l 1
 0 550 l 9
 550 550 l 17
 550 0 l 1
 0 0 l 1
EndSplineSet
EndChar

StartChar: copyright
Encoding: 169 169 130
Width: 880
VWidth: 1024
Flags: W
HStem: 0 110<110 660> 200 74<274 570> 496 74<274 570> 660 110<110 660>
VStem: 0 110<110 660> 200 74<274 496> 660 110<110 660>
LayerCount: 2
Fore
SplineSet
200 200 m 1
 200 570 l 1
 570 570 l 1
 570 496 l 1
 274 496 l 1
 274 274 l 1
 570 274 l 1
 570 200 l 1
 200 200 l 1
110 110 m 1
 660 110 l 1
 660 660 l 1
 110 660 l 1
 110 110 l 1
0 0 m 1
 0 770 l 1
 770 770 l 1
 770 0 l 17
 0 0 l 1
EndSplineSet
EndChar

StartChar: registered
Encoding: 174 174 131
Width: 880
VWidth: 1024
Flags: W
HStem: 0 110<110 660> 496 74<274 570> 660 110<110 660>
VStem: 0 110<110 660> 200 74<200 496> 660 110<110 660>
LayerCount: 2
Fore
SplineSet
200 200 m 1
 200 570 l 1
 570 570 l 1
 570 496 l 1
 274 496 l 1
 274 200 l 1
 200 200 l 1
110 110 m 1
 660 110 l 1
 660 660 l 1
 110 660 l 1
 110 110 l 1
0 0 m 1
 0 770 l 1
 770 770 l 1
 770 0 l 17
 0 0 l 1
EndSplineSet
EndChar

StartChar: Egrave
Encoding: 200 200 132
Width: 880
Flags: W
HStem: 0 110<110 770> 330 110<110 660> 660 110<110 770> 810 110<385 495> 920 110<275 385>
VStem: 0 110<110 330 440 660> 275 110<920 1030> 385 110<810 920>
LayerCount: 2
Fore
SplineSet
275 920 m 1xee
 275 1030 l 1
 385 1030 l 1xee
 385 920 l 1xf6
 275 920 l 1xee
385 810 m 1xf5
 385 920 l 1xf6
 495 920 l 1
 495 810 l 1
 385 810 l 1xf5
0 0 m 1
 0 770 l 1
 770 770 l 1
 770 660 l 1
 110 660 l 1
 110 440 l 1
 660 440 l 1
 660 330 l 1
 110 330 l 1
 110 110 l 1
 770 110 l 1
 770 0 l 1
 0 0 l 1
EndSplineSet
AlternateSubs2: "'salt' subtable - Accents" uniE047
EndChar

StartChar: Ecircumflex
Encoding: 202 202 133
Width: 880
Flags: W
HStem: 0 110<110 770> 330 110<110 660> 660 110<110 770> 810 110<153 263 507 617> 920 110<263 373 397 507>
VStem: 0 110<110 330 440 660> 153 110<810 920> 263 110<920 1030> 397 110<920 1030> 507 110<810 920>
LayerCount: 2
Fore
SplineSet
397 920 m 1xec80
 397 1030 l 1
 507 1030 l 1xec80
 507 920 l 1xf480
 397 920 l 1xec80
507 810 m 1xf440
 507 920 l 1xf480
 617 920 l 1
 617 810 l 1
 507 810 l 1xf440
263 920 m 1xf6
 263 1030 l 1
 373 1030 l 1
 373 920 l 1xed
 263 920 l 1xf6
153 810 m 1xf6
 153 920 l 1
 263 920 l 1
 263 810 l 1
 153 810 l 1xf6
0 0 m 1
 0 770 l 1
 770 770 l 1
 770 660 l 1
 110 660 l 1
 110 440 l 1
 660 440 l 1
 660 330 l 1
 110 330 l 1
 110 110 l 1
 770 110 l 1
 770 0 l 1
 0 0 l 1
EndSplineSet
AlternateSubs2: "'salt' subtable - Accents" uniE049
EndChar

StartChar: Ugrave
Encoding: 217 217 134
Width: 880
Flags: W
HStem: 0 110<110 660> 750 20G<0 110 660 770> 810 110<385 495> 920 110<275 385>
VStem: 0 110<110 770> 275 110<920 1030> 385 110<810 920> 660 110<110 770>
LayerCount: 2
Fore
SplineSet
275 920 m 1xdd
 275 1030 l 1
 385 1030 l 1xdd
 385 920 l 1xed
 275 920 l 1xdd
385 810 m 1xeb
 385 920 l 1xed
 495 920 l 1
 495 810 l 1
 385 810 l 1xeb
0 0 m 1
 0 770 l 1
 110 770 l 1
 110 110 l 1
 660 110 l 1
 660 770 l 1
 770 770 l 1
 770 0 l 1
 0 0 l 1
EndSplineSet
AlternateSubs2: "'salt' subtable - Accents" uniE052
EndChar

StartChar: Uacute
Encoding: 218 218 135
Width: 880
Flags: W
HStem: 0 110<110 660> 750 20G<0 110 660 770> 810 110<275 385> 920 110<385 495>
VStem: 0 110<110 770> 275 110<810 920> 385 110<920 1030> 660 110<110 770>
LayerCount: 2
Fore
SplineSet
385 920 m 1xed
 385 1030 l 1
 495 1030 l 1
 495 920 l 1xdb
 385 920 l 1xed
275 810 m 1xed
 275 920 l 1
 385 920 l 1
 385 810 l 1
 275 810 l 1xed
0 0 m 1
 0 770 l 1
 110 770 l 1
 110 110 l 1
 660 110 l 1
 660 770 l 1
 770 770 l 1
 770 0 l 1
 0 0 l 1
EndSplineSet
AlternateSubs2: "'salt' subtable - Accents" uniE053
EndChar

StartChar: Ucircumflex
Encoding: 219 219 136
Width: 880
Flags: W
HStem: 0 110<110 660> 750 20G<0 110 660 770> 810 110<153 263 507 617> 920 110<263 373 397 507>
VStem: 0 110<110 770> 153 110<810 920> 263 110<920 1030> 397 110<920 1030> 507 110<810 920> 660 110<110 770>
LayerCount: 2
Fore
SplineSet
397 920 m 1xd940
 397 1030 l 1
 507 1030 l 1xd940
 507 920 l 1xe940
 397 920 l 1xd940
507 810 m 1xe8c0
 507 920 l 1xe940
 617 920 l 1
 617 810 l 1
 507 810 l 1xe8c0
263 920 m 1xec40
 263 1030 l 1
 373 1030 l 1
 373 920 l 1xda40
 263 920 l 1xec40
153 810 m 1xec40
 153 920 l 1
 263 920 l 1
 263 810 l 1
 153 810 l 1xec40
0 0 m 1
 0 770 l 1
 110 770 l 1
 110 110 l 1
 660 110 l 1
 660 770 l 1
 770 770 l 1
 770 0 l 1
 0 0 l 1
EndSplineSet
AlternateSubs2: "'salt' subtable - Accents" uniE054
EndChar

StartChar: Udieresis
Encoding: 220 220 137
Width: 880
Flags: W
HStem: 0 110<110 660> 750 20G<0 110 660 770> 810 110<233 343 427 537>
VStem: 0 110<110 770> 233 110<810 920> 427 110<810 920> 660 110<110 770>
LayerCount: 2
Fore
SplineSet
427 810 m 1
 427 920 l 1
 537 920 l 1
 537 810 l 1
 427 810 l 1
233 810 m 1
 233 920 l 1
 343 920 l 1
 343 810 l 1
 233 810 l 1
0 0 m 1
 0 770 l 1
 110 770 l 1
 110 110 l 1
 660 110 l 1
 660 770 l 1
 770 770 l 1
 770 0 l 1
 0 0 l 1
EndSplineSet
AlternateSubs2: "'salt' subtable - Accents" uniE055
EndChar

StartChar: Yacute
Encoding: 221 221 138
Width: 880
VWidth: 1024
Flags: W
HStem: 0 21G<330 440> 330 110<110 330 440 660> 440 330<0 110 660 770> 810 110<275 385> 920 110<385 495>
VStem: -0 110<440 770> 275 110<810 920> 330 110<0 330> 385 110<920 1030> 660 110<440 770>
LayerCount: 2
Fore
SplineSet
385 920 m 1x9640
 385 1030 l 1
 495 1030 l 1
 495 920 l 1x8cc0
 385 920 l 1x9640
275 810 m 1x9640
 275 920 l 1
 385 920 l 1
 385 810 l 1
 275 810 l 1x9640
440 330 m 1xc540
 440 440 l 1
 660 440 l 1
 660 330 l 1
 440 330 l 1xc540
110 330 m 1
 110 440 l 1
 330 440 l 1
 330 330 l 1
 110 330 l 1
660 440 m 1
 660 770 l 1
 770 770 l 1
 770 440 l 1xa440
 660 440 l 1
330 0 m 1xc540
 330 330 l 1
 440 330 l 1
 440 0 l 1
 330 0 l 1xc540
-0 440 m 1xa440
 0 770 l 1
 110 770 l 1xa440
 110 440 l 1xc440
 -0 440 l 1xa440
EndSplineSet
AlternateSubs2: "'salt' subtable - Accents" uniE056
EndChar

StartChar: Ograve
Encoding: 210 210 139
Width: 880
VWidth: 1024
Flags: W
HStem: 0 110<110 660> 660 110<110 660> 810 110<385 495> 920 110<275 385>
VStem: 0 110<110 660> 275 110<920 1030> 385 110<810 920> 660 110<110 660>
LayerCount: 2
Fore
SplineSet
275 920 m 1xdd
 275 1030 l 1
 385 1030 l 1xdd
 385 920 l 1xed
 275 920 l 1xdd
385 810 m 1xeb
 385 920 l 1xed
 495 920 l 1
 495 810 l 1
 385 810 l 1xeb
110 110 m 1
 660 110 l 1
 660 660 l 1
 110 660 l 1
 110 110 l 1
0 0 m 1
 0 770 l 1
 770 770 l 1
 770 0 l 17
 0 0 l 1
EndSplineSet
AlternateSubs2: "'salt' subtable - Accents" uniE04C
EndChar

StartChar: Oacute
Encoding: 211 211 140
Width: 880
VWidth: 1024
Flags: W
HStem: 0 110<110 660> 660 110<110 660> 810 110<275 385> 920 110<385 495>
VStem: 0 110<110 660> 275 110<810 920> 385 110<920 1030> 660 110<110 660>
LayerCount: 2
Fore
SplineSet
385 920 m 1xed
 385 1030 l 1
 495 1030 l 1
 495 920 l 1xdb
 385 920 l 1xed
275 810 m 1xed
 275 920 l 1
 385 920 l 1
 385 810 l 1
 275 810 l 1xed
110 110 m 1
 660 110 l 1
 660 660 l 1
 110 660 l 1
 110 110 l 1
0 0 m 1
 0 770 l 1
 770 770 l 1
 770 0 l 17
 0 0 l 1
EndSplineSet
AlternateSubs2: "'salt' subtable - Accents" uniE04D
EndChar

StartChar: Ocircumflex
Encoding: 212 212 141
Width: 880
VWidth: 1024
Flags: W
HStem: 0 110<110 660> 660 110<110 660> 810 110<153 263 507 617> 920 110<263 373 397 507>
VStem: 0 110<110 660> 153 110<810 920> 263 110<920 1030> 397 110<920 1030> 507 110<810 920> 660 110<110 660>
LayerCount: 2
Fore
SplineSet
397 920 m 1xd940
 397 1030 l 1
 507 1030 l 1xd940
 507 920 l 1xe940
 397 920 l 1xd940
507 810 m 1xe8c0
 507 920 l 1xe940
 617 920 l 1
 617 810 l 1
 507 810 l 1xe8c0
263 920 m 1xec40
 263 1030 l 1
 373 1030 l 1
 373 920 l 1xda40
 263 920 l 1xec40
153 810 m 1xec40
 153 920 l 1
 263 920 l 1
 263 810 l 1
 153 810 l 1xec40
110 110 m 1
 660 110 l 1
 660 660 l 1
 110 660 l 1
 110 110 l 1
0 0 m 1
 0 770 l 1
 770 770 l 1
 770 0 l 17
 0 0 l 1
EndSplineSet
AlternateSubs2: "'salt' subtable - Accents" uniE04E
EndChar

StartChar: Otilde
Encoding: 213 213 142
Width: 880
VWidth: 1024
Flags: W
HStem: 0 110<110 660> 660 110<110 660> 810 110<165 275 385 495> 920 110<275 385 495 605>
VStem: 0 110<110 660> 165 110<810 920> 275 110<920 1030> 385 110<810 920> 495 110<920 1030> 660 110<110 660>
LayerCount: 2
Fore
SplineSet
495 920 m 1xe940
 495 1030 l 1
 605 1030 l 1
 605 920 l 1xd8c0
 495 920 l 1xe940
385 810 m 1xe940
 385 920 l 1xea40
 495 920 l 1
 495 810 l 1
 385 810 l 1xe940
275 920 m 1xec40
 275 1030 l 1
 385 1030 l 1xda40
 385 920 l 1xea40
 275 920 l 1xec40
165 810 m 1xec40
 165 920 l 1
 275 920 l 1
 275 810 l 1
 165 810 l 1xec40
110 110 m 1
 660 110 l 1
 660 660 l 1
 110 660 l 1
 110 110 l 1
0 0 m 1
 0 770 l 1
 770 770 l 1
 770 0 l 17
 0 0 l 1
EndSplineSet
AlternateSubs2: "'salt' subtable - Accents" uniE04F
EndChar

StartChar: Odieresis
Encoding: 214 214 143
Width: 880
VWidth: 1024
Flags: W
HStem: 0 110<110 660> 660 110<110 660> 810 110<233 343 427 537>
VStem: 0 110<110 660> 233 110<810 920> 427 110<810 920> 660 110<110 660>
LayerCount: 2
Fore
SplineSet
427 810 m 1
 427 920 l 1
 537 920 l 1
 537 810 l 1
 427 810 l 1
233 810 m 1
 233 920 l 1
 343 920 l 1
 343 810 l 1
 233 810 l 1
110 110 m 1
 660 110 l 1
 660 660 l 1
 110 660 l 1
 110 110 l 1
0 0 m 1
 0 770 l 1
 770 770 l 1
 770 0 l 17
 0 0 l 1
EndSplineSet
AlternateSubs2: "'salt' subtable - Accents" uniE050
EndChar

StartChar: thorn
Encoding: 254 254 144
Width: 660
VWidth: 1024
Flags: W
HStem: 55 110<110 440> 385 110<110 440> 750 20G<0 110>
VStem: 0 110<-220 55 165 385 495 770> 440 110<165 385>
LayerCount: 2
Fore
SplineSet
110 165 m 1
 440 165 l 1
 440 385 l 1
 110 385 l 1
 110 165 l 1
0 -220 m 1
 0 770 l 1
 110 770 l 9
 110 495 l 17
 550 495 l 1
 550 55 l 1
 110 55 l 1
 110 -220 l 1
 0 -220 l 1
EndSplineSet
EndChar

StartChar: Thorn
Encoding: 222 222 145
Width: 660
VWidth: 1024
Flags: W
HStem: 55 110<110 440> 385 110<110 440> 750 20G<0 110>
VStem: 0 110<-220 55 165 385 495 770> 440 110<165 385>
LayerCount: 2
Fore
SplineSet
110 165 m 1
 440 165 l 1
 440 385 l 1
 110 385 l 1
 110 165 l 1
0 -220 m 1
 0 770 l 1
 110 770 l 9
 110 495 l 17
 550 495 l 1
 550 55 l 1
 110 55 l 1
 110 -220 l 1
 0 -220 l 1
EndSplineSet
EndChar

StartChar: Edieresis
Encoding: 203 203 146
Width: 880
Flags: W
HStem: 0 110<110 770> 330 110<110 660> 660 110<110 770> 810 110<233 343 427 537>
VStem: 0 110<110 330 440 660> 233 110<810 920> 427 110<810 920>
LayerCount: 2
Fore
SplineSet
427 810 m 1
 427 920 l 1
 537 920 l 1
 537 810 l 1
 427 810 l 1
233 810 m 1
 233 920 l 1
 343 920 l 1
 343 810 l 1
 233 810 l 1
0 0 m 1
 0 770 l 1
 770 770 l 1
 770 660 l 1
 110 660 l 1
 110 440 l 1
 660 440 l 1
 660 330 l 1
 110 330 l 1
 110 110 l 1
 770 110 l 1
 770 0 l 1
 0 0 l 1
EndSplineSet
AlternateSubs2: "'salt' subtable - Accents" uniE04A
EndChar

StartChar: Oslash
Encoding: 216 216 147
Width: 880
VWidth: 1024
Flags: W
HStem: 0 110<220 660> 220 110<220 330> 330 110<330 440> 440 110<440 550> 660 110<110 550>
VStem: 0 110<220 660> 220 110<220 330> 330 110<330 440> 440 110<440 550> 660 110<110 550>
LayerCount: 2
Fore
SplineSet
440 440 m 1xad40
 440 550 l 1
 550 550 l 1
 550 440 l 1x9cc0
 440 440 l 1xad40
330 330 m 1xce40
 330 440 l 1
 440 440 l 1
 440 330 l 1xad40
 330 330 l 1xce40
220 220 m 1xce40
 220 330 l 1
 330 330 l 1
 330 220 l 1
 220 220 l 1xce40
0 0 m 1
 0 770 l 1
 770 770 l 1
 770 0 l 1
 0 0 l 1
110 220 m 1
 220 220 l 1
 220 110 l 1
 660 110 l 1
 660 550 l 1
 550 550 l 1
 550 660 l 1xdec0
 110 660 l 1
 110 220 l 1
EndSplineSet
AlternateSubs2: "'salt' subtable - Accents" uniE051
EndChar

StartChar: Ydieresis
Encoding: 376 376 148
Width: 880
VWidth: 1024
Flags: W
HStem: 0 21G<330 440> 330 110<110 330 440 660> 440 330<0 110 660 770> 810 110<233 343 427 537>
VStem: -0 110<440 770> 233 110<810 920> 330 110<0 330> 427 110<810 920> 660 110<440 770>
LayerCount: 2
Fore
SplineSet
427 810 m 1x9980
 427 920 l 1
 537 920 l 1
 537 810 l 1
 427 810 l 1x9980
233 810 m 1x9c80
 233 920 l 1
 343 920 l 1
 343 810 l 1
 233 810 l 1x9c80
440 330 m 1xda80
 440 440 l 1
 660 440 l 1
 660 330 l 1
 440 330 l 1xda80
110 330 m 1
 110 440 l 1
 330 440 l 1
 330 330 l 1
 110 330 l 1
660 440 m 1
 660 770 l 1
 770 770 l 1
 770 440 l 1xb880
 660 440 l 1
330 0 m 1xda80
 330 330 l 1
 440 330 l 1
 440 0 l 1
 330 0 l 1xda80
-0 440 m 1xb880
 0 770 l 1
 110 770 l 1xb880
 110 440 l 1xd880
 -0 440 l 1xb880
EndSplineSet
AlternateSubs2: "'salt' subtable - Accents" uniE057
EndChar

StartChar: Zcaron
Encoding: 381 381 149
Width: 880
VWidth: 1024
Flags: MW
HStem: 0 110<0 110 220 770> 220 110<220 330> 330 110<330 440> 440 110<440 550> 660 110<0 550 660 770> 810 110<330 440> 920 110<220 330 440 550>
VStem: 220 110<220 330 920 1030> 330 110<330 440 810 920> 440 110<440 550 920 1030>
LayerCount: 2
Fore
SplineSet
440 920 m 1x8c80
 440 1030 l 1
 550 1030 l 1
 550 920 l 1x8a40
 440 920 l 1x8c80
330 810 m 1x8c80
 330 920 l 1x8d
 440 920 l 1
 440 810 l 1
 330 810 l 1x8c80
220 920 m 1x8b
 220 1030 l 1
 330 1030 l 1x8b
 330 920 l 1x8d
 220 920 l 1x8b
440 440 m 1xa880
 440 550 l 1
 550 550 l 1
 550 440 l 1x9840
 440 440 l 1xa880
330 330 m 1xc9
 330 440 l 1
 440 440 l 1
 440 330 l 1xa880
 330 330 l 1xc9
220 220 m 1xc9
 220 330 l 1
 330 330 l 1
 330 220 l 1
 220 220 l 1xc9
0 0 m 1
 0 110 l 1
 110 110 l 1
 110 220 l 1
 220 220 l 1
 220 110 l 1
 770 110 l 1
 770 0 l 1
 0 0 l 1
0 660 m 1
 0 770 l 1
 770 770 l 1
 770 660 l 1
 660 660 l 1
 660 550 l 1
 550 550 l 1
 550 660 l 1x9840
 0 660 l 1
EndSplineSet
AlternateSubs2: "'salt' subtable - Accents" uniE058
EndChar

StartChar: zcaron
Encoding: 382 382 150
Width: 660
VWidth: 1024
Flags: W
HStem: 0 110<0 110 220 550> 220 110<220 330> 440 110<0 330 440 550> 605 110<220 330> 715 110<110 220 330 440>
VStem: 110 110<110 220 715 825> 220 110<220 330 605 715> 330 110<330 440 715 825>
LayerCount: 2
Fore
SplineSet
330 715 m 1xf2
 330 825 l 1
 440 825 l 1
 440 715 l 1xe9
 330 715 l 1xf2
220 605 m 1xf2
 220 715 l 1xf4
 330 715 l 1
 330 605 l 1
 220 605 l 1xf2
110 715 m 1xec
 110 825 l 1
 220 825 l 1xec
 220 715 l 1xf4
 110 715 l 1xec
220 220 m 1
 220 330 l 1
 330 330 l 1
 330 220 l 1xe2
 220 220 l 1
0 0 m 1
 0 110 l 1
 110 110 l 1
 110 220 l 1
 220 220 l 1
 220 110 l 1xe4
 550 110 l 1
 550 0 l 1
 0 0 l 1
0 440 m 1
 0 550 l 1
 550 550 l 1
 550 440 l 1
 440 440 l 1
 440 330 l 1xe1
 330 330 l 1xe2
 330 440 l 1xe1
 0 440 l 1
EndSplineSet
EndChar

StartChar: germandbls
Encoding: 223 223 151
Width: 880
Flags: W
HStem: 0 110<330 660> 330 110<330 660> 660 110<110 660>
VStem: 0 110<0 660> 660 110<110 330 440 660>
CounterMasks: 1 e0
LayerCount: 2
Fore
SplineSet
0 0 m 1
 0 770 l 1
 770 770 l 1
 770 0 l 1
 330 0 l 9
 330 110 l 17
 660 110 l 1
 660 330 l 1
 330 330 l 9
 330 440 l 17
 660 440 l 1
 660 660 l 1
 110 660 l 1
 110 0 l 1
 0 0 l 1
EndSplineSet
AlternateSubs2: "'salt' subtable - Accents" uniE059
EndChar

StartChar: divide
Encoding: 247 247 152
Width: 660
VWidth: 1024
Flags: W
HStem: 55 110<220 330> 220 110<0 550> 385 110<220 330>
VStem: 220 110<55 165 385 495>
CounterMasks: 1 e0
LayerCount: 2
Fore
SplineSet
220 385 m 1
 220 495 l 1
 330 495 l 1
 330 385 l 1
 220 385 l 1
220 55 m 1
 220 165 l 1
 330 165 l 1
 330 55 l 1
 220 55 l 1
0 220 m 1
 0 330 l 1
 550 330 l 1
 550 220 l 1
 0 220 l 1
EndSplineSet
EndChar

StartChar: Ntilde
Encoding: 209 209 153
Width: 880
VWidth: 1024
Flags: W
HStem: 0 21G<0 110 660 770> 220 110<440 550> 330 110<330 440> 440 110<220 330> 750 20G<0 110 660 770> 810 110<165 275 385 495> 920 110<275 385 495 605>
VStem: 0 110<0 550 660 770> 165 110<810 920> 220 110<440 550> 275 110<920 1030> 330 110<330 440> 385 110<810 920> 440 110<220 330> 495 110<920 1030> 660 110<0 110 220 770>
LayerCount: 2
Fore
SplineSet
495 920 m 1x8d09
 495 1030 l 1
 605 1030 l 1
 605 920 l 1x8b03
 495 920 l 1x8d09
385 810 m 1x8d09
 385 920 l 1x8d21
 495 920 l 1
 495 810 l 1
 385 810 l 1x8d09
275 920 m 1x8d81
 275 1030 l 1
 385 1030 l 1x8b21
 385 920 l 1x8d21
 275 920 l 1x8d81
165 810 m 1x8d81
 165 920 l 1
 275 920 l 1
 275 810 l 1
 165 810 l 1x8d81
220 440 m 1x9941
 220 550 l 1
 330 550 l 1x9941
 330 440 l 1xa941
 220 440 l 1x9941
330 330 m 1xa911
 330 440 l 1xa941
 440 440 l 1xa911
 440 330 l 1xc911
 330 330 l 1xa911
440 220 m 1xc905
 440 330 l 1xc911
 550 330 l 1
 550 220 l 1
 440 220 l 1xc905
550 110 m 1xc905
 550 220 l 1
 660 220 l 1
 660 770 l 1
 770 770 l 1
 770 0 l 1
 660 0 l 1
 660 110 l 1
 550 110 l 1xc905
0 0 m 1
 0 770 l 1
 110 770 l 1
 110 660 l 1
 220 660 l 1
 220 550 l 1
 110 550 l 1x9941
 110 0 l 1
 0 0 l 1
EndSplineSet
AlternateSubs2: "'salt' subtable - Accents" uniE04B
EndChar

StartChar: Agrave
Encoding: 192 192 154
Width: 880
VWidth: 1024
Flags: W
HStem: 0 21G<0 110 660 770> 330 110<110 660> 660 110<110 660> 810 110<385 495> 920 110<275 385>
VStem: 0 110<0 330 440 660> 275 110<920 1030> 385 110<810 920> 660 110<0 330 440 660>
LayerCount: 2
Fore
SplineSet
275 920 m 1xee80
 275 1030 l 1
 385 1030 l 1xee80
 385 920 l 1xf680
 275 920 l 1xee80
385 810 m 1xf580
 385 920 l 1xf680
 495 920 l 1
 495 810 l 1
 385 810 l 1xf580
110 440 m 1
 660 440 l 1
 660 660 l 1
 110 660 l 1
 110 440 l 1
0 0 m 25
 0 770 l 1
 770 770 l 25
 770 0 l 25
 660 0 l 25
 660 330 l 25
 110 330 l 25
 110 0 l 25
 0 0 l 25
EndSplineSet
AlternateSubs2: "'salt' subtable - Accents" uniE040
EndChar

StartChar: Aacute
Encoding: 193 193 155
Width: 880
VWidth: 1024
Flags: W
HStem: 0 21G<0 110 660 770> 330 110<110 660> 660 110<110 660> 810 110<275 385> 920 110<385 495>
VStem: 0 110<0 330 440 660> 275 110<810 920> 385 110<920 1030> 660 110<0 330 440 660>
LayerCount: 2
Fore
SplineSet
385 920 m 1xf680
 385 1030 l 1
 495 1030 l 1
 495 920 l 1xed80
 385 920 l 1xf680
275 810 m 1xf680
 275 920 l 1
 385 920 l 1
 385 810 l 1
 275 810 l 1xf680
110 440 m 1
 660 440 l 1
 660 660 l 1
 110 660 l 1
 110 440 l 1
0 0 m 25
 0 770 l 1
 770 770 l 25
 770 0 l 25
 660 0 l 25
 660 330 l 25
 110 330 l 25
 110 0 l 25
 0 0 l 25
EndSplineSet
AlternateSubs2: "'salt' subtable - Accents" uniE041
EndChar

StartChar: Acircumflex
Encoding: 194 194 156
Width: 880
VWidth: 1024
Flags: W
HStem: 0 21G<0 110 660 770> 330 110<110 660> 660 110<110 660> 810 110<153 263 507 617> 920 110<263 373 397 507>
VStem: 0 110<0 330 440 660> 153 110<810 920> 263 110<920 1030> 397 110<920 1030> 507 110<810 920> 660 110<0 330 440 660>
LayerCount: 2
Fore
SplineSet
397 920 m 1xeca0
 397 1030 l 1
 507 1030 l 1xeca0
 507 920 l 1xf4a0
 397 920 l 1xeca0
507 810 m 1xf460
 507 920 l 1xf4a0
 617 920 l 1
 617 810 l 1
 507 810 l 1xf460
263 920 m 1xf620
 263 1030 l 1
 373 1030 l 1
 373 920 l 1xed20
 263 920 l 1xf620
153 810 m 1xf620
 153 920 l 1
 263 920 l 1
 263 810 l 1
 153 810 l 1xf620
110 440 m 1
 660 440 l 1
 660 660 l 1
 110 660 l 1
 110 440 l 1
0 0 m 25
 0 770 l 1
 770 770 l 25
 770 0 l 25
 660 0 l 25
 660 330 l 25
 110 330 l 25
 110 0 l 25
 0 0 l 25
EndSplineSet
AlternateSubs2: "'salt' subtable - Accents" uniE042
EndChar

StartChar: Atilde
Encoding: 195 195 157
Width: 880
VWidth: 1024
Flags: W
HStem: 0 21G<0 110 660 770> 330 110<110 660> 660 110<110 660> 810 110<165 275 385 495> 920 110<275 385 495 605>
VStem: 0 110<0 330 440 660> 165 110<810 920> 275 110<920 1030> 385 110<810 920> 495 110<920 1030> 660 110<0 330 440 660>
LayerCount: 2
Fore
SplineSet
495 920 m 1xf4a0
 495 1030 l 1
 605 1030 l 1
 605 920 l 1xec60
 495 920 l 1xf4a0
385 810 m 1xf4a0
 385 920 l 1xf520
 495 920 l 1
 495 810 l 1
 385 810 l 1xf4a0
275 920 m 1xf620
 275 1030 l 1
 385 1030 l 1xed20
 385 920 l 1xf520
 275 920 l 1xf620
165 810 m 1xf620
 165 920 l 1
 275 920 l 1
 275 810 l 1
 165 810 l 1xf620
110 440 m 1
 660 440 l 1
 660 660 l 1
 110 660 l 1
 110 440 l 1
0 0 m 25
 0 770 l 1
 770 770 l 25
 770 0 l 25
 660 0 l 25
 660 330 l 25
 110 330 l 25
 110 0 l 25
 0 0 l 25
EndSplineSet
AlternateSubs2: "'salt' subtable - Accents" uniE043
EndChar

StartChar: Adieresis
Encoding: 196 196 158
Width: 880
VWidth: 1024
Flags: W
HStem: 0 21G<0 110 660 770> 330 110<110 660> 660 110<110 660> 810 110<233 343 427 537>
VStem: 0 110<0 330 440 660> 233 110<810 920> 427 110<810 920> 660 110<0 330 440 660>
LayerCount: 2
Fore
SplineSet
427 810 m 1
 427 920 l 1
 537 920 l 1
 537 810 l 1
 427 810 l 1
233 810 m 1
 233 920 l 1
 343 920 l 1
 343 810 l 1
 233 810 l 1
110 440 m 1
 660 440 l 1
 660 660 l 1
 110 660 l 1
 110 440 l 1
0 0 m 25
 0 770 l 1
 770 770 l 25
 770 0 l 25
 660 0 l 25
 660 330 l 25
 110 330 l 25
 110 0 l 25
 0 0 l 25
EndSplineSet
AlternateSubs2: "'salt' subtable - Accents" uniE044
EndChar

StartChar: Aring
Encoding: 197 197 159
Width: 880
VWidth: 1024
Flags: W
HStem: 0 21G<0 110 660 770> 330 110<110 660> 660 110<110 660> 810 110<330 440> 920 110<220 330 440 550> 1030 110<330 440>
VStem: 0 110<0 330 440 660> 220 110<920 1030> 330 110<810 920 1030 1140> 440 110<920 1030> 660 110<0 330 440 660>
LayerCount: 2
Fore
SplineSet
330 1030 m 1xeb20
 330 1140 l 1
 440 1140 l 1xe6a0
 440 1030 l 1xeaa0
 330 1030 l 1xeb20
440 920 m 1xf2a0
 440 1030 l 1xeaa0
 550 1030 l 1
 550 920 l 1xea60
 440 920 l 1xf2a0
330 810 m 1xf2a0
 330 920 l 1xf320
 440 920 l 1
 440 810 l 1
 330 810 l 1xf2a0
220 920 m 1xeb20
 220 1030 l 1
 330 1030 l 1xeb20
 330 920 l 1xf320
 220 920 l 1xeb20
110 440 m 1
 660 440 l 1
 660 660 l 1
 110 660 l 1
 110 440 l 1
0 0 m 25
 0 770 l 1
 770 770 l 25
 770 0 l 25
 660 0 l 25
 660 330 l 25
 110 330 l 25
 110 0 l 25
 0 0 l 25
EndSplineSet
AlternateSubs2: "'salt' subtable - Accents" uniE045
EndChar

StartChar: igrave
Encoding: 236 236 160
Width: 330
VWidth: 1024
Flags: W
HStem: 0 21G<110 220> 440 110<0 110> 605 110<110 220> 715 110<0 110>
VStem: 0 110<715 825> 110 110<0 440 605 715>
LayerCount: 2
Fore
SplineSet
0 715 m 1xd8
 0 825 l 1
 110 825 l 1xd8
 110 715 l 1xe8
 0 715 l 1xd8
110 605 m 1xe4
 110 715 l 1xe8
 220 715 l 1
 220 605 l 1
 110 605 l 1xe4
-0 440 m 1
 -0 550 l 1xc8
 220 550 l 1
 220 0 l 1
 110 0 l 1
 110 440 l 1xc4
 -0 440 l 1
EndSplineSet
EndChar

StartChar: iacute
Encoding: 237 237 161
Width: 330
VWidth: 1024
Flags: W
HStem: 0 21G<110 220> 440 110<0 110> 605 110<0 110> 715 110<110 220>
VStem: 0 110<605 715> 110 110<0 440 715 825>
LayerCount: 2
Fore
SplineSet
110 715 m 1xe8
 110 825 l 1
 220 825 l 1
 220 715 l 1xd4
 110 715 l 1xe8
0 605 m 1xe8
 0 715 l 1
 110 715 l 1
 110 605 l 1
 0 605 l 1xe8
-0 440 m 1
 -0 550 l 1xc8
 220 550 l 1
 220 0 l 1
 110 0 l 1
 110 440 l 1xc4
 -0 440 l 1
EndSplineSet
EndChar

StartChar: Igrave
Encoding: 204 204 162
Width: 330
VWidth: 1024
Flags: W
HStem: 0 21G<55 165> 750 20G<55 165> 810 110<110 220> 920 110<0 110>
VStem: 0 110<920 1030> 55 110<0 770> 110 110<810 920>
LayerCount: 2
Fore
SplineSet
0 920 m 1xd8
 0 1030 l 1
 110 1030 l 1xd8
 110 920 l 1xe8
 0 920 l 1xd8
110 810 m 1xe2
 110 920 l 1xe8
 220 920 l 1
 220 810 l 1
 110 810 l 1xe2
55 0 m 1xc4
 55 770 l 1
 165 770 l 1
 165 0 l 1
 55 0 l 1xc4
EndSplineSet
EndChar

StartChar: Iacute
Encoding: 205 205 163
Width: 330
VWidth: 1024
Flags: W
HStem: 0 21G<55 165> 750 20G<55 165> 810 110<0 110> 920 110<110 220>
VStem: 0 110<810 920> 55 110<0 770> 110 110<920 1030>
LayerCount: 2
Fore
SplineSet
110 920 m 1xe8
 110 1030 l 1
 220 1030 l 1
 220 920 l 1xd2
 110 920 l 1xe8
0 810 m 1xe8
 0 920 l 1
 110 920 l 1
 110 810 l 1
 0 810 l 1xe8
55 0 m 1xc4
 55 770 l 1
 165 770 l 1
 165 0 l 1
 55 0 l 1xc4
EndSplineSet
EndChar

StartChar: eth
Encoding: 240 240 164
Width: 770
VWidth: 1024
Flags: W
HStem: 0 110<110 440> 220 110<330 440 550 660> 440 110<110 440> 750 20G<440 550>
VStem: 0 110<110 440> 440 110<110 220 330 440 550 770>
LayerCount: 2
Fore
SplineSet
0 0 m 1
 0 550 l 1
 440 550 l 1
 440 770 l 1
 550 770 l 1
 550 330 l 1
 660 330 l 1
 660 220 l 1
 550 220 l 1
 550 0 l 1
 0 0 l 1
110 110 m 1
 440 110 l 1
 440 220 l 1
 330 220 l 1
 330 330 l 1
 440 330 l 1
 440 440 l 1
 110 440 l 1
 110 110 l 1
EndSplineSet
EndChar

StartChar: Eth
Encoding: 208 208 165
Width: 880
Flags: W
HStem: 0 110<220 660> 330 110<0 110 220 330> 660 110<220 660>
VStem: 110 110<110 330 440 660> 660 110<110 660>
CounterMasks: 1 e0
LayerCount: 2
Fore
SplineSet
220 110 m 1
 660 110 l 1
 660 660 l 1
 220 660 l 1
 220 440 l 1
 330 440 l 1
 330 330 l 1
 220 330 l 1
 220 110 l 1
0 330 m 1
 0 440 l 1
 110 440 l 1
 110 770 l 1
 770 770 l 1
 770 0 l 1
 110 0 l 1
 110 330 l 1
 0 330 l 1
EndSplineSet
EndChar

StartChar: Icircumflex
Encoding: 206 206 166
Width: 574
VWidth: 1024
Flags: W
HStem: 0 21G<177 287> 750 20G<177 287> 810 110<0 110 354 464> 920 110<110 220 244 354>
VStem: 0 110<810 920> 110 110<920 1030> 177 110<0 770> 244 110<920 1030> 354 110<810 920>
LayerCount: 2
Fore
SplineSet
244 920 m 1xd1
 244 1030 l 1
 354 1030 l 1xd1
 354 920 l 1xe1
 244 920 l 1xd1
354 810 m 1xe080
 354 920 l 1xe1
 464 920 l 1
 464 810 l 1
 354 810 l 1xe080
110 920 m 1xe8
 110 1030 l 1
 220 1030 l 1
 220 920 l 1xd4
 110 920 l 1xe8
0 810 m 1xe8
 0 920 l 1
 110 920 l 1
 110 810 l 1
 0 810 l 1xe8
177 0 m 1xc2
 177 770 l 1
 287 770 l 1
 287 0 l 1
 177 0 l 1xc2
EndSplineSet
EndChar

StartChar: Idieresis
Encoding: 207 207 167
Width: 386
VWidth: 1024
Flags: W
HStem: 0 21G<83 193> 750 20G<83 193> 810 110<0 110 166 276>
VStem: 0 110<810 920> 83 110<0 770> 166 110<810 920>
LayerCount: 2
Fore
SplineSet
166 810 m 1xe4
 166 920 l 1
 276 920 l 1
 276 810 l 1
 166 810 l 1xe4
0 810 m 1xf0
 0 920 l 1
 110 920 l 1
 110 810 l 1
 0 810 l 1xf0
83 0 m 1xe8
 83 770 l 1
 193 770 l 1
 193 0 l 1
 83 0 l 1xe8
EndSplineSet
EndChar

StartChar: icircumflex
Encoding: 238 238 168
Width: 574
VWidth: 1024
Flags: W
HStem: 0 21G<232 342> 440 110<122 232> 605 110<0 110 354 464> 715 110<110 220 244 354>
VStem: 0 110<605 715> 110 110<715 825> 232 110<0 440> 244 110<715 825> 354 110<605 715>
LayerCount: 2
Fore
SplineSet
244 715 m 1xd1
 244 825 l 1
 354 825 l 1xd1
 354 715 l 1xe1
 244 715 l 1xd1
354 605 m 1xe080
 354 715 l 1xe1
 464 715 l 1
 464 605 l 1
 354 605 l 1xe080
110 715 m 1xe8
 110 825 l 1
 220 825 l 1
 220 715 l 1xd4
 110 715 l 1xe8
0 605 m 1xe8
 0 715 l 1
 110 715 l 1
 110 605 l 1
 0 605 l 1xe8
122 440 m 1
 122 550 l 1
 342 550 l 1
 342 0 l 1
 232 0 l 1
 232 440 l 1xc2
 122 440 l 1
EndSplineSet
EndChar

StartChar: idieresis
Encoding: 239 239 169
Width: 386
VWidth: 1024
Flags: W
HStem: 0 21G<138 248> 440 110<28 138> 605 110<0 110 166 276>
VStem: 0 110<605 715> 138 110<0 440> 166 110<605 715>
LayerCount: 2
Fore
SplineSet
166 605 m 1xf4
 166 715 l 1
 276 715 l 1
 276 605 l 1
 166 605 l 1xf4
0 605 m 1
 0 715 l 1
 110 715 l 1
 110 605 l 1
 0 605 l 1
28 440 m 1
 28 550 l 1
 248 550 l 1
 248 0 l 1
 138 0 l 1
 138 440 l 1xf8
 28 440 l 1
EndSplineSet
EndChar

StartChar: quoteright
Encoding: 8217 8217 170
Width: 220
VWidth: 1024
Flags: W
HStem: 550 220<0 110>
VStem: 0 110<550 770>
LayerCount: 2
Fore
SplineSet
0 550 m 1
 0 770 l 1
 110 770 l 1
 110 550 l 1
 0 550 l 1
EndSplineSet
EndChar

StartChar: guilsinglleft
Encoding: 8249 8249 171
Width: 550
VWidth: 1024
Flags: W
HStem: 220 110<220 330> 330 110<110 220> 440 110<220 330>
VStem: 110 110<330 440> 220 110<220 330 440 550>
LayerCount: 2
Fore
SplineSet
220 220 m 1x88
 220 330 l 1x90
 330 330 l 1
 330 220 l 1
 220 220 l 1x88
220 440 m 1x50
 220 550 l 1
 330 550 l 1
 330 440 l 1x28
 220 440 l 1x50
110 330 m 1x50
 110 440 l 1
 220 440 l 1x50
 220 330 l 1x90
 110 330 l 1x50
EndSplineSet
EndChar

StartChar: guilsinglright
Encoding: 8250 8250 172
Width: 550
VWidth: 1024
Flags: W
HStem: 220 110<110 220> 330 110<220 330> 440 110<110 220>
VStem: 110 110<220 330 440 550> 220 110<330 440>
LayerCount: 2
Fore
SplineSet
110 220 m 1x90
 110 330 l 1
 220 330 l 1
 220 220 l 1
 110 220 l 1x90
110 440 m 1x30
 110 550 l 1
 220 550 l 1x30
 220 440 l 1x50
 110 440 l 1x30
220 330 m 1x90
 220 440 l 1x50
 330 440 l 1
 330 330 l 1x48
 220 330 l 1x90
EndSplineSet
EndChar

StartChar: trademark
Encoding: 8482 8482 173
Width: 500
Flags: W
HStem: 550 21G<23 62 207 246 334 373 461 500> 800 43<-90 23 62 178 246 334 373 461>
VStem: 23 39<550 800> 207 39<550 800> 334 39<550 800> 461 39<550 800>
LayerCount: 2
Fore
SplineSet
207 550 m 1
 207 843 l 1
 500 843 l 1
 500 550 l 1
 461 550 l 1
 461 800 l 1
 373 800 l 1
 373 550 l 1
 334 550 l 1
 334 800 l 1
 246 800 l 1
 246 550 l 1
 207 550 l 1
-90 800 m 1
 -90 843 l 1
 178 843 l 1
 178 800 l 1
 62 800 l 1
 62 550 l 1
 23 550 l 1
 23 800 l 1
 -90 800 l 1
EndSplineSet
AlternateSubs2: "'salt' subtable - Various" uniE06C
EndChar

StartChar: degree
Encoding: 176 176 174
Width: 550
VWidth: 1024
Flags: W
HStem: 330 110<110 330> 660 110<110 330>
VStem: 0 110<440 660> 330 110<440 660>
LayerCount: 2
Fore
SplineSet
110 440 m 1
 330 440 l 1
 330 660 l 1
 110 660 l 1
 110 440 l 1
0 330 m 1
 0 770 l 1
 440 770 l 1
 440 330 l 17
 0 330 l 1
EndSplineSet
EndChar

StartChar: uniE000
Encoding: 57344 57344 175
Width: 660
VWidth: 1024
Flags: W
HStem: 0 21G<0 110 440 550> 0 21G<0 110 440 550> 330 110<110 440> 660 110<110 440>
VStem: 0 110<0 330 440 660> 440 110<0 330 440 660>
LayerCount: 2
Fore
SplineSet
110 440 m 1x3c
 440 440 l 1
 440 660 l 1
 110 660 l 1
 110 440 l 1x3c
0 0 m 25xbc
 0 770 l 1
 550 770 l 25
 550 0 l 25
 440 0 l 25
 440 330 l 25
 110 330 l 25
 110 0 l 25
 0 0 l 25xbc
EndSplineSet
Validated: 1
EndChar

StartChar: uniE001
Encoding: 57345 57345 176
Width: 660
Flags: W
HStem: 0 110<110 440> 330 110<110 330> 660 110<110 330>
VStem: 0 110<110 330 440 660> 330 110<440 660> 440 110<110 330>
CounterMasks: 1 e0
LayerCount: 2
Fore
SplineSet
0 0 m 1xf4
 0 770 l 1
 440 770 l 1xf4
 440 440 l 9xf8
 550 440 l 17
 550 0 l 1
 0 0 l 1xf4
110 440 m 17
 330 440 l 1
 330 660 l 1xf8
 110 660 l 9
 110 440 l 17
110 110 m 1
 440 110 l 9
 440 330 l 17xf4
 110 330 l 1
 110 110 l 1
EndSplineSet
EndChar

StartChar: uniE002
Encoding: 57346 57346 177
Width: 660
Flags: W
HStem: 0 110<110 550> 660 110<110 550>
VStem: 0 110<110 660>
LayerCount: 2
Fore
SplineSet
0 0 m 1
 0 770 l 1
 550 770 l 1
 550 660 l 1
 110 660 l 1
 110 110 l 1
 550 110 l 1
 550 0 l 1
 0 0 l 1
EndSplineSet
Validated: 1
EndChar

StartChar: uniE003
Encoding: 57347 57347 178
Width: 660
Flags: W
HStem: 0 110<110 440> 660 110<110 440>
VStem: 0 110<110 660> 440 110<110 660>
LayerCount: 2
Fore
SplineSet
110 110 m 1
 440 110 l 1
 440 660 l 1
 110 660 l 1
 110 110 l 1
0 0 m 1
 0 770 l 1
 550 770 l 1
 550 0 l 1
 0 0 l 1
EndSplineSet
Validated: 1
EndChar

StartChar: uniE004
Encoding: 57348 57348 179
Width: 660
Flags: W
HStem: 0 110<110 550> 330 110<110 440> 660 110<110 550>
VStem: 0 110<110 330 440 660>
CounterMasks: 1 e0
LayerCount: 2
Fore
SplineSet
0 0 m 1
 0 770 l 1
 550 770 l 1
 550 660 l 1
 110 660 l 1
 110 440 l 1
 440 440 l 1
 440 330 l 1
 110 330 l 1
 110 110 l 1
 550 110 l 1
 550 0 l 1
 0 0 l 1
EndSplineSet
Validated: 1
EndChar

StartChar: uniE005
Encoding: 57349 57349 180
Width: 660
Flags: W
HStem: 0 21G<0 110> 330 110<110 440> 660 110<110 550>
VStem: 0 110<0 330 440 660>
LayerCount: 2
Fore
SplineSet
0 0 m 1
 0 770 l 1
 550 770 l 1
 550 660 l 1
 110 660 l 1
 110 440 l 1
 440 440 l 1
 440 330 l 1
 110 330 l 1
 110 0 l 1
 0 0 l 1
EndSplineSet
EndChar

StartChar: uniE006
Encoding: 57350 57350 181
Width: 660
Flags: W
HStem: 0 110<110 440> 330 110<220 440> 660 110<110 550>
VStem: 0 110<110 660> 440 110<110 330>
CounterMasks: 1 e0
LayerCount: 2
Fore
SplineSet
0 0 m 1
 0 770 l 1
 550 770 l 1
 550 660 l 9
 110 660 l 17
 110 110 l 1
 440 110 l 1
 440 330 l 1
 220 330 l 1
 220 440 l 1
 550 440 l 1
 550 0 l 1
 0 0 l 1
EndSplineSet
EndChar

StartChar: uniE007
Encoding: 57351 57351 182
Width: 660
Flags: W
HStem: 0 21G<0 110 440 550> 330 110<110 440> 750 20G<0 110 440 550>
VStem: 0 110<0 330 440 770> 440 110<0 330 440 770>
LayerCount: 2
Fore
SplineSet
0 0 m 1
 0 770 l 1
 110 770 l 1
 110 440 l 1
 440 440 l 1
 440 770 l 1
 550 770 l 1
 550 -0 l 1
 440 0 l 1
 440 330 l 1
 110 330 l 1
 110 0 l 1
 0 0 l 1
EndSplineSet
EndChar

StartChar: uniE008
Encoding: 57352 57352 183
Width: 220
VWidth: 1024
Flags: W
HStem: 0 21G<0 110> 0 21G<0 110> 750 20G<0 110>
VStem: 0 110<0 770>
LayerCount: 2
Fore
SplineSet
0 0 m 1xb0
 -0 770 l 1
 110 770 l 1
 110 0 l 1
 0 0 l 1xb0
EndSplineSet
Validated: 1
EndChar

StartChar: uniE009
Encoding: 57353 57353 184
Width: 550
Flags: W
HStem: 0 110<110 330> 750 20G<330 440>
VStem: 0 110<110 330> 330 110<110 770>
LayerCount: 2
Fore
SplineSet
0 0 m 1
 0 330 l 1
 110 330 l 1
 110 110 l 1
 330 110 l 1
 330 770 l 1
 440 770 l 1
 440 0 l 1
 0 0 l 1
EndSplineSet
EndChar

StartChar: uniE00A
Encoding: 57354 57354 185
Width: 660
Flags: MW
HStem: 0 21G<0 110 440 550> 220 110<330 440> 440 110<330 440> 750 20G<0 110 440 550>
VStem: 0 110<0 330 440 770> 330 110<220 330 440 550> 440 110<0 220 550 770>
LayerCount: 2
Fore
SplineSet
440 550 m 1xfc
 440 770 l 1
 550 770 l 1
 550 550 l 1xfa
 440 550 l 1xfc
330 440 m 1xfc
 330 550 l 1
 440 550 l 1
 440 440 l 1
 330 440 l 1xfc
330 220 m 1
 330 330 l 1
 440 330 l 1
 440 220 l 1
 330 220 l 1
440 0 m 1xfa
 440 220 l 1xfc
 550 220 l 1
 550 0 l 1
 440 0 l 1xfa
0 0 m 1
 0 770 l 1
 110 770 l 1
 110 440 l 1
 330 440 l 1
 330 330 l 1
 110 330 l 1
 110 0 l 1
 0 0 l 1
EndSplineSet
EndChar

StartChar: uniE00B
Encoding: 57355 57355 186
Width: 550
Flags: W
HStem: 0 110<110 440> 750 20G<0 110>
VStem: 0 110<110 770>
LayerCount: 2
Fore
SplineSet
0 0 m 1
 0 770 l 1
 110 770 l 1
 110 110 l 9
 440 110 l 17
 440 0 l 1
 0 0 l 1
EndSplineSet
Validated: 1
EndChar

StartChar: uniE00C
Encoding: 57356 57356 187
Width: 770
Flags: W
HStem: 0 21G<0 110 275 385 550 660> 660 110<110 275 385 550>
VStem: 0 110<0 660> 275 110<0 660> 550 110<0 660>
CounterMasks: 1 38
LayerCount: 2
Fore
SplineSet
0 0 m 1
 0 770 l 1
 660 770 l 1
 660 0 l 1
 550 0 l 1
 550 660 l 1
 385 660 l 1
 385 0 l 1
 275 0 l 1
 275 660 l 1
 110 660 l 1
 110 0 l 1
 0 0 l 1
EndSplineSet
EndChar

StartChar: uniE00D
Encoding: 57357 57357 188
Width: 660
Flags: W
HStem: 0 21G<0 110 440 550> 660 110<110 440>
VStem: 0 110<0 660> 440 110<0 660>
LayerCount: 2
Fore
SplineSet
0 0 m 1
 0 770 l 1
 550 770 l 1
 550 0 l 1
 440 0 l 1
 440 660 l 1
 110 660 l 1
 110 0 l 1
 0 0 l 1
EndSplineSet
Validated: 1
EndChar

StartChar: uniE00E
Encoding: 57358 57358 189
Width: 770
Flags: W
HStem: 0 110<110 550> 660 110<110 550>
VStem: 0 110<110 660> 550 110<110 660>
LayerCount: 2
Fore
SplineSet
110 110 m 1
 550 110 l 1
 550 660 l 1
 110 660 l 1
 110 110 l 1
0 0 m 1
 0 770 l 1
 660 770 l 1
 660 0 l 17
 0 0 l 1
EndSplineSet
Validated: 1
EndChar

StartChar: uniE00F
Encoding: 57359 57359 190
Width: 660
VWidth: 1024
Flags: W
HStem: 0 21G<0 110> 220 110<110 440> 660 110<110 440>
VStem: 0 110<0 220 330 660> 440 110<330 660>
LayerCount: 2
Fore
SplineSet
110 330 m 1
 440 330 l 1
 440 660 l 1
 110 660 l 1
 110 330 l 1
0 0 m 1
 0 770 l 1
 550 770 l 1
 550 220 l 1
 110 220 l 1
 110 0 l 1
 0 0 l 1
EndSplineSet
Validated: 1
EndChar

StartChar: uniE010
Encoding: 57360 57360 191
Width: 770
Flags: W
HStem: 0 110<110 330 440 550> 660 110<110 550>
VStem: 0 110<110 660> 330 110<110 330> 550 110<110 660>
LayerCount: 2
Fore
SplineSet
110 110 m 1
 330 110 l 9
 330 330 l 25
 440 330 l 25
 440 110 l 17
 550 110 l 1
 550 660 l 1
 110 660 l 1
 110 110 l 1
0 0 m 1
 0 770 l 1
 660 770 l 1
 660 0 l 17
 0 0 l 1
EndSplineSet
EndChar

StartChar: uniE011
Encoding: 57361 57361 192
Width: 660
Flags: W
HStem: 0 21G<0 110 440 550> 330 110<110 330> 660 110<110 330>
VStem: 0 110<0 330 440 660> 330 110<440 660> 440 110<0 330>
LayerCount: 2
Fore
SplineSet
0 0 m 1xf4
 0 770 l 1
 440 770 l 1xf4
 440 440 l 9xf8
 550 440 l 17
 550 0 l 1
 440 0 l 1
 440 330 l 1
 110 330 l 1
 110 0 l 1
 0 0 l 1xf4
110 440 m 17
 330 440 l 1
 330 660 l 1xf8
 110 660 l 9
 110 440 l 17
EndSplineSet
EndChar

StartChar: uniE012
Encoding: 57362 57362 193
Width: 660
Flags: W
HStem: 0 110<0 440> 330 110<110 440> 660 110<110 550>
VStem: 0 110<440 660> 440 110<110 330>
CounterMasks: 1 e0
LayerCount: 2
Fore
SplineSet
0 0 m 1
 0 110 l 1
 440 110 l 1
 440 330 l 1
 0 330 l 1
 0 770 l 1
 550 770 l 1
 550 660 l 1
 110 660 l 1
 110 440 l 1
 550 440 l 1
 550 0 l 1
 0 0 l 1
EndSplineSet
Validated: 1
EndChar

StartChar: uniE013
Encoding: 57363 57363 194
Width: 660
Flags: W
HStem: 0 21G<220 330> 660 110<0 220 330 550>
VStem: 220 110<0 660>
LayerCount: 2
Fore
SplineSet
0 660 m 1
 0 770 l 1
 550 770 l 1
 550 660 l 1
 330 660 l 1
 330 0 l 1
 220 0 l 1
 220 660 l 1
 0 660 l 1
EndSplineSet
EndChar

StartChar: uniE014
Encoding: 57364 57364 195
Width: 660
Flags: W
HStem: 0 110<110 440> 750 20G<0 110 440 550>
VStem: 0 110<110 770> 440 110<110 770>
LayerCount: 2
Fore
SplineSet
0 0 m 1
 0 770 l 1
 110 770 l 1
 110 110 l 1
 440 110 l 1
 440 770 l 1
 550 770 l 1
 550 0 l 1
 0 0 l 1
EndSplineSet
Validated: 1
EndChar

StartChar: uniE015
Encoding: 57365 57365 196
Width: 660
VWidth: 1024
Flags: W
HStem: 0 110<220 330> 110 110<110 220 330 440> 750 20G<0 110 440 550>
VStem: 0 110<220 770> 110 110<110 220> 220 110<0 110> 330 110<110 220> 440 110<220 770>
LayerCount: 2
Fore
SplineSet
0 220 m 1x70
 0 770 l 1
 110 770 l 1
 110 220 l 1
 0 220 l 1x70
110 110 m 1x68
 110 220 l 1x70
 220 220 l 1x68
 220 110 l 1xa8
 110 110 l 1x68
440 220 m 1x62
 440 770 l 1
 550 770 l 1
 550 220 l 1x61
 440 220 l 1x62
330 110 m 1xa4
 330 220 l 1
 440 220 l 1
 440 110 l 1x62
 330 110 l 1xa4
220 0 m 1xa4
 220 110 l 1xa8
 330 110 l 1
 330 0 l 1
 220 0 l 1xa4
EndSplineSet
EndChar

StartChar: uniE016
Encoding: 57366 57366 197
Width: 770
Flags: W
HStem: 0 110<110 275 385 550> 750 20G<0 110 550 660>
VStem: 0 110<110 770> 275 110<110 660> 550 110<110 770>
CounterMasks: 1 38
LayerCount: 2
Fore
SplineSet
0 0 m 1
 0 770 l 1
 110 770 l 1
 110 110 l 1
 275 110 l 1
 275 660 l 1
 385 660 l 1
 385 110 l 1
 550 110 l 1
 550 770 l 1
 660 770 l 1
 660 0 l 1
 0 0 l 1
EndSplineSet
EndChar

StartChar: uniE017
Encoding: 57367 57367 198
Width: 660
Flags: W
HStem: 0 220<0 110 440 550> 220 110<110 220 330 440> 330 110<220 330> 440 110<110 220 330 440> 550 220<0 110 440 550>
VStem: 0 110<0 220 550 770> 110 110<220 330 440 550> 220 110<330 440> 330 110<220 330 440 550> 440 110<0 220 550 770>
LayerCount: 2
Fore
SplineSet
440 0 m 1x8040
 440 220 l 1x8080
 550 220 l 1
 550 0 l 1
 440 0 l 1x8040
330 220 m 1x4080
 330 330 l 1x41
 440 330 l 1x4080
 440 220 l 1x8080
 330 220 l 1x4080
0 550 m 1x0c
 0 770 l 1
 110 770 l 1x0c
 110 550 l 1x14
 0 550 l 1x0c
110 440 m 1x12
 110 550 l 1x14
 220 550 l 1x12
 220 440 l 1x22
 110 440 l 1x12
440 550 m 1x1080
 440 770 l 1
 550 770 l 1
 550 550 l 1x0840
 440 550 l 1x1080
330 440 m 1x21
 330 550 l 1
 440 550 l 1
 440 440 l 1x1080
 330 440 l 1x21
220 330 m 1x42
 220 440 l 1x22
 330 440 l 1x21
 330 330 l 1x41
 220 330 l 1x42
110 220 m 1x84
 110 330 l 1
 220 330 l 1
 220 220 l 1x42
 110 220 l 1x84
0 0 m 1x84
 0 220 l 1
 110 220 l 1
 110 0 l 1
 0 0 l 1x84
EndSplineSet
EndChar

StartChar: uniE018
Encoding: 57368 57368 199
Width: 660
Flags: W
HStem: 0 21G<220 330> 330 110<110 220 330 440> 750 20G<0 110 440 550>
VStem: 0 110<440 770> 220 110<0 330> 440 110<440 770>
CounterMasks: 1 1c
LayerCount: 2
Fore
SplineSet
0 330 m 1
 0 770 l 1
 110 770 l 1
 110 440 l 1
 440 440 l 1
 440 770 l 1
 550 770 l 9
 550 330 l 17
 330 330 l 1
 330 0 l 1
 220 0 l 1
 220 330 l 1
 0 330 l 1
EndSplineSet
EndChar

StartChar: uniE019
Encoding: 57369 57369 200
Width: 660
Flags: MW
HStem: 0 110<110 550> 220 110<110 220> 330 110<220 330> 440 110<330 440> 660 110<0 440>
VStem: 0 110<110 220> 110 110<220 330> 220 110<330 440> 330 110<440 550> 440 110<550 660>
LayerCount: 2
Fore
SplineSet
0 660 m 1x9c40
 0 770 l 1
 550 770 l 1
 550 550 l 1x9c40
 440 550 l 1x9880
 440 660 l 9
 0 660 l 1x9c40
330 440 m 1xa9
 330 550 l 1
 440 550 l 1
 440 440 l 1x9880
 330 440 l 1xa9
220 330 m 1xca
 220 440 l 1
 330 440 l 1
 330 330 l 1xa9
 220 330 l 1xca
110 220 m 1xcc
 110 330 l 1
 220 330 l 1
 220 220 l 1xca
 110 220 l 1xcc
0 0 m 1xcc40
 0 220 l 1
 110 220 l 1
 110 110 l 1
 550 110 l 17
 550 0 l 1
 0 0 l 1xcc40
EndSplineSet
EndChar

StartChar: uniE020
Encoding: 57376 57376 201
Width: 660
VWidth: 1024
Flags: W
HStem: 0 110<110 440> 440 110<110 440>
VStem: 0 110<110 440> 440 110<110 440>
LayerCount: 2
Fore
SplineSet
110 110 m 1
 440 110 l 1
 440 440 l 1
 110 440 l 1
 110 110 l 1
0 0 m 1
 0 550 l 1
 550 550 l 1
 550 0 l 17
 0 0 l 1
EndSplineSet
Validated: 1
EndChar

StartChar: uniE021
Encoding: 57377 57377 202
Width: 330
VWidth: 1024
Flags: W
HStem: 0 21G<110 220> 440 110<0 110>
VStem: 110 110<0 440>
LayerCount: 2
Fore
SplineSet
-0 440 m 1
 -0 550 l 1
 220 550 l 1
 220 0 l 1
 110 0 l 1
 110 440 l 1
 -0 440 l 1
EndSplineSet
Validated: 1
EndChar

StartChar: uniE022
Encoding: 57378 57378 203
Width: 660
VWidth: 1024
Flags: W
HStem: 0 110<110 550> 220 110<110 440> 440 110<0 440>
VStem: 0 110<110 220> 440 110<330 440>
CounterMasks: 1 e0
LayerCount: 2
Fore
SplineSet
0 0 m 1
 0 330 l 1
 440 330 l 1
 440 440 l 1
 0 440 l 1
 0 550 l 1
 550 550 l 1
 550 220 l 1
 110 220 l 1
 110 110 l 1
 550 110 l 1
 550 0 l 1
 0 0 l 1
EndSplineSet
Validated: 1
EndChar

StartChar: uniE023
Encoding: 57379 57379 204
Width: 660
Flags: W
HStem: 0 110<0 440> 220 110<110 440> 440 110<0 440>
VStem: 440 110<110 220 330 440>
CounterMasks: 1 e0
LayerCount: 2
Fore
SplineSet
0 0 m 1
 0 110 l 1
 440 110 l 1
 440 220 l 1
 110 220 l 1
 110 330 l 1
 440 330 l 1
 440 440 l 1
 0 440 l 1
 0 550 l 1
 550 550 l 1
 550 0 l 1
 0 0 l 1
EndSplineSet
Validated: 1
EndChar

StartChar: uniE024
Encoding: 57380 57380 205
Width: 660
Flags: W
HStem: 0 21G<440 550> 220 110<110 440> 530 20G<0 110 440 550>
VStem: 0 110<330 550> 440 110<0 220 330 550>
LayerCount: 2
Fore
SplineSet
0 220 m 1
 0 550 l 1
 110 550 l 1
 110 330 l 1
 440 330 l 1
 440 550 l 1
 550 550 l 1
 550 0 l 1
 440 0 l 1
 440 220 l 1
 0 220 l 1
EndSplineSet
Validated: 1
EndChar

StartChar: uniE025
Encoding: 57381 57381 206
Width: 660
VWidth: 1024
Flags: W
HStem: 0 110<0 440> 220 110<110 440> 440 110<110 550>
VStem: 0 110<330 440> 440 110<110 220>
CounterMasks: 1 e0
LayerCount: 2
Fore
SplineSet
0 0 m 1
 0 110 l 1
 440 110 l 1
 440 220 l 1
 0 220 l 1
 0 550 l 1
 550 550 l 1
 550 440 l 1
 110 440 l 1
 110 330 l 1
 550 330 l 1
 550 0 l 1
 0 0 l 1
EndSplineSet
Validated: 1
EndChar

StartChar: uniE026
Encoding: 57382 57382 207
Width: 660
Flags: W
HStem: 0 110<110 440> 220 110<110 440> 440 110<110 550>
VStem: 0 110<110 220 330 440> 440 110<110 220>
CounterMasks: 1 e0
LayerCount: 2
Fore
SplineSet
0 0 m 1
 0 550 l 1
 550 550 l 1
 550 440 l 1
 110 440 l 1
 110 330 l 1
 550 330 l 1
 550 0 l 1
 0 0 l 1
110 110 m 1
 440 110 l 1
 440 220 l 1
 110 220 l 1
 110 110 l 1
EndSplineSet
EndChar

StartChar: uniE027
Encoding: 57383 57383 208
Width: 660
Flags: W
HStem: 0 21G<440 550> 440 110<0 440>
VStem: 440 110<0 440>
LayerCount: 2
Fore
SplineSet
-0 440 m 1
 -0 550 l 1
 550 550 l 1
 550 0 l 1
 440 0 l 1
 440 440 l 1
 -0 440 l 1
EndSplineSet
Validated: 1
EndChar

StartChar: uniE028
Encoding: 57384 57384 209
Width: 660
Flags: W
HStem: 0 110<110 440> 220 110<110 440> 440 110<110 440>
VStem: 0 110<110 220 330 440> 440 110<110 220 330 440>
CounterMasks: 1 e0
LayerCount: 2
Fore
SplineSet
0 0 m 1
 0 550 l 1
 550 550 l 1
 550 0 l 1
 0 0 l 1
110 330 m 1
 440 330 l 1
 440 440 l 1
 110 440 l 1
 110 330 l 1
110 110 m 1
 440 110 l 1
 440 220 l 1
 110 220 l 1
 110 110 l 1
EndSplineSet
Validated: 1
EndChar

StartChar: uniE029
Encoding: 57385 57385 210
Width: 660
Flags: W
HStem: 0 110<0 440> 220 110<110 440> 440 110<110 440>
VStem: 0 110<330 440> 440 110<110 220 330 440>
CounterMasks: 1 e0
LayerCount: 2
Fore
SplineSet
0 0 m 1
 0 110 l 1
 440 110 l 1
 440 220 l 1
 0 220 l 1
 0 550 l 1
 550 550 l 1
 550 0 l 1
 0 0 l 1
110 330 m 1
 440 330 l 1
 440 440 l 1
 110 440 l 1
 110 330 l 1
EndSplineSet
EndChar

StartChar: uniE040
Encoding: 57408 57408 211
Width: 660
VWidth: 1024
Flags: W
HStem: 0 21G<0 110 440 550> 330 110<110 440> 660 110<110 440> 810 110<275 385> 920 110<165 275>
VStem: 0 110<0 330 440 660> 165 110<920 1030> 275 110<810 920> 440 110<0 330 440 660>
LayerCount: 2
Fore
SplineSet
165 920 m 1xee80
 165 1030 l 1
 275 1030 l 1xee80
 275 920 l 1xf680
 165 920 l 1xee80
275 810 m 1xf580
 275 920 l 1xf680
 385 920 l 1
 385 810 l 1
 275 810 l 1xf580
110 440 m 1
 440 440 l 1
 440 660 l 1
 110 660 l 1
 110 440 l 1
0 0 m 25
 0 770 l 1
 550 770 l 25
 550 0 l 25
 440 0 l 25
 440 330 l 25
 110 330 l 25
 110 0 l 25
 0 0 l 25
EndSplineSet
EndChar

StartChar: uniE041
Encoding: 57409 57409 212
Width: 660
VWidth: 1024
Flags: W
HStem: 0 21G<0 110 440 550> 330 110<110 440> 660 110<110 440> 810 110<165 275> 920 110<275 385>
VStem: 0 110<0 330 440 660> 165 110<810 920> 275 110<920 1030> 440 110<0 330 440 660>
LayerCount: 2
Fore
SplineSet
275 920 m 1xf680
 275 1030 l 1
 385 1030 l 1
 385 920 l 1xed80
 275 920 l 1xf680
165 810 m 1xf680
 165 920 l 1
 275 920 l 1
 275 810 l 1
 165 810 l 1xf680
110 440 m 1
 440 440 l 1
 440 660 l 1
 110 660 l 1
 110 440 l 1
0 0 m 25
 0 770 l 1
 550 770 l 25
 550 0 l 25
 440 0 l 25
 440 330 l 25
 110 330 l 25
 110 0 l 25
 0 0 l 25
EndSplineSet
EndChar

StartChar: uniE042
Encoding: 57410 57410 213
Width: 660
VWidth: 1024
Flags: W
HStem: 0 21G<0 110 440 550> 330 110<110 440> 660 110<110 440> 810 110<43 153 397 507> 920 110<153 263 287 397>
VStem: 0 110<0 330 440 660> 43 110<810 920> 153 110<920 1030> 287 110<920 1030> 397 110<810 920> 440 110<0 330 440 660>
LayerCount: 2
Fore
SplineSet
287 920 m 1xe880
 287 1030 l 1
 397 1030 l 1xe880
 397 920 l 1xf080
 287 920 l 1xe880
397 810 m 1xf040
 397 920 l 1xf080
 507 920 l 1
 507 810 l 1
 397 810 l 1xf040
153 920 m 1xf2
 153 1030 l 1
 263 1030 l 1
 263 920 l 1xe9
 153 920 l 1xf2
43 810 m 1xf2
 43 920 l 1
 153 920 l 1
 153 810 l 1
 43 810 l 1xf2
110 440 m 1xe420
 440 440 l 1
 440 660 l 1
 110 660 l 1
 110 440 l 1xe420
0 0 m 25
 0 770 l 1
 550 770 l 25
 550 0 l 25
 440 0 l 25
 440 330 l 25
 110 330 l 25
 110 0 l 25
 0 0 l 25
EndSplineSet
EndChar

StartChar: uniE043
Encoding: 57411 57411 214
Width: 660
VWidth: 1024
Flags: W
HStem: 0 21G<0 110 440 550> 330 110<110 440> 660 110<110 440> 810 110<55 165 275 385> 920 110<165 275 385 495>
VStem: 0 110<0 330 440 660> 55 110<810 920> 165 110<920 1030> 275 110<810 920> 385 110<920 1030> 440 110<0 330 440 660>
LayerCount: 2
Fore
SplineSet
385 920 m 1xf080
 385 1030 l 1
 495 1030 l 1
 495 920 l 1xe840
 385 920 l 1xf080
275 810 m 1xf080
 275 920 l 1xf1
 385 920 l 1
 385 810 l 1
 275 810 l 1xf080
165 920 m 1xf2
 165 1030 l 1
 275 1030 l 1xe9
 275 920 l 1xf1
 165 920 l 1xf2
55 810 m 1xf2
 55 920 l 1
 165 920 l 1
 165 810 l 1
 55 810 l 1xf2
110 440 m 1xe420
 440 440 l 1
 440 660 l 1
 110 660 l 1
 110 440 l 1xe420
0 0 m 25
 0 770 l 1
 550 770 l 25
 550 0 l 25
 440 0 l 25
 440 330 l 25
 110 330 l 25
 110 0 l 25
 0 0 l 25
EndSplineSet
EndChar

StartChar: uniE044
Encoding: 57412 57412 215
Width: 660
VWidth: 1024
Flags: W
HStem: 0 21G<0 110 440 550> 330 110<110 440> 660 110<110 440> 810 110<123 233 317 427>
VStem: 0 110<0 330 440 660> 123 110<810 920> 317 110<810 920> 440 110<0 330 440 660>
LayerCount: 2
Fore
SplineSet
317 810 m 1
 317 920 l 1
 427 920 l 1
 427 810 l 1
 317 810 l 1
123 810 m 1
 123 920 l 1
 233 920 l 1
 233 810 l 1
 123 810 l 1
110 440 m 1
 440 440 l 1
 440 660 l 1
 110 660 l 1
 110 440 l 1
0 0 m 25
 0 770 l 1
 550 770 l 25
 550 0 l 25
 440 0 l 25
 440 330 l 25
 110 330 l 25
 110 0 l 25
 0 0 l 25
EndSplineSet
EndChar

StartChar: uniE045
Encoding: 57413 57413 216
Width: 660
VWidth: 1024
Flags: W
HStem: 0 21G<0 110 440 550> 330 110<110 440> 660 110<110 440> 810 110<220 330> 920 110<110 220 330 440> 1030 110<220 330>
VStem: 0 110<0 330 440 660> 110 110<920 1030> 220 110<810 920 1030 1140> 330 110<920 1030> 440 110<0 330 440 660>
LayerCount: 2
Fore
SplineSet
220 1030 m 1xe9
 220 1140 l 1
 330 1140 l 1xe480
 330 1030 l 1xe880
 220 1030 l 1xe9
330 920 m 1xf080
 330 1030 l 1xe880
 440 1030 l 1
 440 920 l 1xe840
 330 920 l 1xf080
220 810 m 1xf080
 220 920 l 1xf1
 330 920 l 1
 330 810 l 1
 220 810 l 1xf080
110 920 m 1xe9
 110 1030 l 1
 220 1030 l 1xe9
 220 920 l 1xf1
 110 920 l 1xe9
110 440 m 1xe220
 440 440 l 1
 440 660 l 1
 110 660 l 1
 110 440 l 1xe220
0 0 m 25
 0 770 l 1
 550 770 l 25
 550 0 l 25
 440 0 l 25
 440 330 l 25
 110 330 l 25
 110 0 l 25
 0 0 l 25
EndSplineSet
EndChar

StartChar: uniE046
Encoding: 57414 57414 217
Width: 660
Flags: W
HStem: -260 110<165 275> -150 110<275 385> 0 110<110 550> 660 110<110 550>
VStem: 0 110<110 660> 165 110<-260 -150> 275 110<-150 -40>
LayerCount: 2
Fore
SplineSet
275 -150 m 1xbc
 275 -40 l 1
 385 -40 l 1
 385 -150 l 1x7a
 275 -150 l 1xbc
165 -260 m 1xbc
 165 -150 l 1
 275 -150 l 1
 275 -260 l 1
 165 -260 l 1xbc
0 0 m 1
 0 770 l 1
 550 770 l 1
 550 660 l 1
 110 660 l 1
 110 110 l 1
 550 110 l 1
 550 0 l 1
 0 0 l 1
EndSplineSet
EndChar

StartChar: uniE047
Encoding: 57415 57415 218
Width: 660
Flags: W
HStem: 0 110<110 550> 330 110<110 440> 660 110<110 550> 810 110<275 385> 920 110<165 275>
VStem: 0 110<110 330 440 660> 165 110<920 1030> 275 110<810 920>
LayerCount: 2
Fore
SplineSet
165 920 m 1xee
 165 1030 l 1
 275 1030 l 1xee
 275 920 l 1xf6
 165 920 l 1xee
275 810 m 1xf5
 275 920 l 1xf6
 385 920 l 1
 385 810 l 1
 275 810 l 1xf5
0 0 m 1
 0 770 l 1
 550 770 l 1
 550 660 l 1
 110 660 l 1
 110 440 l 1
 440 440 l 1
 440 330 l 1
 110 330 l 1
 110 110 l 1
 550 110 l 1
 550 0 l 1
 0 0 l 1
EndSplineSet
EndChar

StartChar: uniE048
Encoding: 57416 57416 219
Width: 660
Flags: W
HStem: 0 110<110 550> 330 110<110 440> 660 110<110 550> 810 110<165 275> 920 110<275 385>
VStem: 0 110<110 330 440 660> 165 110<810 920> 275 110<920 1030>
LayerCount: 2
Fore
SplineSet
275 920 m 1xf6
 275 1030 l 1
 385 1030 l 1
 385 920 l 1xed
 275 920 l 1xf6
165 810 m 1xf6
 165 920 l 1
 275 920 l 1
 275 810 l 1
 165 810 l 1xf6
0 0 m 1
 0 770 l 1
 550 770 l 1
 550 660 l 1
 110 660 l 1
 110 440 l 1
 440 440 l 1
 440 330 l 1
 110 330 l 1
 110 110 l 1
 550 110 l 1
 550 0 l 1
 0 0 l 1
EndSplineSet
EndChar

StartChar: uniE049
Encoding: 57417 57417 220
Width: 660
Flags: W
HStem: 0 110<110 550> 330 110<110 440> 660 110<110 550> 810 110<43 153 397 507> 920 110<153 263 287 397>
VStem: 0 110<110 330 440 660> 43 110<810 920> 153 110<920 1030> 287 110<920 1030> 397 110<810 920>
LayerCount: 2
Fore
SplineSet
287 920 m 1xe880
 287 1030 l 1
 397 1030 l 1xe880
 397 920 l 1xf080
 287 920 l 1xe880
397 810 m 1xf040
 397 920 l 1xf080
 507 920 l 1
 507 810 l 1
 397 810 l 1xf040
153 920 m 1xf2
 153 1030 l 1
 263 1030 l 1
 263 920 l 1xe9
 153 920 l 1xf2
43 810 m 1xf2
 43 920 l 1
 153 920 l 1
 153 810 l 1
 43 810 l 1xf2
0 0 m 1xe4
 0 770 l 1
 550 770 l 1
 550 660 l 1
 110 660 l 1
 110 440 l 1
 440 440 l 1
 440 330 l 1
 110 330 l 1
 110 110 l 1
 550 110 l 1
 550 0 l 1
 0 0 l 1xe4
EndSplineSet
EndChar

StartChar: uniE04A
Encoding: 57418 57418 221
Width: 660
Flags: W
HStem: 0 110<110 550> 330 110<110 440> 660 110<110 550> 810 110<123 233 317 427>
VStem: 0 110<110 330 440 660> 123 110<810 920> 317 110<810 920>
LayerCount: 2
Fore
SplineSet
317 810 m 1
 317 920 l 1
 427 920 l 1
 427 810 l 1
 317 810 l 1
123 810 m 1
 123 920 l 1
 233 920 l 1
 233 810 l 1
 123 810 l 1
0 0 m 1
 0 770 l 1
 550 770 l 1
 550 660 l 1
 110 660 l 1
 110 440 l 1
 440 440 l 1
 440 330 l 1
 110 330 l 1
 110 110 l 1
 550 110 l 1
 550 0 l 1
 0 0 l 1
EndSplineSet
EndChar

StartChar: uniE04B
Encoding: 57419 57419 222
Width: 660
Flags: W
HStem: 0 21G<0 110 440 550> 660 110<110 440> 810 110<55 165 275 385> 920 110<165 275 385 495>
VStem: 0 110<0 660> 55 110<810 920> 165 110<920 1030> 275 110<810 920> 385 110<920 1030> 440 110<0 660>
LayerCount: 2
Fore
SplineSet
385 920 m 1xe1
 385 1030 l 1
 495 1030 l 1
 495 920 l 1xd080
 385 920 l 1xe1
275 810 m 1xe1
 275 920 l 1xe2
 385 920 l 1
 385 810 l 1
 275 810 l 1xe1
165 920 m 1xe4
 165 1030 l 1
 275 1030 l 1xd2
 275 920 l 1xe2
 165 920 l 1xe4
55 810 m 1xe4
 55 920 l 1
 165 920 l 1
 165 810 l 1
 55 810 l 1xe4
0 0 m 1xc840
 0 770 l 1
 550 770 l 1
 550 0 l 1
 440 0 l 1
 440 660 l 1
 110 660 l 1
 110 0 l 1
 0 0 l 1xc840
EndSplineSet
EndChar

StartChar: uniE04C
Encoding: 57420 57420 223
Width: 770
Flags: W
HStem: 0 110<110 550> 660 110<110 550> 810 110<330 440> 920 110<220 330>
VStem: 0 110<110 660> 220 110<920 1030> 330 110<810 920> 550 110<110 660>
LayerCount: 2
Fore
SplineSet
220 920 m 1xdd
 220 1030 l 1
 330 1030 l 1xdd
 330 920 l 1xed
 220 920 l 1xdd
330 810 m 1xeb
 330 920 l 1xed
 440 920 l 1
 440 810 l 1
 330 810 l 1xeb
110 110 m 1
 550 110 l 1
 550 660 l 1
 110 660 l 1
 110 110 l 1
0 0 m 1
 0 770 l 1
 660 770 l 1
 660 0 l 17
 0 0 l 1
EndSplineSet
EndChar

StartChar: uniE060
Encoding: 57440 57440 224
Width: 220
Flags: W
HStem: 0 110<0 110> 530 20G<0 110>
VStem: 0 110<0 110 220 550>
LayerCount: 2
Fore
SplineSet
0 0 m 1
 0 110 l 1
 110 110 l 1
 110 0 l 1
 0 0 l 1
0 220 m 1
 0 550 l 1
 110 550 l 1
 110 220 l 1
 0 220 l 1
EndSplineSet
EndChar

StartChar: uniE061
Encoding: 57441 57441 225
Width: 440
VWidth: 1024
Flags: W
HStem: 330 220<0 110 220 330>
VStem: 0 110<330 550> 220 110<330 550>
LayerCount: 2
Fore
SplineSet
220 330 m 1
 220 550 l 1
 330 550 l 1
 330 330 l 1
 220 330 l 1
0 330 m 1
 0 550 l 1
 110 550 l 1
 110 330 l 1
 0 330 l 1
EndSplineSet
EndChar

StartChar: uniE062
Encoding: 57442 57442 226
Width: 220
VWidth: 1024
Flags: W
HStem: 330 220<0 110>
VStem: 0 110<330 550>
LayerCount: 2
Fore
SplineSet
0 330 m 1
 0 550 l 1
 110 550 l 1
 110 330 l 1
 0 330 l 1
EndSplineSet
EndChar

StartChar: uniE063
Encoding: 57443 57443 227
Width: 330
VWidth: 1024
Flags: W
HStem: -110 110<110 220> 0 21G<0 110> 530 20G<0 110> 550 110<110 220>
VStem: 0 110<0 550> 110 110<-110 0 550 660>
LayerCount: 2
Fore
SplineSet
110 550 m 1x28
 110 660 l 1
 220 660 l 1
 220 550 l 1x14
 110 550 l 1x28
110 -110 m 1x84
 110 0 l 1x88
 220 0 l 1
 220 -110 l 1
 110 -110 l 1x84
0 0 m 1x48
 0 550 l 1
 110 550 l 1
 110 0 l 1xa8
 0 0 l 1x48
EndSplineSet
EndChar

StartChar: uniE064
Encoding: 57444 57444 228
Width: 330
VWidth: 1024
Flags: W
HStem: -110 110<0 110> 0 21G<110 220> 530 20G<110 220> 550 110<0 110>
VStem: 0 110<-110 0 550 660> 110 110<0 550>
LayerCount: 2
Fore
SplineSet
110 0 m 1x88
 110 550 l 1xa8
 220 550 l 1
 220 0 l 1x64
 110 0 l 1x88
0 550 m 1x18
 0 660 l 1
 110 660 l 1x18
 110 550 l 1x28
 0 550 l 1x18
0 -110 m 1x88
 0 0 l 1
 110 0 l 1
 110 -110 l 1
 0 -110 l 1x88
EndSplineSet
EndChar

StartChar: uniE065
Encoding: 57445 57445 229
Width: 440
VWidth: 1024
Flags: W
HStem: 440 110<0 110 220 330> 550 110<110 220> 660 110<0 110 220 330>
VStem: 0 110<440 550 660 770> 110 110<550 660> 220 110<440 550 660 770>
LayerCount: 2
Fore
SplineSet
220 660 m 1x48
 220 770 l 1
 330 770 l 1
 330 660 l 1x24
 220 660 l 1x48
220 440 m 1x84
 220 550 l 1x88
 330 550 l 1
 330 440 l 1
 220 440 l 1x84
0 660 m 1x30
 0 770 l 1
 110 770 l 1x30
 110 660 l 1x50
 0 660 l 1x30
0 440 m 1x90
 0 550 l 1
 110 550 l 1
 110 440 l 1
 0 440 l 1x90
110 550 m 1
 110 660 l 1x50
 220 660 l 1x48
 220 550 l 1x88
 110 550 l 1
EndSplineSet
EndChar

StartChar: uniE066
Encoding: 57446 57446 230
Width: 660
VWidth: 1024
Flags: W
HStem: 0 21G<220 330> 220 110<0 220 330 550> 530 20G<220 330>
VStem: 220 110<0 220 330 550>
LayerCount: 2
Fore
SplineSet
0 220 m 1
 0 330 l 1
 220 330 l 1
 220 550 l 1
 330 550 l 1
 330 330 l 1
 550 330 l 1
 550 220 l 1
 330 220 l 1
 330 0 l 1
 220 0 l 1
 220 220 l 1
 0 220 l 1
EndSplineSet
EndChar

StartChar: uniE067
Encoding: 57447 57447 231
Width: 660
VWidth: 1024
Flags: W
HStem: 220 110<0 550>
LayerCount: 2
Fore
SplineSet
0 220 m 1
 0 330 l 1
 550 330 l 1
 550 220 l 1
 0 220 l 1
EndSplineSet
EndChar

StartChar: uniE068
Encoding: 57448 57448 232
Width: 660
VWidth: 1024
Flags: W
HStem: 0 110<0 550> 220 110<0 550>
LayerCount: 2
Fore
SplineSet
0 0 m 1
 0 110 l 1
 550 110 l 1
 550 0 l 1
 0 0 l 1
0 220 m 1
 0 330 l 1
 550 330 l 1
 550 220 l 1
 0 220 l 1
EndSplineSet
EndChar

StartChar: uniE069
Encoding: 57449 57449 233
Width: 880
Flags: W
HStem: -220 110<110 770> 0 110<330 660> 220 110<330 660> 440 110<110 660>
VStem: 0 110<-110 440> 220 110<110 220> 660 110<110 220 330 440>
LayerCount: 2
Fore
SplineSet
0 -220 m 1
 0 550 l 1
 770 550 l 1
 770 0 l 1
 220 0 l 1
 220 330 l 1
 660 330 l 1
 660 440 l 1
 110 440 l 1
 110 -110 l 1
 770 -110 l 1
 770 -220 l 1
 0 -220 l 1
330 110 m 1
 660 110 l 1
 660 220 l 1
 330 220 l 1
 330 110 l 1
EndSplineSet
EndChar

StartChar: uniE06A
Encoding: 57450 57450 234
Width: 330
Flags: W
HStem: -110 110<110 220> 550 110<110 220>
VStem: 0 220<-110 0 550 660> 0 110<0 550>
LayerCount: 2
Fore
SplineSet
0 -110 m 1xe0
 0 660 l 1
 220 660 l 1
 220 550 l 1xe0
 110 550 l 1
 110 0 l 1xd0
 220 0 l 1
 220 -110 l 1
 0 -110 l 1xe0
EndSplineSet
EndChar

StartChar: uniE06B
Encoding: 57451 57451 235
Width: 330
Flags: W
HStem: -110 110<0 110> 550 110<0 110>
VStem: 0 220<-110 0 550 660> 110 110<0 550>
LayerCount: 2
Fore
SplineSet
0 -110 m 1xe0
 0 0 l 1xe0
 110 0 l 1
 110 550 l 1xd0
 0 550 l 1
 0 660 l 1
 220 660 l 1
 220 -110 l 1
 0 -110 l 1xe0
EndSplineSet
EndChar

StartChar: uniE06C
Encoding: 57452 57452 236
Width: 500
Flags: W
HStem: 533 30<0 82 110 192 243 306 334 397>
VStem: 82 28<355 533> 215 28<355 533> 306 28<355 533> 397 28<355 533>
LayerCount: 2
Fore
SplineSet
0 533 m 1
 0 563 l 1
 192 563 l 1
 192 533 l 1
 110 533 l 1
 110 355 l 1
 82 355 l 1
 82 533 l 1
 0 533 l 1
215 355 m 1
 215 563 l 1
 425 563 l 1
 425 355 l 1
 397 355 l 1
 397 533 l 1
 334 533 l 1
 334 355 l 1
 306 355 l 1
 306 533 l 1
 243 533 l 1
 243 355 l 1
 215 355 l 1
EndSplineSet
EndChar

StartChar: uniE04D
Encoding: 57421 57421 237
Width: 770
Flags: W
HStem: 0 110<110 550> 660 110<110 550> 810 110<220 330> 920 110<330 440>
VStem: 0 110<110 660> 220 110<810 920> 330 110<920 1030> 550 110<110 660>
LayerCount: 2
Fore
SplineSet
330 920 m 1xed
 330 1030 l 1
 440 1030 l 1
 440 920 l 1xdb
 330 920 l 1xed
220 810 m 1xed
 220 920 l 1
 330 920 l 1
 330 810 l 1
 220 810 l 1xed
110 110 m 1
 550 110 l 1
 550 660 l 1
 110 660 l 1
 110 110 l 1
0 0 m 1
 0 770 l 1
 660 770 l 1
 660 0 l 17
 0 0 l 1
EndSplineSet
EndChar

StartChar: uniE04E
Encoding: 57422 57422 238
Width: 770
Flags: W
HStem: 0 110<110 550> 660 110<110 550> 810 110<98 208 452 562> 920 110<208 318 342 452>
VStem: 0 110<110 660> 98 110<810 920> 208 110<920 1030> 342 110<920 1030> 452 110<810 920> 550 110<110 660>
LayerCount: 2
Fore
SplineSet
342 920 m 1xd1
 342 1030 l 1
 452 1030 l 1xd1
 452 920 l 1xe1
 342 920 l 1xd1
452 810 m 1xe080
 452 920 l 1xe1
 562 920 l 1
 562 810 l 1
 452 810 l 1xe080
208 920 m 1xe4
 208 1030 l 1
 318 1030 l 1
 318 920 l 1xd2
 208 920 l 1xe4
98 810 m 1xe4
 98 920 l 1
 208 920 l 1
 208 810 l 1
 98 810 l 1xe4
110 110 m 1xc840
 550 110 l 1
 550 660 l 1
 110 660 l 1
 110 110 l 1xc840
0 0 m 1
 0 770 l 1
 660 770 l 1
 660 0 l 17
 0 0 l 1
EndSplineSet
EndChar

StartChar: uniE04F
Encoding: 57423 57423 239
Width: 770
Flags: W
HStem: 0 110<110 550> 660 110<110 550> 810 110<110 220 330 440> 920 110<220 330 440 550>
VStem: 0 110<110 660> 110 110<810 920> 220 110<920 1030> 330 110<810 920> 440 110<920 1030> 550 110<110 660>
LayerCount: 2
Fore
SplineSet
440 920 m 1xe1
 440 1030 l 1
 550 1030 l 1
 550 920 l 1xd080
 440 920 l 1xe1
330 810 m 1xe1
 330 920 l 1xe2
 440 920 l 1
 440 810 l 1
 330 810 l 1xe1
220 920 m 1xe4
 220 1030 l 1
 330 1030 l 1xd2
 330 920 l 1xe2
 220 920 l 1xe4
110 810 m 1xe4
 110 920 l 1
 220 920 l 1
 220 810 l 1
 110 810 l 1xe4
110 110 m 1xc840
 550 110 l 1
 550 660 l 1
 110 660 l 1
 110 110 l 1xc840
0 0 m 1
 0 770 l 1
 660 770 l 1
 660 0 l 17
 0 0 l 1
EndSplineSet
EndChar

StartChar: uniE050
Encoding: 57424 57424 240
Width: 770
Flags: W
HStem: 0 110<110 550> 660 110<110 550> 810 110<178 288 372 482>
VStem: 0 110<110 660> 178 110<810 920> 372 110<810 920> 550 110<110 660>
LayerCount: 2
Fore
SplineSet
372 810 m 1
 372 920 l 1
 482 920 l 1
 482 810 l 1
 372 810 l 1
178 810 m 1
 178 920 l 1
 288 920 l 1
 288 810 l 1
 178 810 l 1
110 110 m 1
 550 110 l 1
 550 660 l 1
 110 660 l 1
 110 110 l 1
0 0 m 1
 0 770 l 1
 660 770 l 1
 660 0 l 17
 0 0 l 1
EndSplineSet
EndChar

StartChar: uniE051
Encoding: 57425 57425 241
Width: 770
Flags: W
HStem: 0 110<110 550> 275 110<220 330> 385 110<330 440> 660 110<110 550>
VStem: 0 110<110 165 275 660> 220 110<275 385> 330 110<385 495> 550 110<110 495 605 660>
LayerCount: 2
Fore
SplineSet
330 385 m 1xdd
 330 495 l 1
 440 495 l 1
 440 385 l 1xbb
 330 385 l 1xdd
220 275 m 1xdd
 220 385 l 1
 330 385 l 1
 330 275 l 1
 220 275 l 1xdd
110 110 m 1
 550 110 l 1
 550 495 l 1
 440 495 l 1
 440 605 l 1xbb
 550 605 l 1
 550 660 l 1
 110 660 l 1
 110 275 l 1
 220 275 l 1
 220 165 l 1
 110 165 l 1
 110 110 l 1
0 0 m 1
 0 770 l 1
 660 770 l 1
 660 0 l 1
 0 0 l 1
EndSplineSet
EndChar

StartChar: uniE052
Encoding: 57426 57426 242
Width: 660
Flags: W
HStem: 0 110<110 440> 750 20G<0 110 440 550> 810 110<275 385> 920 110<165 275>
VStem: 0 110<110 770> 165 110<920 1030> 275 110<810 920> 440 110<110 770>
LayerCount: 2
Fore
SplineSet
165 920 m 1xdd
 165 1030 l 1
 275 1030 l 1xdd
 275 920 l 1xed
 165 920 l 1xdd
275 810 m 1xeb
 275 920 l 1xed
 385 920 l 1
 385 810 l 1
 275 810 l 1xeb
0 0 m 1
 0 770 l 1
 110 770 l 1
 110 110 l 1
 440 110 l 1
 440 770 l 1
 550 770 l 1
 550 0 l 1
 0 0 l 1
EndSplineSet
EndChar

StartChar: uniE053
Encoding: 57427 57427 243
Width: 660
Flags: W
HStem: 0 110<110 440> 750 20G<0 110 440 550> 810 110<165 275> 920 110<275 385>
VStem: 0 110<110 770> 165 110<810 920> 275 110<920 1030> 440 110<110 770>
LayerCount: 2
Fore
SplineSet
275 920 m 1xed
 275 1030 l 1
 385 1030 l 1
 385 920 l 1xdb
 275 920 l 1xed
165 810 m 1xed
 165 920 l 1
 275 920 l 1
 275 810 l 1
 165 810 l 1xed
0 0 m 1
 0 770 l 1
 110 770 l 1
 110 110 l 1
 440 110 l 1
 440 770 l 1
 550 770 l 1
 550 0 l 1
 0 0 l 1
EndSplineSet
EndChar

StartChar: uniE054
Encoding: 57428 57428 244
Width: 660
Flags: W
HStem: 0 110<110 440> 750 20G<0 110 440 550> 810 110<43 153 397 507> 920 110<153 263 287 397>
VStem: 0 110<110 770> 43 110<810 920> 153 110<920 1030> 287 110<920 1030> 397 110<810 920> 440 110<110 770>
LayerCount: 2
Fore
SplineSet
287 920 m 1xd1
 287 1030 l 1
 397 1030 l 1xd1
 397 920 l 1xe1
 287 920 l 1xd1
397 810 m 1xe080
 397 920 l 1xe1
 507 920 l 1
 507 810 l 1
 397 810 l 1xe080
153 920 m 1xe4
 153 1030 l 1
 263 1030 l 1
 263 920 l 1xd2
 153 920 l 1xe4
43 810 m 1xe4
 43 920 l 1
 153 920 l 1
 153 810 l 1
 43 810 l 1xe4
0 0 m 1xc840
 0 770 l 1
 110 770 l 1
 110 110 l 1
 440 110 l 1
 440 770 l 1
 550 770 l 1
 550 0 l 1
 0 0 l 1xc840
EndSplineSet
EndChar

StartChar: uniE055
Encoding: 57429 57429 245
Width: 660
Flags: W
HStem: 0 110<110 440> 750 20G<0 110 440 550> 810 110<123 233 317 427>
VStem: 0 110<110 770> 123 110<810 920> 317 110<810 920> 440 110<110 770>
LayerCount: 2
Fore
SplineSet
317 810 m 1
 317 920 l 1
 427 920 l 1
 427 810 l 1
 317 810 l 1
123 810 m 1
 123 920 l 1
 233 920 l 1
 233 810 l 1
 123 810 l 1
0 0 m 1
 0 770 l 1
 110 770 l 1
 110 110 l 1
 440 110 l 1
 440 770 l 1
 550 770 l 1
 550 0 l 1
 0 0 l 1
EndSplineSet
EndChar

StartChar: uniE056
Encoding: 57430 57430 246
Width: 660
Flags: W
HStem: 0 21G<220 330> 330 110<110 220 330 440> 750 20G<0 110 440 550> 810 110<165 275> 920 110<275 385>
VStem: 0 110<440 770> 165 110<810 920> 220 110<0 330> 275 110<920 1030> 440 110<440 770>
LayerCount: 2
Fore
SplineSet
275 920 m 1xf640
 275 1030 l 1
 385 1030 l 1
 385 920 l 1xecc0
 275 920 l 1xf640
165 810 m 1xf640
 165 920 l 1
 275 920 l 1
 275 810 l 1
 165 810 l 1xf640
0 330 m 1
 0 770 l 1
 110 770 l 1
 110 440 l 1
 440 440 l 1
 440 770 l 1
 550 770 l 9
 550 330 l 17
 330 330 l 1
 330 0 l 1
 220 0 l 1
 220 330 l 1xe540
 0 330 l 1
EndSplineSet
EndChar

StartChar: uniE057
Encoding: 57431 57431 247
Width: 660
Flags: W
HStem: 0 21G<220 330> 330 110<110 220 330 440> 750 20G<0 110 440 550> 810 110<123 233 317 427>
VStem: 0 110<440 770> 123 110<810 920> 220 110<0 330> 317 110<810 920> 440 110<440 770>
LayerCount: 2
Fore
SplineSet
317 810 m 1xf980
 317 920 l 1
 427 920 l 1
 427 810 l 1
 317 810 l 1xf980
123 810 m 1xfc80
 123 920 l 1
 233 920 l 1
 233 810 l 1
 123 810 l 1xfc80
0 330 m 1
 0 770 l 1
 110 770 l 1
 110 440 l 1
 440 440 l 1
 440 770 l 1
 550 770 l 9
 550 330 l 17
 330 330 l 1
 330 0 l 1
 220 0 l 1
 220 330 l 1xfa80
 0 330 l 1
EndSplineSet
EndChar

StartChar: uniE058
Encoding: 57432 57432 248
Width: 660
Flags: MW
HStem: 0 110<110 550> 220 110<110 220> 330 110<220 330> 440 110<330 440> 660 110<0 440> 810 110<220 330> 920 110<110 220 330 440>
VStem: 0 110<110 220> 110 110<220 330 920 1030> 220 110<330 440 810 920> 330 110<440 550 920 1030> 440 110<550 660>
LayerCount: 2
Fore
SplineSet
330 920 m 1x8c40
 330 1030 l 1
 440 1030 l 1
 440 920 l 1x8a20
 330 920 l 1x8c40
220 810 m 1x8c40
 220 920 l 1x8c80
 330 920 l 1
 330 810 l 1
 220 810 l 1x8c40
110 920 m 1x8a80
 110 1030 l 1
 220 1030 l 1x8a80
 220 920 l 1x8c80
 110 920 l 1x8a80
0 660 m 1x9910
 0 770 l 1
 550 770 l 1
 550 550 l 1x9910
 440 550 l 1x9820
 440 660 l 9
 0 660 l 1x9910
330 440 m 1xa840
 330 550 l 1
 440 550 l 1
 440 440 l 1x9820
 330 440 l 1xa840
220 330 m 1xc880
 220 440 l 1
 330 440 l 1
 330 330 l 1xa840
 220 330 l 1xc880
110 220 m 1xc9
 110 330 l 1
 220 330 l 1
 220 220 l 1xc880
 110 220 l 1xc9
0 0 m 1xc910
 0 220 l 1
 110 220 l 1
 110 110 l 1
 550 110 l 17
 550 0 l 1
 0 0 l 1xc910
EndSplineSet
EndChar

StartChar: uniE059
Encoding: 57433 57433 249
Width: 660
Flags: W
HStem: 0 110<220 440> 220 110<220 440> 440 110<110 440>
VStem: 0 110<0 440> 220 330<0 110 220 330> 440 110<110 220 330 440>
CounterMasks: 1 e0
LayerCount: 2
Fore
SplineSet
0 0 m 1xf4
 0 550 l 1
 550 550 l 1xf4
 550 0 l 1
 220 0 l 9
 220 110 l 17xf8
 440 110 l 1
 440 220 l 1xf4
 220 220 l 9
 220 330 l 17xf8
 440 330 l 1
 440 440 l 1
 110 440 l 1
 110 0 l 1
 0 0 l 1xf4
EndSplineSet
EndChar

StartChar: uniE080
Encoding: 57472 57472 250
Width: 880
Flags: W
HStem: 0 21G<330 440> 330 110<110 330 440 660> 750 20G<0 110 660 770>
VStem: 0 110<440 770> 330 110<0 330> 660 110<440 770>
CounterMasks: 1 1c
LayerCount: 2
Fore
SplineSet
0 330 m 1
 0 770 l 1
 110 770 l 1
 110 440 l 1
 660 440 l 1
 660 770 l 1
 770 770 l 9
 770 330 l 17
 440 330 l 1
 440 0 l 1
 330 0 l 1
 330 330 l 1
 0 330 l 1
EndSplineSet
EndChar

StartChar: uniE081
Encoding: 57473 57473 251
Width: 550
VWidth: 1024
Flags: W
HStem: 0 110<110 330> 440 110<110 440>
VStem: 0 110<-220 0 110 440>
LayerCount: 2
Fore
SplineSet
0 -220 m 1
 0 550 l 1
 440 550 l 1
 440 440 l 1
 110 440 l 1
 110 110 l 1
 330 110 l 1
 330 0 l 1
 110 0 l 1
 110 -220 l 1
 0 -220 l 1
EndSplineSet
EndChar

StartChar: uniE082
Encoding: 57474 57474 252
Width: 660
Flags: W
HStem: -220 110<110 550> 0 110<110 220> 440 110<220 330>
VStem: 0 110<-110 0> 220 110<110 330 440 550>
LayerCount: 2
Fore
SplineSet
0 -220 m 1
 0 110 l 1
 220 110 l 1
 220 330 l 1
 330 330 l 1
 330 0 l 1
 110 0 l 1
 110 -110 l 1
 550 -110 l 1
 550 -220 l 1
 0 -220 l 1
220 440 m 1
 220 550 l 1
 330 550 l 1
 330 440 l 1
 220 440 l 1
EndSplineSet
EndChar
